G04 #@! TF.GenerationSoftware,KiCad,Pcbnew,(5.1.12)-1*
G04 #@! TF.CreationDate,2022-01-02T13:29:21+01:00*
G04 #@! TF.ProjectId,20210211_eduino,32303231-3032-4313-915f-656475696e6f,v1.0*
G04 #@! TF.SameCoordinates,Original*
G04 #@! TF.FileFunction,Copper,L1,Top*
G04 #@! TF.FilePolarity,Positive*
%FSLAX46Y46*%
G04 Gerber Fmt 4.6, Leading zero omitted, Abs format (unit mm)*
G04 Created by KiCad (PCBNEW (5.1.12)-1) date 2022-01-02 13:29:21*
%MOMM*%
%LPD*%
G01*
G04 APERTURE LIST*
G04 #@! TA.AperFunction,SMDPad,CuDef*
%ADD10R,1.700000X0.900000*%
G04 #@! TD*
G04 #@! TA.AperFunction,ComponentPad*
%ADD11C,0.400000*%
G04 #@! TD*
G04 #@! TA.AperFunction,SMDPad,CuDef*
%ADD12R,0.650000X1.060000*%
G04 #@! TD*
G04 #@! TA.AperFunction,SMDPad,CuDef*
%ADD13R,0.900000X0.800000*%
G04 #@! TD*
G04 #@! TA.AperFunction,ComponentPad*
%ADD14C,0.800000*%
G04 #@! TD*
G04 #@! TA.AperFunction,SMDPad,CuDef*
%ADD15R,1.060000X0.650000*%
G04 #@! TD*
G04 #@! TA.AperFunction,ComponentPad*
%ADD16R,1.508000X1.508000*%
G04 #@! TD*
G04 #@! TA.AperFunction,ComponentPad*
%ADD17C,1.508000*%
G04 #@! TD*
G04 #@! TA.AperFunction,ComponentPad*
%ADD18O,3.150000X1.575000*%
G04 #@! TD*
G04 #@! TA.AperFunction,SMDPad,CuDef*
%ADD19R,1.000000X1.000000*%
G04 #@! TD*
G04 #@! TA.AperFunction,SMDPad,CuDef*
%ADD20R,1.050000X2.200000*%
G04 #@! TD*
G04 #@! TA.AperFunction,SMDPad,CuDef*
%ADD21R,2.000000X2.000000*%
G04 #@! TD*
G04 #@! TA.AperFunction,ComponentPad*
%ADD22C,1.524000*%
G04 #@! TD*
G04 #@! TA.AperFunction,ViaPad*
%ADD23C,0.800000*%
G04 #@! TD*
G04 #@! TA.AperFunction,Conductor*
%ADD24C,0.250000*%
G04 #@! TD*
G04 #@! TA.AperFunction,Conductor*
%ADD25C,0.254000*%
G04 #@! TD*
G04 #@! TA.AperFunction,Conductor*
%ADD26C,0.100000*%
G04 #@! TD*
G04 APERTURE END LIST*
D10*
X129286000Y-50800000D03*
X129286000Y-47400000D03*
X129286000Y-54356000D03*
X129286000Y-57756000D03*
D11*
X122486400Y-50960000D03*
X123299200Y-50198000D03*
X123299200Y-48674000D03*
X122486400Y-47962800D03*
X121013200Y-47962800D03*
X120302000Y-48724800D03*
X120302000Y-50198000D03*
X121013200Y-50960000D03*
X121775200Y-50198000D03*
X121826000Y-48674000D03*
X122486400Y-49436000D03*
X121013200Y-49486800D03*
G04 #@! TA.AperFunction,SMDPad,CuDef*
G36*
G01*
X99818000Y-53295000D02*
X99318000Y-53295000D01*
G75*
G02*
X99093000Y-53070000I0J225000D01*
G01*
X99093000Y-52620000D01*
G75*
G02*
X99318000Y-52395000I225000J0D01*
G01*
X99818000Y-52395000D01*
G75*
G02*
X100043000Y-52620000I0J-225000D01*
G01*
X100043000Y-53070000D01*
G75*
G02*
X99818000Y-53295000I-225000J0D01*
G01*
G37*
G04 #@! TD.AperFunction*
G04 #@! TA.AperFunction,SMDPad,CuDef*
G36*
G01*
X99818000Y-51745000D02*
X99318000Y-51745000D01*
G75*
G02*
X99093000Y-51520000I0J225000D01*
G01*
X99093000Y-51070000D01*
G75*
G02*
X99318000Y-50845000I225000J0D01*
G01*
X99818000Y-50845000D01*
G75*
G02*
X100043000Y-51070000I0J-225000D01*
G01*
X100043000Y-51520000D01*
G75*
G02*
X99818000Y-51745000I-225000J0D01*
G01*
G37*
G04 #@! TD.AperFunction*
G04 #@! TA.AperFunction,SMDPad,CuDef*
G36*
G01*
X129357000Y-39366000D02*
X129357000Y-38866000D01*
G75*
G02*
X129582000Y-38641000I225000J0D01*
G01*
X130032000Y-38641000D01*
G75*
G02*
X130257000Y-38866000I0J-225000D01*
G01*
X130257000Y-39366000D01*
G75*
G02*
X130032000Y-39591000I-225000J0D01*
G01*
X129582000Y-39591000D01*
G75*
G02*
X129357000Y-39366000I0J225000D01*
G01*
G37*
G04 #@! TD.AperFunction*
G04 #@! TA.AperFunction,SMDPad,CuDef*
G36*
G01*
X127807000Y-39366000D02*
X127807000Y-38866000D01*
G75*
G02*
X128032000Y-38641000I225000J0D01*
G01*
X128482000Y-38641000D01*
G75*
G02*
X128707000Y-38866000I0J-225000D01*
G01*
X128707000Y-39366000D01*
G75*
G02*
X128482000Y-39591000I-225000J0D01*
G01*
X128032000Y-39591000D01*
G75*
G02*
X127807000Y-39366000I0J225000D01*
G01*
G37*
G04 #@! TD.AperFunction*
G04 #@! TA.AperFunction,SMDPad,CuDef*
G36*
G01*
X104500000Y-51162800D02*
X105000000Y-51162800D01*
G75*
G02*
X105225000Y-51387800I0J-225000D01*
G01*
X105225000Y-51837800D01*
G75*
G02*
X105000000Y-52062800I-225000J0D01*
G01*
X104500000Y-52062800D01*
G75*
G02*
X104275000Y-51837800I0J225000D01*
G01*
X104275000Y-51387800D01*
G75*
G02*
X104500000Y-51162800I225000J0D01*
G01*
G37*
G04 #@! TD.AperFunction*
G04 #@! TA.AperFunction,SMDPad,CuDef*
G36*
G01*
X104500000Y-52712800D02*
X105000000Y-52712800D01*
G75*
G02*
X105225000Y-52937800I0J-225000D01*
G01*
X105225000Y-53387800D01*
G75*
G02*
X105000000Y-53612800I-225000J0D01*
G01*
X104500000Y-53612800D01*
G75*
G02*
X104275000Y-53387800I0J225000D01*
G01*
X104275000Y-52937800D01*
G75*
G02*
X104500000Y-52712800I225000J0D01*
G01*
G37*
G04 #@! TD.AperFunction*
G04 #@! TA.AperFunction,SMDPad,CuDef*
G36*
G01*
X110646000Y-51149800D02*
X111146000Y-51149800D01*
G75*
G02*
X111371000Y-51374800I0J-225000D01*
G01*
X111371000Y-51824800D01*
G75*
G02*
X111146000Y-52049800I-225000J0D01*
G01*
X110646000Y-52049800D01*
G75*
G02*
X110421000Y-51824800I0J225000D01*
G01*
X110421000Y-51374800D01*
G75*
G02*
X110646000Y-51149800I225000J0D01*
G01*
G37*
G04 #@! TD.AperFunction*
G04 #@! TA.AperFunction,SMDPad,CuDef*
G36*
G01*
X110646000Y-52699800D02*
X111146000Y-52699800D01*
G75*
G02*
X111371000Y-52924800I0J-225000D01*
G01*
X111371000Y-53374800D01*
G75*
G02*
X111146000Y-53599800I-225000J0D01*
G01*
X110646000Y-53599800D01*
G75*
G02*
X110421000Y-53374800I0J225000D01*
G01*
X110421000Y-52924800D01*
G75*
G02*
X110646000Y-52699800I225000J0D01*
G01*
G37*
G04 #@! TD.AperFunction*
G04 #@! TA.AperFunction,SMDPad,CuDef*
G36*
G01*
X102461750Y-51175300D02*
X102974250Y-51175300D01*
G75*
G02*
X103193000Y-51394050I0J-218750D01*
G01*
X103193000Y-51831550D01*
G75*
G02*
X102974250Y-52050300I-218750J0D01*
G01*
X102461750Y-52050300D01*
G75*
G02*
X102243000Y-51831550I0J218750D01*
G01*
X102243000Y-51394050D01*
G75*
G02*
X102461750Y-51175300I218750J0D01*
G01*
G37*
G04 #@! TD.AperFunction*
G04 #@! TA.AperFunction,SMDPad,CuDef*
G36*
G01*
X102461750Y-52750300D02*
X102974250Y-52750300D01*
G75*
G02*
X103193000Y-52969050I0J-218750D01*
G01*
X103193000Y-53406550D01*
G75*
G02*
X102974250Y-53625300I-218750J0D01*
G01*
X102461750Y-53625300D01*
G75*
G02*
X102243000Y-53406550I0J218750D01*
G01*
X102243000Y-52969050D01*
G75*
G02*
X102461750Y-52750300I218750J0D01*
G01*
G37*
G04 #@! TD.AperFunction*
G04 #@! TA.AperFunction,SMDPad,CuDef*
G36*
G01*
X117647000Y-37867000D02*
X117647000Y-37317000D01*
G75*
G02*
X117847000Y-37117000I200000J0D01*
G01*
X118247000Y-37117000D01*
G75*
G02*
X118447000Y-37317000I0J-200000D01*
G01*
X118447000Y-37867000D01*
G75*
G02*
X118247000Y-38067000I-200000J0D01*
G01*
X117847000Y-38067000D01*
G75*
G02*
X117647000Y-37867000I0J200000D01*
G01*
G37*
G04 #@! TD.AperFunction*
G04 #@! TA.AperFunction,SMDPad,CuDef*
G36*
G01*
X119297000Y-37867000D02*
X119297000Y-37317000D01*
G75*
G02*
X119497000Y-37117000I200000J0D01*
G01*
X119897000Y-37117000D01*
G75*
G02*
X120097000Y-37317000I0J-200000D01*
G01*
X120097000Y-37867000D01*
G75*
G02*
X119897000Y-38067000I-200000J0D01*
G01*
X119497000Y-38067000D01*
G75*
G02*
X119297000Y-37867000I0J200000D01*
G01*
G37*
G04 #@! TD.AperFunction*
G04 #@! TA.AperFunction,SMDPad,CuDef*
G36*
G01*
X86783000Y-47225000D02*
X87333000Y-47225000D01*
G75*
G02*
X87533000Y-47425000I0J-200000D01*
G01*
X87533000Y-47825000D01*
G75*
G02*
X87333000Y-48025000I-200000J0D01*
G01*
X86783000Y-48025000D01*
G75*
G02*
X86583000Y-47825000I0J200000D01*
G01*
X86583000Y-47425000D01*
G75*
G02*
X86783000Y-47225000I200000J0D01*
G01*
G37*
G04 #@! TD.AperFunction*
G04 #@! TA.AperFunction,SMDPad,CuDef*
G36*
G01*
X86783000Y-45575000D02*
X87333000Y-45575000D01*
G75*
G02*
X87533000Y-45775000I0J-200000D01*
G01*
X87533000Y-46175000D01*
G75*
G02*
X87333000Y-46375000I-200000J0D01*
G01*
X86783000Y-46375000D01*
G75*
G02*
X86583000Y-46175000I0J200000D01*
G01*
X86583000Y-45775000D01*
G75*
G02*
X86783000Y-45575000I200000J0D01*
G01*
G37*
G04 #@! TD.AperFunction*
G04 #@! TA.AperFunction,SMDPad,CuDef*
G36*
G01*
X110621000Y-46386800D02*
X111171000Y-46386800D01*
G75*
G02*
X111371000Y-46586800I0J-200000D01*
G01*
X111371000Y-46986800D01*
G75*
G02*
X111171000Y-47186800I-200000J0D01*
G01*
X110621000Y-47186800D01*
G75*
G02*
X110421000Y-46986800I0J200000D01*
G01*
X110421000Y-46586800D01*
G75*
G02*
X110621000Y-46386800I200000J0D01*
G01*
G37*
G04 #@! TD.AperFunction*
G04 #@! TA.AperFunction,SMDPad,CuDef*
G36*
G01*
X110621000Y-48036800D02*
X111171000Y-48036800D01*
G75*
G02*
X111371000Y-48236800I0J-200000D01*
G01*
X111371000Y-48636800D01*
G75*
G02*
X111171000Y-48836800I-200000J0D01*
G01*
X110621000Y-48836800D01*
G75*
G02*
X110421000Y-48636800I0J200000D01*
G01*
X110421000Y-48236800D01*
G75*
G02*
X110621000Y-48036800I200000J0D01*
G01*
G37*
G04 #@! TD.AperFunction*
G04 #@! TA.AperFunction,SMDPad,CuDef*
G36*
G01*
X129648000Y-42439000D02*
X129648000Y-41889000D01*
G75*
G02*
X129848000Y-41689000I200000J0D01*
G01*
X130248000Y-41689000D01*
G75*
G02*
X130448000Y-41889000I0J-200000D01*
G01*
X130448000Y-42439000D01*
G75*
G02*
X130248000Y-42639000I-200000J0D01*
G01*
X129848000Y-42639000D01*
G75*
G02*
X129648000Y-42439000I0J200000D01*
G01*
G37*
G04 #@! TD.AperFunction*
G04 #@! TA.AperFunction,SMDPad,CuDef*
G36*
G01*
X127998000Y-42439000D02*
X127998000Y-41889000D01*
G75*
G02*
X128198000Y-41689000I200000J0D01*
G01*
X128598000Y-41689000D01*
G75*
G02*
X128798000Y-41889000I0J-200000D01*
G01*
X128798000Y-42439000D01*
G75*
G02*
X128598000Y-42639000I-200000J0D01*
G01*
X128198000Y-42639000D01*
G75*
G02*
X127998000Y-42439000I0J200000D01*
G01*
G37*
G04 #@! TD.AperFunction*
G04 #@! TA.AperFunction,SMDPad,CuDef*
G36*
G01*
X86783000Y-50463500D02*
X87333000Y-50463500D01*
G75*
G02*
X87533000Y-50663500I0J-200000D01*
G01*
X87533000Y-51063500D01*
G75*
G02*
X87333000Y-51263500I-200000J0D01*
G01*
X86783000Y-51263500D01*
G75*
G02*
X86583000Y-51063500I0J200000D01*
G01*
X86583000Y-50663500D01*
G75*
G02*
X86783000Y-50463500I200000J0D01*
G01*
G37*
G04 #@! TD.AperFunction*
G04 #@! TA.AperFunction,SMDPad,CuDef*
G36*
G01*
X86783000Y-48813500D02*
X87333000Y-48813500D01*
G75*
G02*
X87533000Y-49013500I0J-200000D01*
G01*
X87533000Y-49413500D01*
G75*
G02*
X87333000Y-49613500I-200000J0D01*
G01*
X86783000Y-49613500D01*
G75*
G02*
X86583000Y-49413500I0J200000D01*
G01*
X86583000Y-49013500D01*
G75*
G02*
X86783000Y-48813500I200000J0D01*
G01*
G37*
G04 #@! TD.AperFunction*
G04 #@! TA.AperFunction,SMDPad,CuDef*
G36*
G01*
X86783000Y-52115500D02*
X87333000Y-52115500D01*
G75*
G02*
X87533000Y-52315500I0J-200000D01*
G01*
X87533000Y-52715500D01*
G75*
G02*
X87333000Y-52915500I-200000J0D01*
G01*
X86783000Y-52915500D01*
G75*
G02*
X86583000Y-52715500I0J200000D01*
G01*
X86583000Y-52315500D01*
G75*
G02*
X86783000Y-52115500I200000J0D01*
G01*
G37*
G04 #@! TD.AperFunction*
G04 #@! TA.AperFunction,SMDPad,CuDef*
G36*
G01*
X86783000Y-53765500D02*
X87333000Y-53765500D01*
G75*
G02*
X87533000Y-53965500I0J-200000D01*
G01*
X87533000Y-54365500D01*
G75*
G02*
X87333000Y-54565500I-200000J0D01*
G01*
X86783000Y-54565500D01*
G75*
G02*
X86583000Y-54365500I0J200000D01*
G01*
X86583000Y-53965500D01*
G75*
G02*
X86783000Y-53765500I200000J0D01*
G01*
G37*
G04 #@! TD.AperFunction*
D12*
X108812000Y-51668500D03*
X107862000Y-51668500D03*
X106912000Y-51668500D03*
X106912000Y-53868500D03*
X108812000Y-53868500D03*
G04 #@! TA.AperFunction,SMDPad,CuDef*
G36*
G01*
X96070000Y-46732000D02*
X96070000Y-46232000D01*
G75*
G02*
X96295000Y-46007000I225000J0D01*
G01*
X96745000Y-46007000D01*
G75*
G02*
X96970000Y-46232000I0J-225000D01*
G01*
X96970000Y-46732000D01*
G75*
G02*
X96745000Y-46957000I-225000J0D01*
G01*
X96295000Y-46957000D01*
G75*
G02*
X96070000Y-46732000I0J225000D01*
G01*
G37*
G04 #@! TD.AperFunction*
G04 #@! TA.AperFunction,SMDPad,CuDef*
G36*
G01*
X94520000Y-46732000D02*
X94520000Y-46232000D01*
G75*
G02*
X94745000Y-46007000I225000J0D01*
G01*
X95195000Y-46007000D01*
G75*
G02*
X95420000Y-46232000I0J-225000D01*
G01*
X95420000Y-46732000D01*
G75*
G02*
X95195000Y-46957000I-225000J0D01*
G01*
X94745000Y-46957000D01*
G75*
G02*
X94520000Y-46732000I0J225000D01*
G01*
G37*
G04 #@! TD.AperFunction*
G04 #@! TA.AperFunction,SMDPad,CuDef*
G36*
G01*
X94520000Y-48256000D02*
X94520000Y-47756000D01*
G75*
G02*
X94745000Y-47531000I225000J0D01*
G01*
X95195000Y-47531000D01*
G75*
G02*
X95420000Y-47756000I0J-225000D01*
G01*
X95420000Y-48256000D01*
G75*
G02*
X95195000Y-48481000I-225000J0D01*
G01*
X94745000Y-48481000D01*
G75*
G02*
X94520000Y-48256000I0J225000D01*
G01*
G37*
G04 #@! TD.AperFunction*
G04 #@! TA.AperFunction,SMDPad,CuDef*
G36*
G01*
X96070000Y-48256000D02*
X96070000Y-47756000D01*
G75*
G02*
X96295000Y-47531000I225000J0D01*
G01*
X96745000Y-47531000D01*
G75*
G02*
X96970000Y-47756000I0J-225000D01*
G01*
X96970000Y-48256000D01*
G75*
G02*
X96745000Y-48481000I-225000J0D01*
G01*
X96295000Y-48481000D01*
G75*
G02*
X96070000Y-48256000I0J225000D01*
G01*
G37*
G04 #@! TD.AperFunction*
D13*
X113316000Y-51120000D03*
X113316000Y-53020000D03*
X115316000Y-52070000D03*
D14*
X93980000Y-57150000D03*
X95250000Y-57150000D03*
X96520000Y-57150000D03*
X97790000Y-57150000D03*
X99060000Y-57150000D03*
X100330000Y-57150000D03*
X101600000Y-57150000D03*
X102870000Y-57150000D03*
X93230700Y-40690800D03*
X95516700Y-40678100D03*
D15*
X95420000Y-51120000D03*
X95420000Y-52070000D03*
X95420000Y-53020000D03*
X97620000Y-53020000D03*
X97620000Y-51120000D03*
D16*
X84650000Y-51760000D03*
D17*
X84650000Y-49260000D03*
X84650000Y-47260000D03*
X84650000Y-44760000D03*
D18*
X82550000Y-42560000D03*
X82550000Y-53960000D03*
D19*
X89965000Y-40616000D03*
X89965000Y-37616000D03*
D20*
X91440000Y-39116000D03*
X88490000Y-39116000D03*
G04 #@! TA.AperFunction,SMDPad,CuDef*
G36*
G01*
X98786000Y-37867000D02*
X98786000Y-37317000D01*
G75*
G02*
X98986000Y-37117000I200000J0D01*
G01*
X99386000Y-37117000D01*
G75*
G02*
X99586000Y-37317000I0J-200000D01*
G01*
X99586000Y-37867000D01*
G75*
G02*
X99386000Y-38067000I-200000J0D01*
G01*
X98986000Y-38067000D01*
G75*
G02*
X98786000Y-37867000I0J200000D01*
G01*
G37*
G04 #@! TD.AperFunction*
G04 #@! TA.AperFunction,SMDPad,CuDef*
G36*
G01*
X97136000Y-37867000D02*
X97136000Y-37317000D01*
G75*
G02*
X97336000Y-37117000I200000J0D01*
G01*
X97736000Y-37117000D01*
G75*
G02*
X97936000Y-37317000I0J-200000D01*
G01*
X97936000Y-37867000D01*
G75*
G02*
X97736000Y-38067000I-200000J0D01*
G01*
X97336000Y-38067000D01*
G75*
G02*
X97136000Y-37867000I0J200000D01*
G01*
G37*
G04 #@! TD.AperFunction*
G04 #@! TA.AperFunction,SMDPad,CuDef*
G36*
G01*
X107170000Y-37867000D02*
X107170000Y-37317000D01*
G75*
G02*
X107370000Y-37117000I200000J0D01*
G01*
X107770000Y-37117000D01*
G75*
G02*
X107970000Y-37317000I0J-200000D01*
G01*
X107970000Y-37867000D01*
G75*
G02*
X107770000Y-38067000I-200000J0D01*
G01*
X107370000Y-38067000D01*
G75*
G02*
X107170000Y-37867000I0J200000D01*
G01*
G37*
G04 #@! TD.AperFunction*
G04 #@! TA.AperFunction,SMDPad,CuDef*
G36*
G01*
X108820000Y-37867000D02*
X108820000Y-37317000D01*
G75*
G02*
X109020000Y-37117000I200000J0D01*
G01*
X109420000Y-37117000D01*
G75*
G02*
X109620000Y-37317000I0J-200000D01*
G01*
X109620000Y-37867000D01*
G75*
G02*
X109420000Y-38067000I-200000J0D01*
G01*
X109020000Y-38067000D01*
G75*
G02*
X108820000Y-37867000I0J200000D01*
G01*
G37*
G04 #@! TD.AperFunction*
D21*
X102616000Y-44720000D03*
X102616000Y-38720000D03*
X112268000Y-38720000D03*
X112268000Y-44720000D03*
X121920000Y-44720000D03*
X121920000Y-38720000D03*
D22*
X90170000Y-55880000D03*
X90170000Y-53340000D03*
X90170000Y-50800000D03*
X90170000Y-48260000D03*
G04 #@! TA.AperFunction,SMDPad,CuDef*
G36*
G01*
X94558500Y-43436250D02*
X94558500Y-42923750D01*
G75*
G02*
X94777250Y-42705000I218750J0D01*
G01*
X95214750Y-42705000D01*
G75*
G02*
X95433500Y-42923750I0J-218750D01*
G01*
X95433500Y-43436250D01*
G75*
G02*
X95214750Y-43655000I-218750J0D01*
G01*
X94777250Y-43655000D01*
G75*
G02*
X94558500Y-43436250I0J218750D01*
G01*
G37*
G04 #@! TD.AperFunction*
G04 #@! TA.AperFunction,SMDPad,CuDef*
G36*
G01*
X92983500Y-43436250D02*
X92983500Y-42923750D01*
G75*
G02*
X93202250Y-42705000I218750J0D01*
G01*
X93639750Y-42705000D01*
G75*
G02*
X93858500Y-42923750I0J-218750D01*
G01*
X93858500Y-43436250D01*
G75*
G02*
X93639750Y-43655000I-218750J0D01*
G01*
X93202250Y-43655000D01*
G75*
G02*
X92983500Y-43436250I0J218750D01*
G01*
G37*
G04 #@! TD.AperFunction*
G04 #@! TA.AperFunction,SMDPad,CuDef*
G36*
G01*
X96539500Y-43436250D02*
X96539500Y-42923750D01*
G75*
G02*
X96758250Y-42705000I218750J0D01*
G01*
X97195750Y-42705000D01*
G75*
G02*
X97414500Y-42923750I0J-218750D01*
G01*
X97414500Y-43436250D01*
G75*
G02*
X97195750Y-43655000I-218750J0D01*
G01*
X96758250Y-43655000D01*
G75*
G02*
X96539500Y-43436250I0J218750D01*
G01*
G37*
G04 #@! TD.AperFunction*
G04 #@! TA.AperFunction,SMDPad,CuDef*
G36*
G01*
X98114500Y-43436250D02*
X98114500Y-42923750D01*
G75*
G02*
X98333250Y-42705000I218750J0D01*
G01*
X98770750Y-42705000D01*
G75*
G02*
X98989500Y-42923750I0J-218750D01*
G01*
X98989500Y-43436250D01*
G75*
G02*
X98770750Y-43655000I-218750J0D01*
G01*
X98333250Y-43655000D01*
G75*
G02*
X98114500Y-43436250I0J218750D01*
G01*
G37*
G04 #@! TD.AperFunction*
G04 #@! TA.AperFunction,SMDPad,CuDef*
G36*
G01*
X89516000Y-45487000D02*
X89516000Y-44937000D01*
G75*
G02*
X89716000Y-44737000I200000J0D01*
G01*
X90116000Y-44737000D01*
G75*
G02*
X90316000Y-44937000I0J-200000D01*
G01*
X90316000Y-45487000D01*
G75*
G02*
X90116000Y-45687000I-200000J0D01*
G01*
X89716000Y-45687000D01*
G75*
G02*
X89516000Y-45487000I0J200000D01*
G01*
G37*
G04 #@! TD.AperFunction*
G04 #@! TA.AperFunction,SMDPad,CuDef*
G36*
G01*
X91166000Y-45487000D02*
X91166000Y-44937000D01*
G75*
G02*
X91366000Y-44737000I200000J0D01*
G01*
X91766000Y-44737000D01*
G75*
G02*
X91966000Y-44937000I0J-200000D01*
G01*
X91966000Y-45487000D01*
G75*
G02*
X91766000Y-45687000I-200000J0D01*
G01*
X91366000Y-45687000D01*
G75*
G02*
X91166000Y-45487000I0J200000D01*
G01*
G37*
G04 #@! TD.AperFunction*
G04 #@! TA.AperFunction,SMDPad,CuDef*
G36*
G01*
X99676000Y-47011000D02*
X99676000Y-46461000D01*
G75*
G02*
X99876000Y-46261000I200000J0D01*
G01*
X100276000Y-46261000D01*
G75*
G02*
X100476000Y-46461000I0J-200000D01*
G01*
X100476000Y-47011000D01*
G75*
G02*
X100276000Y-47211000I-200000J0D01*
G01*
X99876000Y-47211000D01*
G75*
G02*
X99676000Y-47011000I0J200000D01*
G01*
G37*
G04 #@! TD.AperFunction*
G04 #@! TA.AperFunction,SMDPad,CuDef*
G36*
G01*
X98026000Y-47011000D02*
X98026000Y-46461000D01*
G75*
G02*
X98226000Y-46261000I200000J0D01*
G01*
X98626000Y-46261000D01*
G75*
G02*
X98826000Y-46461000I0J-200000D01*
G01*
X98826000Y-47011000D01*
G75*
G02*
X98626000Y-47211000I-200000J0D01*
G01*
X98226000Y-47211000D01*
G75*
G02*
X98026000Y-47011000I0J200000D01*
G01*
G37*
G04 #@! TD.AperFunction*
D23*
X102099300Y-54216700D03*
X110896000Y-46786800D03*
X113474500Y-49784000D03*
X117157500Y-42608500D03*
X117332000Y-44720000D03*
X101917500Y-40703500D03*
X99758500Y-40894000D03*
X114300000Y-41592500D03*
X127751400Y-45641800D03*
X128199700Y-40918500D03*
X88886200Y-49481200D03*
X88669900Y-52826500D03*
X128289100Y-48583000D03*
X109136200Y-55700900D03*
X109334200Y-42623400D03*
X104298900Y-49262800D03*
X116409300Y-55447700D03*
X96707600Y-45402900D03*
X94251600Y-50636100D03*
X97878854Y-45481258D03*
X101219000Y-42735500D03*
X107995900Y-41864600D03*
X108965000Y-44302800D03*
X113642300Y-55686600D03*
X111580000Y-55475000D03*
X93515100Y-45348800D03*
X99963700Y-49846700D03*
D24*
X110896000Y-46786800D02*
X103838400Y-46786800D01*
X103838400Y-46786800D02*
X101440100Y-49185100D01*
X101440100Y-49185100D02*
X101440100Y-53557500D01*
X101440100Y-53557500D02*
X102099300Y-54216700D01*
X104750000Y-53162800D02*
X103696100Y-54216700D01*
X103696100Y-54216700D02*
X102099300Y-54216700D01*
X106912000Y-53868500D02*
X105455700Y-53868500D01*
X105455700Y-53868500D02*
X104750000Y-53162800D01*
X113474500Y-50961500D02*
X113316000Y-51120000D01*
X113474500Y-49784000D02*
X113474500Y-50961500D01*
X112268000Y-44720000D02*
X117332000Y-44720000D01*
X121920000Y-44720000D02*
X120594700Y-44720000D01*
X112268000Y-44720000D02*
X112268000Y-50227800D01*
X112268000Y-50227800D02*
X110896000Y-51599800D01*
X99568000Y-51295000D02*
X100933500Y-49929500D01*
X100933500Y-49929500D02*
X100933500Y-45077200D01*
X100933500Y-45077200D02*
X101290700Y-44720000D01*
X102616000Y-44720000D02*
X101290700Y-44720000D01*
X107862000Y-51668500D02*
X107862000Y-50813200D01*
X104750000Y-51612800D02*
X103568900Y-50431700D01*
X103568900Y-50431700D02*
X103568900Y-48967000D01*
X103568900Y-48967000D02*
X104028300Y-48507600D01*
X104028300Y-48507600D02*
X105556400Y-48507600D01*
X105556400Y-48507600D02*
X107862000Y-50813200D01*
X127563800Y-46452600D02*
X127966400Y-46452600D01*
X127966400Y-46452600D02*
X129321900Y-45097100D01*
X129321900Y-45097100D02*
X129321900Y-39601100D01*
X129321900Y-39601100D02*
X129807000Y-39116000D01*
X123245300Y-44720000D02*
X124977900Y-46452600D01*
X124977900Y-46452600D02*
X127563800Y-46452600D01*
X127563800Y-46452600D02*
X127563800Y-48883400D01*
X127563800Y-48883400D02*
X128705100Y-50024700D01*
X128705100Y-50024700D02*
X129286000Y-50024700D01*
X112268000Y-44720000D02*
X110942700Y-44720000D01*
X102616000Y-44720000D02*
X103941300Y-44720000D01*
X103941300Y-44720000D02*
X104756100Y-45534800D01*
X104756100Y-45534800D02*
X110127900Y-45534800D01*
X110127900Y-45534800D02*
X110942700Y-44720000D01*
X110896000Y-51599800D02*
X109972000Y-52523800D01*
X109972000Y-52523800D02*
X107974600Y-52523800D01*
X107974600Y-52523800D02*
X107862000Y-52411200D01*
X107862000Y-51668500D02*
X107862000Y-52411200D01*
X96977000Y-42360800D02*
X99014300Y-42360800D01*
X99014300Y-42360800D02*
X101290700Y-44637200D01*
X101290700Y-44637200D02*
X101290700Y-44720000D01*
X96977000Y-43180000D02*
X96519000Y-43180000D01*
X96519000Y-43180000D02*
X94970000Y-44729000D01*
X96977000Y-42360800D02*
X96977000Y-43180000D01*
X94970000Y-44729000D02*
X94970000Y-46482000D01*
X93421000Y-43180000D02*
X94970000Y-44729000D01*
X95516700Y-40678100D02*
X95516700Y-40900500D01*
X95516700Y-40900500D02*
X96977000Y-42360800D01*
X129286000Y-50800000D02*
X129286000Y-50024700D01*
X129286000Y-50800000D02*
X129286000Y-51575300D01*
X129286000Y-51575300D02*
X128110600Y-52750700D01*
X128110600Y-52750700D02*
X128110600Y-55805300D01*
X128110600Y-55805300D02*
X129286000Y-56980700D01*
X121920000Y-44720000D02*
X123245300Y-44720000D01*
X129286000Y-57756000D02*
X129286000Y-56980700D01*
X91440000Y-37941700D02*
X92780300Y-37941700D01*
X92780300Y-37941700D02*
X95516700Y-40678100D01*
X93980000Y-57150000D02*
X93980000Y-52654700D01*
X93980000Y-52654700D02*
X94564700Y-52070000D01*
X95420000Y-52070000D02*
X94564700Y-52070000D01*
X94970000Y-46482000D02*
X94970000Y-48006000D01*
X89965000Y-37616000D02*
X90790300Y-37616000D01*
X91440000Y-37941700D02*
X91116000Y-37941700D01*
X91116000Y-37941700D02*
X90790300Y-37616000D01*
X87058000Y-47625000D02*
X84650000Y-45217000D01*
X84650000Y-45217000D02*
X84650000Y-44760000D01*
X91440000Y-39116000D02*
X91440000Y-37941700D01*
X89965000Y-37616000D02*
X89139700Y-37616000D01*
X88490000Y-39116000D02*
X88490000Y-37690700D01*
X88490000Y-37690700D02*
X89065000Y-37690700D01*
X89065000Y-37690700D02*
X89139700Y-37616000D01*
X117332000Y-44720000D02*
X120594700Y-44720000D01*
X108406700Y-43379300D02*
X108196200Y-43589800D01*
X108196200Y-43589800D02*
X108196200Y-44569300D01*
X108196200Y-44569300D02*
X108693600Y-45066700D01*
X108693600Y-45066700D02*
X109411700Y-45066700D01*
X109411700Y-45066700D02*
X111083800Y-43394600D01*
X111083800Y-43394600D02*
X127167400Y-43394600D01*
X108406700Y-42591700D02*
X108406700Y-43379300D01*
X118047000Y-37592000D02*
X115540100Y-40098900D01*
X115540100Y-40098900D02*
X113102400Y-40098900D01*
X113102400Y-40098900D02*
X109822000Y-43379300D01*
X109822000Y-43379300D02*
X108406700Y-43379300D01*
X107570000Y-37592000D02*
X108725300Y-38747300D01*
X108725300Y-38747300D02*
X108725300Y-42206600D01*
X108725300Y-42206600D02*
X108406700Y-42525200D01*
X108406700Y-42525200D02*
X108406700Y-42591700D01*
X97536000Y-37592000D02*
X102535700Y-42591700D01*
X102535700Y-42591700D02*
X108406700Y-42591700D01*
X127167400Y-43394600D02*
X128398000Y-42164000D01*
X127167400Y-43394600D02*
X127167400Y-45057800D01*
X127167400Y-45057800D02*
X127751400Y-45641800D01*
X128257000Y-39116000D02*
X128199700Y-39173300D01*
X128199700Y-39173300D02*
X128199700Y-40918500D01*
X130048000Y-42164000D02*
X130651600Y-41560400D01*
X130651600Y-41560400D02*
X130651600Y-38664400D01*
X130651600Y-38664400D02*
X130297000Y-38309800D01*
X130297000Y-38309800D02*
X129063200Y-38309800D01*
X129063200Y-38309800D02*
X128257000Y-39116000D01*
X129286000Y-53580700D02*
X130461400Y-52405300D01*
X130461400Y-52405300D02*
X130461400Y-42577400D01*
X130461400Y-42577400D02*
X130048000Y-42164000D01*
X129286000Y-54356000D02*
X129286000Y-53580700D01*
X110896000Y-48436800D02*
X110066200Y-47607000D01*
X110066200Y-47607000D02*
X103655100Y-47607000D01*
X103655100Y-47607000D02*
X101908500Y-49353600D01*
X101908500Y-49353600D02*
X101908500Y-52378300D01*
X101908500Y-52378300D02*
X102718000Y-53187800D01*
X84650000Y-47260000D02*
X86603500Y-49213500D01*
X86603500Y-49213500D02*
X87058000Y-49213500D01*
X84650000Y-49260000D02*
X86132200Y-50742200D01*
X86132200Y-50742200D02*
X86132200Y-51589700D01*
X86132200Y-51589700D02*
X87058000Y-52515500D01*
X87058000Y-50863500D02*
X87503900Y-50863500D01*
X87503900Y-50863500D02*
X88886200Y-49481200D01*
X87058000Y-54165500D02*
X87330900Y-54165500D01*
X87330900Y-54165500D02*
X88669900Y-52826500D01*
X129286000Y-47400000D02*
X129286000Y-48175300D01*
X128289100Y-48583000D02*
X128696800Y-48175300D01*
X128696800Y-48175300D02*
X129286000Y-48175300D01*
X110348000Y-38720000D02*
X110348000Y-41609600D01*
X110348000Y-41609600D02*
X109334200Y-42623400D01*
X110348000Y-38720000D02*
X109220000Y-37592000D01*
X112268000Y-38720000D02*
X110348000Y-38720000D01*
X104298900Y-49262800D02*
X105361600Y-49262800D01*
X105361600Y-49262800D02*
X106912000Y-50813200D01*
X110896000Y-53149800D02*
X110747900Y-53001700D01*
X110747900Y-53001700D02*
X107389900Y-53001700D01*
X107389900Y-53001700D02*
X106912000Y-52523800D01*
X106912000Y-51668500D02*
X106912000Y-52523800D01*
X112540700Y-53020000D02*
X111025800Y-53020000D01*
X111025800Y-53020000D02*
X110896000Y-53149800D01*
X106912000Y-51668500D02*
X106912000Y-50813200D01*
X113316000Y-53020000D02*
X112540700Y-53020000D01*
X108812000Y-50813200D02*
X106056100Y-48057300D01*
X106056100Y-48057300D02*
X103841700Y-48057300D01*
X103841700Y-48057300D02*
X102718000Y-49181000D01*
X102718000Y-49181000D02*
X102718000Y-51612800D01*
X108812000Y-51668500D02*
X108812000Y-50813200D01*
X108812000Y-54723800D02*
X108579000Y-54956800D01*
X108579000Y-54956800D02*
X100391000Y-54956800D01*
X100391000Y-54956800D02*
X98621100Y-53186900D01*
X98621100Y-53186900D02*
X98621100Y-52698000D01*
X98621100Y-52698000D02*
X98273300Y-52350200D01*
X98273300Y-52350200D02*
X97520400Y-52350200D01*
X97520400Y-52350200D02*
X96764700Y-51594500D01*
X96764700Y-51594500D02*
X96764700Y-50892200D01*
X96764700Y-50892200D02*
X95470200Y-49597700D01*
X95470200Y-49597700D02*
X93083700Y-49597700D01*
X93083700Y-49597700D02*
X89461000Y-45975000D01*
X89461000Y-45975000D02*
X87058000Y-45975000D01*
X108812000Y-53868500D02*
X108812000Y-54723800D01*
X115316000Y-52795300D02*
X111676900Y-56434400D01*
X111676900Y-56434400D02*
X108131400Y-56434400D01*
X108131400Y-56434400D02*
X108121600Y-56424600D01*
X108121600Y-56424600D02*
X99679900Y-56424600D01*
X99679900Y-56424600D02*
X96275300Y-53020000D01*
X94564700Y-51120000D02*
X94564700Y-50949200D01*
X94564700Y-50949200D02*
X94251600Y-50636100D01*
X96275300Y-53020000D02*
X96275300Y-51120000D01*
X95420000Y-53020000D02*
X96275300Y-53020000D01*
X95420000Y-51120000D02*
X96275300Y-51120000D01*
X95420000Y-51120000D02*
X94564700Y-51120000D01*
X96707600Y-45402900D02*
X96520000Y-45590500D01*
X96520000Y-45590500D02*
X96520000Y-46482000D01*
X115316000Y-52070000D02*
X115316000Y-52795300D01*
X97620000Y-51120000D02*
X98475300Y-51120000D01*
X98475300Y-51120000D02*
X98475300Y-51752300D01*
X98475300Y-51752300D02*
X99568000Y-52845000D01*
X96520000Y-48006000D02*
X97620000Y-49106000D01*
X97620000Y-49106000D02*
X97620000Y-51120000D01*
X96520000Y-48006000D02*
X96393000Y-48006000D01*
X96520000Y-48006000D02*
X97663000Y-46863000D01*
X97663000Y-45697112D02*
X97878854Y-45481258D01*
X97663000Y-46863000D02*
X97663000Y-45697112D01*
X102391900Y-42735500D02*
X102535700Y-42591700D01*
X101219000Y-42735500D02*
X102391900Y-42735500D01*
X89965000Y-40616000D02*
X90790300Y-40616000D01*
X90790300Y-40616000D02*
X90865100Y-40690800D01*
X90865100Y-40690800D02*
X93230700Y-40690800D01*
X102616000Y-38720000D02*
X104851300Y-38720000D01*
X104851300Y-38720000D02*
X107995900Y-41864600D01*
X99186000Y-37592000D02*
X100314000Y-38720000D01*
X100314000Y-38720000D02*
X102616000Y-38720000D01*
X119697000Y-37592000D02*
X114369800Y-42919200D01*
X114369800Y-42919200D02*
X110919600Y-42919200D01*
X110919600Y-42919200D02*
X109536000Y-44302800D01*
X109536000Y-44302800D02*
X108965000Y-44302800D01*
X121920000Y-38720000D02*
X120594700Y-38720000D01*
X120594700Y-38720000D02*
X120594700Y-38489700D01*
X120594700Y-38489700D02*
X119697000Y-37592000D01*
X94996000Y-43180000D02*
X94172300Y-42356300D01*
X94172300Y-42356300D02*
X92963600Y-42356300D01*
X92963600Y-42356300D02*
X91566000Y-43753900D01*
X91566000Y-43753900D02*
X91566000Y-45212000D01*
X100076000Y-46736000D02*
X98552000Y-45212000D01*
X98552000Y-45212000D02*
X98552000Y-43180000D01*
X89916000Y-45212000D02*
X90738200Y-46034200D01*
X90738200Y-46034200D02*
X92829700Y-46034200D01*
X92829700Y-46034200D02*
X93515100Y-45348800D01*
X98426000Y-46736000D02*
X98426000Y-48309000D01*
X98426000Y-48309000D02*
X99963700Y-49846700D01*
D25*
X129241402Y-42844316D02*
X129332131Y-42954869D01*
X129442684Y-43045598D01*
X129568814Y-43113015D01*
X129705672Y-43154531D01*
X129809401Y-43164747D01*
X129809401Y-46420451D01*
X128436000Y-46420451D01*
X128332690Y-46430626D01*
X128233350Y-46460761D01*
X128141798Y-46509696D01*
X128061552Y-46575552D01*
X127995696Y-46655798D01*
X127946761Y-46747350D01*
X127916626Y-46846690D01*
X127906451Y-46950000D01*
X127906451Y-47738121D01*
X127850001Y-47761504D01*
X127698172Y-47862952D01*
X127569052Y-47992072D01*
X127467604Y-48143901D01*
X127397724Y-48312604D01*
X127362100Y-48491699D01*
X127362100Y-48674301D01*
X127397724Y-48853396D01*
X127467604Y-49022099D01*
X127569052Y-49173928D01*
X127698172Y-49303048D01*
X127850001Y-49404496D01*
X128018704Y-49474376D01*
X128197799Y-49510000D01*
X128380401Y-49510000D01*
X128559496Y-49474376D01*
X128728199Y-49404496D01*
X128880028Y-49303048D01*
X129009148Y-49173928D01*
X129110596Y-49022099D01*
X129180476Y-48853396D01*
X129185667Y-48827300D01*
X129253978Y-48827300D01*
X129286000Y-48830454D01*
X129318022Y-48827300D01*
X129413814Y-48817865D01*
X129536717Y-48780583D01*
X129649984Y-48720041D01*
X129749264Y-48638564D01*
X129809400Y-48565288D01*
X129809400Y-49713706D01*
X129571750Y-49715000D01*
X129413000Y-49873750D01*
X129413000Y-50673000D01*
X129433000Y-50673000D01*
X129433000Y-50927000D01*
X129413000Y-50927000D01*
X129413000Y-51726250D01*
X129571750Y-51885000D01*
X129809400Y-51886294D01*
X129809400Y-52135233D01*
X128847614Y-53097020D01*
X128822737Y-53117436D01*
X128741260Y-53216716D01*
X128733428Y-53231369D01*
X128680717Y-53329984D01*
X128666621Y-53376451D01*
X128436000Y-53376451D01*
X128332690Y-53386626D01*
X128233350Y-53416761D01*
X128141798Y-53465696D01*
X128061552Y-53531552D01*
X127995696Y-53611798D01*
X127946761Y-53703350D01*
X127916626Y-53802690D01*
X127906451Y-53906000D01*
X127906451Y-54806000D01*
X127916626Y-54909310D01*
X127946761Y-55008650D01*
X127995696Y-55100202D01*
X128061552Y-55180448D01*
X128141798Y-55246304D01*
X128233350Y-55295239D01*
X128332690Y-55325374D01*
X128436000Y-55335549D01*
X130136000Y-55335549D01*
X130239310Y-55325374D01*
X130338650Y-55295239D01*
X130430202Y-55246304D01*
X130510448Y-55180448D01*
X130512000Y-55178557D01*
X130512000Y-56793113D01*
X130490494Y-56775463D01*
X130380180Y-56716498D01*
X130260482Y-56680188D01*
X130136000Y-56667928D01*
X129571750Y-56671000D01*
X129413000Y-56829750D01*
X129413000Y-57629000D01*
X129433000Y-57629000D01*
X129433000Y-57883000D01*
X129413000Y-57883000D01*
X129413000Y-58682250D01*
X129571750Y-58841000D01*
X130136000Y-58844072D01*
X130260482Y-58831812D01*
X130380180Y-58795502D01*
X130490494Y-58736537D01*
X130512000Y-58718888D01*
X130512000Y-58901006D01*
X130500567Y-59017609D01*
X130474542Y-59103807D01*
X130432271Y-59183308D01*
X130375361Y-59253086D01*
X130305986Y-59310479D01*
X130226781Y-59353305D01*
X130140769Y-59379929D01*
X130025926Y-59392000D01*
X87402994Y-59392000D01*
X87286391Y-59380567D01*
X87200193Y-59354542D01*
X87120692Y-59312271D01*
X87050914Y-59255361D01*
X86993521Y-59185986D01*
X86950695Y-59106781D01*
X86924071Y-59020769D01*
X86912000Y-58905926D01*
X86912000Y-58206000D01*
X127797928Y-58206000D01*
X127810188Y-58330482D01*
X127846498Y-58450180D01*
X127905463Y-58560494D01*
X127984815Y-58657185D01*
X128081506Y-58736537D01*
X128191820Y-58795502D01*
X128311518Y-58831812D01*
X128436000Y-58844072D01*
X129000250Y-58841000D01*
X129159000Y-58682250D01*
X129159000Y-57883000D01*
X127959750Y-57883000D01*
X127801000Y-58041750D01*
X127797928Y-58206000D01*
X86912000Y-58206000D01*
X86912000Y-56845565D01*
X89384040Y-56845565D01*
X89451020Y-57085656D01*
X89700048Y-57202756D01*
X89967135Y-57269023D01*
X90242017Y-57281910D01*
X90514133Y-57240922D01*
X90526746Y-57236377D01*
X92943587Y-57236377D01*
X92980353Y-57436912D01*
X93055534Y-57626420D01*
X93070264Y-57653981D01*
X93273559Y-57676836D01*
X93800395Y-57150000D01*
X93273559Y-56623164D01*
X93070264Y-56646019D01*
X92989423Y-56833184D01*
X92946649Y-57032523D01*
X92943587Y-57236377D01*
X90526746Y-57236377D01*
X90773023Y-57147636D01*
X90888980Y-57085656D01*
X90955960Y-56845565D01*
X90170000Y-56059605D01*
X89384040Y-56845565D01*
X86912000Y-56845565D01*
X86912000Y-55952017D01*
X88768090Y-55952017D01*
X88809078Y-56224133D01*
X88902364Y-56483023D01*
X88964344Y-56598980D01*
X89204435Y-56665960D01*
X89990395Y-55880000D01*
X90349605Y-55880000D01*
X91135565Y-56665960D01*
X91375656Y-56598980D01*
X91492756Y-56349952D01*
X91559023Y-56082865D01*
X91571910Y-55807983D01*
X91530922Y-55535867D01*
X91437636Y-55276977D01*
X91375656Y-55161020D01*
X91135565Y-55094040D01*
X90349605Y-55880000D01*
X89990395Y-55880000D01*
X89204435Y-55094040D01*
X88964344Y-55161020D01*
X88847244Y-55410048D01*
X88780977Y-55677135D01*
X88768090Y-55952017D01*
X86912000Y-55952017D01*
X86912000Y-55399109D01*
X86914670Y-55372000D01*
X86909626Y-55320783D01*
X86904012Y-55263789D01*
X86872448Y-55159737D01*
X86837872Y-55095049D01*
X87333000Y-55095049D01*
X87475328Y-55081031D01*
X87612186Y-55039515D01*
X87738316Y-54972098D01*
X87848869Y-54881369D01*
X87939598Y-54770816D01*
X88007015Y-54644686D01*
X88048531Y-54507828D01*
X88062549Y-54365500D01*
X88062549Y-54355917D01*
X88664967Y-53753500D01*
X88761201Y-53753500D01*
X88932001Y-53719526D01*
X89027703Y-53950570D01*
X89168768Y-54161690D01*
X89348310Y-54341232D01*
X89559430Y-54482297D01*
X89730868Y-54553309D01*
X89566977Y-54612364D01*
X89451020Y-54674344D01*
X89384040Y-54914435D01*
X90170000Y-55700395D01*
X90955960Y-54914435D01*
X90888980Y-54674344D01*
X90639952Y-54557244D01*
X90614737Y-54550988D01*
X90780570Y-54482297D01*
X90991690Y-54341232D01*
X91171232Y-54161690D01*
X91312297Y-53950570D01*
X91409465Y-53715987D01*
X91459000Y-53466955D01*
X91459000Y-53213045D01*
X91409465Y-52964013D01*
X91312297Y-52729430D01*
X91171232Y-52518310D01*
X90991690Y-52338768D01*
X90780570Y-52197703D01*
X90545987Y-52100535D01*
X90392476Y-52070000D01*
X90545987Y-52039465D01*
X90780570Y-51942297D01*
X90991690Y-51801232D01*
X91171232Y-51621690D01*
X91312297Y-51410570D01*
X91409465Y-51175987D01*
X91459000Y-50926955D01*
X91459000Y-50673045D01*
X91409465Y-50424013D01*
X91312297Y-50189430D01*
X91171232Y-49978310D01*
X90991690Y-49798768D01*
X90780570Y-49657703D01*
X90545987Y-49560535D01*
X90392476Y-49530000D01*
X90545987Y-49499465D01*
X90780570Y-49402297D01*
X90991690Y-49261232D01*
X91171232Y-49081690D01*
X91312297Y-48870570D01*
X91348091Y-48784157D01*
X92600020Y-50036087D01*
X92620436Y-50060964D01*
X92719716Y-50142441D01*
X92822648Y-50197459D01*
X92832983Y-50202983D01*
X92955885Y-50240265D01*
X92968527Y-50241510D01*
X93051678Y-50249700D01*
X93051685Y-50249700D01*
X93083699Y-50252853D01*
X93115714Y-50249700D01*
X93408275Y-50249700D01*
X93360224Y-50365704D01*
X93324600Y-50544799D01*
X93324600Y-50727401D01*
X93360224Y-50906496D01*
X93430104Y-51075199D01*
X93531552Y-51227028D01*
X93660672Y-51356148D01*
X93812501Y-51457596D01*
X93981204Y-51527476D01*
X94070176Y-51545174D01*
X94098239Y-51579369D01*
X94101436Y-51583264D01*
X94200716Y-51664741D01*
X94256876Y-51694759D01*
X94251928Y-51745000D01*
X94255000Y-51784250D01*
X94413750Y-51943000D01*
X94716231Y-51943000D01*
X94786690Y-51964374D01*
X94890000Y-51974549D01*
X95567000Y-51974549D01*
X95567000Y-52165451D01*
X94890000Y-52165451D01*
X94786690Y-52175626D01*
X94716231Y-52197000D01*
X94413750Y-52197000D01*
X94255000Y-52355750D01*
X94251928Y-52395000D01*
X94264188Y-52519482D01*
X94300498Y-52639180D01*
X94359463Y-52749494D01*
X94360451Y-52750698D01*
X94360451Y-53345000D01*
X94370626Y-53448310D01*
X94400761Y-53547650D01*
X94449696Y-53639202D01*
X94515552Y-53719448D01*
X94595798Y-53785304D01*
X94687350Y-53834239D01*
X94786690Y-53864374D01*
X94890000Y-53874549D01*
X95950000Y-53874549D01*
X96053310Y-53864374D01*
X96152650Y-53834239D01*
X96162310Y-53829076D01*
X98649776Y-56316543D01*
X98620901Y-56328504D01*
X98469072Y-56429952D01*
X98425000Y-56474024D01*
X98380928Y-56429952D01*
X98229099Y-56328504D01*
X98060396Y-56258624D01*
X97881301Y-56223000D01*
X97698699Y-56223000D01*
X97519604Y-56258624D01*
X97350901Y-56328504D01*
X97199072Y-56429952D01*
X97155000Y-56474024D01*
X97110928Y-56429952D01*
X96959099Y-56328504D01*
X96790396Y-56258624D01*
X96611301Y-56223000D01*
X96428699Y-56223000D01*
X96249604Y-56258624D01*
X96080901Y-56328504D01*
X95929072Y-56429952D01*
X95885000Y-56474024D01*
X95840928Y-56429952D01*
X95689099Y-56328504D01*
X95520396Y-56258624D01*
X95341301Y-56223000D01*
X95158699Y-56223000D01*
X94979604Y-56258624D01*
X94810901Y-56328504D01*
X94701516Y-56401592D01*
X94625158Y-56325234D01*
X94506836Y-56443556D01*
X94483981Y-56240264D01*
X94296816Y-56159423D01*
X94097477Y-56116649D01*
X93893623Y-56113587D01*
X93693088Y-56150353D01*
X93503580Y-56225534D01*
X93476019Y-56240264D01*
X93453164Y-56443559D01*
X93980000Y-56970395D01*
X93994143Y-56956253D01*
X94173748Y-57135858D01*
X94159605Y-57150000D01*
X94173748Y-57164143D01*
X93994143Y-57343748D01*
X93980000Y-57329605D01*
X93453164Y-57856441D01*
X93476019Y-58059736D01*
X93663184Y-58140577D01*
X93862523Y-58183351D01*
X94066377Y-58186413D01*
X94266912Y-58149647D01*
X94456420Y-58074466D01*
X94483981Y-58059736D01*
X94506836Y-57856444D01*
X94625158Y-57974766D01*
X94701516Y-57898408D01*
X94810901Y-57971496D01*
X94979604Y-58041376D01*
X95158699Y-58077000D01*
X95341301Y-58077000D01*
X95520396Y-58041376D01*
X95689099Y-57971496D01*
X95840928Y-57870048D01*
X95885000Y-57825976D01*
X95929072Y-57870048D01*
X96080901Y-57971496D01*
X96249604Y-58041376D01*
X96428699Y-58077000D01*
X96611301Y-58077000D01*
X96790396Y-58041376D01*
X96959099Y-57971496D01*
X97110928Y-57870048D01*
X97155000Y-57825976D01*
X97199072Y-57870048D01*
X97350901Y-57971496D01*
X97519604Y-58041376D01*
X97698699Y-58077000D01*
X97881301Y-58077000D01*
X98060396Y-58041376D01*
X98229099Y-57971496D01*
X98380928Y-57870048D01*
X98425000Y-57825976D01*
X98469072Y-57870048D01*
X98620901Y-57971496D01*
X98789604Y-58041376D01*
X98968699Y-58077000D01*
X99151301Y-58077000D01*
X99330396Y-58041376D01*
X99499099Y-57971496D01*
X99650928Y-57870048D01*
X99695000Y-57825976D01*
X99739072Y-57870048D01*
X99890901Y-57971496D01*
X100059604Y-58041376D01*
X100238699Y-58077000D01*
X100421301Y-58077000D01*
X100600396Y-58041376D01*
X100769099Y-57971496D01*
X100920928Y-57870048D01*
X100965000Y-57825976D01*
X101009072Y-57870048D01*
X101160901Y-57971496D01*
X101329604Y-58041376D01*
X101508699Y-58077000D01*
X101691301Y-58077000D01*
X101870396Y-58041376D01*
X102039099Y-57971496D01*
X102190928Y-57870048D01*
X102235000Y-57825976D01*
X102279072Y-57870048D01*
X102430901Y-57971496D01*
X102599604Y-58041376D01*
X102778699Y-58077000D01*
X102961301Y-58077000D01*
X103140396Y-58041376D01*
X103309099Y-57971496D01*
X103460928Y-57870048D01*
X103590048Y-57740928D01*
X103691496Y-57589099D01*
X103761376Y-57420396D01*
X103784130Y-57306000D01*
X127797928Y-57306000D01*
X127801000Y-57470250D01*
X127959750Y-57629000D01*
X129159000Y-57629000D01*
X129159000Y-56829750D01*
X129000250Y-56671000D01*
X128436000Y-56667928D01*
X128311518Y-56680188D01*
X128191820Y-56716498D01*
X128081506Y-56775463D01*
X127984815Y-56854815D01*
X127905463Y-56951506D01*
X127846498Y-57061820D01*
X127810188Y-57181518D01*
X127797928Y-57306000D01*
X103784130Y-57306000D01*
X103797000Y-57241301D01*
X103797000Y-57076600D01*
X108002383Y-57076600D01*
X108003586Y-57076965D01*
X108131399Y-57089554D01*
X108163421Y-57086400D01*
X111644878Y-57086400D01*
X111676900Y-57089554D01*
X111708922Y-57086400D01*
X111804714Y-57076965D01*
X111927617Y-57039683D01*
X112040884Y-56979141D01*
X112140164Y-56897664D01*
X112160585Y-56872781D01*
X112855596Y-56177770D01*
X112922252Y-56277528D01*
X113051372Y-56406648D01*
X113203201Y-56508096D01*
X113371904Y-56577976D01*
X113550999Y-56613600D01*
X113733601Y-56613600D01*
X113912696Y-56577976D01*
X114081399Y-56508096D01*
X114233228Y-56406648D01*
X114362348Y-56277528D01*
X114463796Y-56125699D01*
X114533676Y-55956996D01*
X114569300Y-55777901D01*
X114569300Y-55595299D01*
X114533676Y-55416204D01*
X114508904Y-55356399D01*
X115482300Y-55356399D01*
X115482300Y-55539001D01*
X115517924Y-55718096D01*
X115587804Y-55886799D01*
X115689252Y-56038628D01*
X115818372Y-56167748D01*
X115970201Y-56269196D01*
X116138904Y-56339076D01*
X116317999Y-56374700D01*
X116500601Y-56374700D01*
X116679696Y-56339076D01*
X116848399Y-56269196D01*
X117000228Y-56167748D01*
X117129348Y-56038628D01*
X117230796Y-55886799D01*
X117300676Y-55718096D01*
X117336300Y-55539001D01*
X117336300Y-55356399D01*
X117300676Y-55177304D01*
X117230796Y-55008601D01*
X117129348Y-54856772D01*
X117000228Y-54727652D01*
X116848399Y-54626204D01*
X116679696Y-54556324D01*
X116500601Y-54520700D01*
X116317999Y-54520700D01*
X116138904Y-54556324D01*
X115970201Y-54626204D01*
X115818372Y-54727652D01*
X115689252Y-54856772D01*
X115587804Y-55008601D01*
X115517924Y-55177304D01*
X115482300Y-55356399D01*
X114508904Y-55356399D01*
X114463796Y-55247501D01*
X114362348Y-55095672D01*
X114233228Y-54966552D01*
X114133470Y-54899896D01*
X115754387Y-53278980D01*
X115779264Y-53258564D01*
X115860741Y-53159284D01*
X115921283Y-53046017D01*
X115945474Y-52966269D01*
X115968650Y-52959239D01*
X116060202Y-52910304D01*
X116140448Y-52844448D01*
X116206304Y-52764202D01*
X116255239Y-52672650D01*
X116285374Y-52573310D01*
X116295549Y-52470000D01*
X116295549Y-51670000D01*
X116285374Y-51566690D01*
X116255239Y-51467350D01*
X116206304Y-51375798D01*
X116140448Y-51295552D01*
X116060202Y-51229696D01*
X115968650Y-51180761D01*
X115869310Y-51150626D01*
X115766000Y-51140451D01*
X114866000Y-51140451D01*
X114762690Y-51150626D01*
X114663350Y-51180761D01*
X114571798Y-51229696D01*
X114491552Y-51295552D01*
X114425696Y-51375798D01*
X114376761Y-51467350D01*
X114346626Y-51566690D01*
X114336451Y-51670000D01*
X114336451Y-52470000D01*
X114346626Y-52573310D01*
X114376761Y-52672650D01*
X114425464Y-52763769D01*
X114295549Y-52893684D01*
X114295549Y-52620000D01*
X114285374Y-52516690D01*
X114255239Y-52417350D01*
X114206304Y-52325798D01*
X114140448Y-52245552D01*
X114060202Y-52179696D01*
X113968650Y-52130761D01*
X113869310Y-52100626D01*
X113766000Y-52090451D01*
X112866000Y-52090451D01*
X112762690Y-52100626D01*
X112663350Y-52130761D01*
X112571798Y-52179696D01*
X112491552Y-52245552D01*
X112425696Y-52325798D01*
X112403139Y-52368000D01*
X111920937Y-52368000D01*
X111960502Y-52293980D01*
X111996812Y-52174282D01*
X112009072Y-52049800D01*
X112006000Y-51885550D01*
X111847250Y-51726800D01*
X111023000Y-51726800D01*
X111023000Y-51746800D01*
X110769000Y-51746800D01*
X110769000Y-51726800D01*
X109944750Y-51726800D01*
X109786000Y-51885550D01*
X109782928Y-52049800D01*
X109795188Y-52174282D01*
X109831498Y-52293980D01*
X109861281Y-52349700D01*
X109641846Y-52349700D01*
X109656374Y-52301810D01*
X109666549Y-52198500D01*
X109666549Y-51149800D01*
X109782928Y-51149800D01*
X109786000Y-51314050D01*
X109944750Y-51472800D01*
X110769000Y-51472800D01*
X110769000Y-50673550D01*
X111023000Y-50673550D01*
X111023000Y-51472800D01*
X111847250Y-51472800D01*
X112006000Y-51314050D01*
X112009072Y-51149800D01*
X111996812Y-51025318D01*
X111960502Y-50905620D01*
X111901537Y-50795306D01*
X111839736Y-50720000D01*
X112336451Y-50720000D01*
X112336451Y-51520000D01*
X112346626Y-51623310D01*
X112376761Y-51722650D01*
X112425696Y-51814202D01*
X112491552Y-51894448D01*
X112571798Y-51960304D01*
X112663350Y-52009239D01*
X112762690Y-52039374D01*
X112866000Y-52049549D01*
X113766000Y-52049549D01*
X113869310Y-52039374D01*
X113968650Y-52009239D01*
X114060202Y-51960304D01*
X114140448Y-51894448D01*
X114206304Y-51814202D01*
X114255239Y-51722650D01*
X114285374Y-51623310D01*
X114295549Y-51520000D01*
X114295549Y-50720000D01*
X114285374Y-50616690D01*
X114255239Y-50517350D01*
X114206304Y-50425798D01*
X114178075Y-50391401D01*
X114194548Y-50374928D01*
X114295996Y-50223099D01*
X114365876Y-50054396D01*
X114401500Y-49875301D01*
X114401500Y-49692699D01*
X114365876Y-49513604D01*
X114295996Y-49344901D01*
X114194548Y-49193072D01*
X114065428Y-49063952D01*
X113913599Y-48962504D01*
X113744896Y-48892624D01*
X113565801Y-48857000D01*
X113383199Y-48857000D01*
X113204104Y-48892624D01*
X113035401Y-48962504D01*
X112883572Y-49063952D01*
X112754452Y-49193072D01*
X112653004Y-49344901D01*
X112583124Y-49513604D01*
X112547500Y-49692699D01*
X112547500Y-49875301D01*
X112583124Y-50054396D01*
X112653004Y-50223099D01*
X112659499Y-50232819D01*
X112571798Y-50279696D01*
X112491552Y-50345552D01*
X112425696Y-50425798D01*
X112376761Y-50517350D01*
X112346626Y-50616690D01*
X112336451Y-50720000D01*
X111839736Y-50720000D01*
X111822185Y-50698615D01*
X111725494Y-50619263D01*
X111615180Y-50560298D01*
X111495482Y-50523988D01*
X111371000Y-50511728D01*
X111181750Y-50514800D01*
X111023000Y-50673550D01*
X110769000Y-50673550D01*
X110610250Y-50514800D01*
X110421000Y-50511728D01*
X110296518Y-50523988D01*
X110176820Y-50560298D01*
X110066506Y-50619263D01*
X109969815Y-50698615D01*
X109890463Y-50795306D01*
X109831498Y-50905620D01*
X109795188Y-51025318D01*
X109782928Y-51149800D01*
X109666549Y-51149800D01*
X109666549Y-51138500D01*
X109656374Y-51035190D01*
X109626239Y-50935850D01*
X109577304Y-50844298D01*
X109511448Y-50764052D01*
X109457992Y-50720182D01*
X109454565Y-50685385D01*
X109417283Y-50562483D01*
X109398967Y-50528216D01*
X109356741Y-50449216D01*
X109275264Y-50349936D01*
X109250387Y-50329520D01*
X107179866Y-48259000D01*
X109796134Y-48259000D01*
X109891451Y-48354317D01*
X109891451Y-48636800D01*
X109905469Y-48779128D01*
X109946985Y-48915986D01*
X110014402Y-49042116D01*
X110105131Y-49152669D01*
X110215684Y-49243398D01*
X110341814Y-49310815D01*
X110478672Y-49352331D01*
X110621000Y-49366349D01*
X111171000Y-49366349D01*
X111313328Y-49352331D01*
X111450186Y-49310815D01*
X111576316Y-49243398D01*
X111686869Y-49152669D01*
X111777598Y-49042116D01*
X111845015Y-48915986D01*
X111886531Y-48779128D01*
X111898934Y-48653197D01*
X119575000Y-48653197D01*
X119575000Y-48796403D01*
X119602938Y-48936858D01*
X119657741Y-49069164D01*
X119737302Y-49188236D01*
X119838564Y-49289498D01*
X119957636Y-49369059D01*
X120089942Y-49423862D01*
X120230397Y-49451800D01*
X120286200Y-49451800D01*
X120286200Y-49471000D01*
X120230397Y-49471000D01*
X120089942Y-49498938D01*
X119957636Y-49553741D01*
X119838564Y-49633302D01*
X119737302Y-49734564D01*
X119657741Y-49853636D01*
X119602938Y-49985942D01*
X119575000Y-50126397D01*
X119575000Y-50269603D01*
X119602938Y-50410058D01*
X119657741Y-50542364D01*
X119737302Y-50661436D01*
X119838564Y-50762698D01*
X119957636Y-50842259D01*
X120089942Y-50897062D01*
X120230397Y-50925000D01*
X120286200Y-50925000D01*
X120286200Y-51031603D01*
X120314138Y-51172058D01*
X120368941Y-51304364D01*
X120448502Y-51423436D01*
X120549764Y-51524698D01*
X120668836Y-51604259D01*
X120801142Y-51659062D01*
X120941597Y-51687000D01*
X121084803Y-51687000D01*
X121225258Y-51659062D01*
X121357564Y-51604259D01*
X121476636Y-51524698D01*
X121577898Y-51423436D01*
X121657459Y-51304364D01*
X121712262Y-51172058D01*
X121740200Y-51031603D01*
X121740200Y-50925000D01*
X121759400Y-50925000D01*
X121759400Y-51031603D01*
X121787338Y-51172058D01*
X121842141Y-51304364D01*
X121921702Y-51423436D01*
X122022964Y-51524698D01*
X122142036Y-51604259D01*
X122274342Y-51659062D01*
X122414797Y-51687000D01*
X122558003Y-51687000D01*
X122698458Y-51659062D01*
X122830764Y-51604259D01*
X122949836Y-51524698D01*
X123051098Y-51423436D01*
X123130659Y-51304364D01*
X123153177Y-51250000D01*
X127797928Y-51250000D01*
X127810188Y-51374482D01*
X127846498Y-51494180D01*
X127905463Y-51604494D01*
X127984815Y-51701185D01*
X128081506Y-51780537D01*
X128191820Y-51839502D01*
X128311518Y-51875812D01*
X128436000Y-51888072D01*
X129000250Y-51885000D01*
X129159000Y-51726250D01*
X129159000Y-50927000D01*
X127959750Y-50927000D01*
X127801000Y-51085750D01*
X127797928Y-51250000D01*
X123153177Y-51250000D01*
X123185462Y-51172058D01*
X123213400Y-51031603D01*
X123213400Y-50922176D01*
X123227597Y-50925000D01*
X123370803Y-50925000D01*
X123511258Y-50897062D01*
X123643564Y-50842259D01*
X123762636Y-50762698D01*
X123863898Y-50661436D01*
X123943459Y-50542364D01*
X123998262Y-50410058D01*
X124010208Y-50350000D01*
X127797928Y-50350000D01*
X127801000Y-50514250D01*
X127959750Y-50673000D01*
X129159000Y-50673000D01*
X129159000Y-49873750D01*
X129000250Y-49715000D01*
X128436000Y-49711928D01*
X128311518Y-49724188D01*
X128191820Y-49760498D01*
X128081506Y-49819463D01*
X127984815Y-49898815D01*
X127905463Y-49995506D01*
X127846498Y-50105820D01*
X127810188Y-50225518D01*
X127797928Y-50350000D01*
X124010208Y-50350000D01*
X124026200Y-50269603D01*
X124026200Y-50126397D01*
X123998262Y-49985942D01*
X123943459Y-49853636D01*
X123863898Y-49734564D01*
X123762636Y-49633302D01*
X123643564Y-49553741D01*
X123511258Y-49498938D01*
X123370803Y-49471000D01*
X123227597Y-49471000D01*
X123213400Y-49473824D01*
X123213400Y-49398176D01*
X123227597Y-49401000D01*
X123370803Y-49401000D01*
X123511258Y-49373062D01*
X123643564Y-49318259D01*
X123762636Y-49238698D01*
X123863898Y-49137436D01*
X123943459Y-49018364D01*
X123998262Y-48886058D01*
X124026200Y-48745603D01*
X124026200Y-48602397D01*
X123998262Y-48461942D01*
X123943459Y-48329636D01*
X123863898Y-48210564D01*
X123762636Y-48109302D01*
X123643564Y-48029741D01*
X123511258Y-47974938D01*
X123370803Y-47947000D01*
X123227597Y-47947000D01*
X123213400Y-47949824D01*
X123213400Y-47891197D01*
X123185462Y-47750742D01*
X123130659Y-47618436D01*
X123051098Y-47499364D01*
X122949836Y-47398102D01*
X122830764Y-47318541D01*
X122698458Y-47263738D01*
X122558003Y-47235800D01*
X122414797Y-47235800D01*
X122274342Y-47263738D01*
X122142036Y-47318541D01*
X122022964Y-47398102D01*
X121921702Y-47499364D01*
X121842141Y-47618436D01*
X121787338Y-47750742D01*
X121759400Y-47891197D01*
X121759400Y-47947000D01*
X121754397Y-47947000D01*
X121740200Y-47949824D01*
X121740200Y-47891197D01*
X121712262Y-47750742D01*
X121657459Y-47618436D01*
X121577898Y-47499364D01*
X121476636Y-47398102D01*
X121357564Y-47318541D01*
X121225258Y-47263738D01*
X121084803Y-47235800D01*
X120941597Y-47235800D01*
X120801142Y-47263738D01*
X120668836Y-47318541D01*
X120549764Y-47398102D01*
X120448502Y-47499364D01*
X120368941Y-47618436D01*
X120314138Y-47750742D01*
X120286200Y-47891197D01*
X120286200Y-47997800D01*
X120230397Y-47997800D01*
X120089942Y-48025738D01*
X119957636Y-48080541D01*
X119838564Y-48160102D01*
X119737302Y-48261364D01*
X119657741Y-48380436D01*
X119602938Y-48512742D01*
X119575000Y-48653197D01*
X111898934Y-48653197D01*
X111900549Y-48636800D01*
X111900549Y-48236800D01*
X111886531Y-48094472D01*
X111845015Y-47957614D01*
X111777598Y-47831484D01*
X111686869Y-47720931D01*
X111576316Y-47630202D01*
X111541888Y-47611800D01*
X111576316Y-47593398D01*
X111686869Y-47502669D01*
X111777598Y-47392116D01*
X111845015Y-47265986D01*
X111886531Y-47129128D01*
X111900549Y-46986800D01*
X111900549Y-46586800D01*
X111886531Y-46444472D01*
X111859550Y-46355528D01*
X111982250Y-46355000D01*
X112141000Y-46196250D01*
X112141000Y-44847000D01*
X112395000Y-44847000D01*
X112395000Y-46196250D01*
X112553750Y-46355000D01*
X113268000Y-46358072D01*
X113392482Y-46345812D01*
X113512180Y-46309502D01*
X113622494Y-46250537D01*
X113719185Y-46171185D01*
X113798537Y-46074494D01*
X113857502Y-45964180D01*
X113893812Y-45844482D01*
X113906072Y-45720000D01*
X120281928Y-45720000D01*
X120294188Y-45844482D01*
X120330498Y-45964180D01*
X120389463Y-46074494D01*
X120468815Y-46171185D01*
X120565506Y-46250537D01*
X120675820Y-46309502D01*
X120795518Y-46345812D01*
X120920000Y-46358072D01*
X121634250Y-46355000D01*
X121793000Y-46196250D01*
X121793000Y-44847000D01*
X122047000Y-44847000D01*
X122047000Y-46196250D01*
X122205750Y-46355000D01*
X122920000Y-46358072D01*
X123044482Y-46345812D01*
X123164180Y-46309502D01*
X123274494Y-46250537D01*
X123371185Y-46171185D01*
X123450537Y-46074494D01*
X123509502Y-45964180D01*
X123545812Y-45844482D01*
X123558072Y-45720000D01*
X123555000Y-45005750D01*
X123396250Y-44847000D01*
X122047000Y-44847000D01*
X121793000Y-44847000D01*
X120443750Y-44847000D01*
X120285000Y-45005750D01*
X120281928Y-45720000D01*
X113906072Y-45720000D01*
X113903000Y-45005750D01*
X113744250Y-44847000D01*
X112395000Y-44847000D01*
X112141000Y-44847000D01*
X112121000Y-44847000D01*
X112121000Y-44593000D01*
X112141000Y-44593000D01*
X112141000Y-44573000D01*
X112395000Y-44573000D01*
X112395000Y-44593000D01*
X113744250Y-44593000D01*
X113903000Y-44434250D01*
X113904667Y-44046600D01*
X120283333Y-44046600D01*
X120285000Y-44434250D01*
X120443750Y-44593000D01*
X121793000Y-44593000D01*
X121793000Y-44573000D01*
X122047000Y-44573000D01*
X122047000Y-44593000D01*
X123396250Y-44593000D01*
X123555000Y-44434250D01*
X123556667Y-44046600D01*
X126515400Y-44046600D01*
X126515401Y-45025768D01*
X126512246Y-45057800D01*
X126524835Y-45185614D01*
X126562117Y-45308516D01*
X126586132Y-45353444D01*
X126622660Y-45421784D01*
X126704137Y-45521064D01*
X126729014Y-45541480D01*
X126824400Y-45636866D01*
X126824400Y-45733101D01*
X126860024Y-45912196D01*
X126929904Y-46080899D01*
X127031352Y-46232728D01*
X127160472Y-46361848D01*
X127312301Y-46463296D01*
X127481004Y-46533176D01*
X127660099Y-46568800D01*
X127842701Y-46568800D01*
X128021796Y-46533176D01*
X128190499Y-46463296D01*
X128342328Y-46361848D01*
X128471448Y-46232728D01*
X128572896Y-46080899D01*
X128642776Y-45912196D01*
X128678400Y-45733101D01*
X128678400Y-45550499D01*
X128642776Y-45371404D01*
X128572896Y-45202701D01*
X128471448Y-45050872D01*
X128342328Y-44921752D01*
X128190499Y-44820304D01*
X128021796Y-44750424D01*
X127842701Y-44714800D01*
X127819400Y-44714800D01*
X127819400Y-43664666D01*
X128315518Y-43168549D01*
X128598000Y-43168549D01*
X128740328Y-43154531D01*
X128877186Y-43113015D01*
X129003316Y-43045598D01*
X129113869Y-42954869D01*
X129204598Y-42844316D01*
X129223000Y-42809888D01*
X129241402Y-42844316D01*
G04 #@! TA.AperFunction,Conductor*
D26*
G36*
X129241402Y-42844316D02*
G01*
X129332131Y-42954869D01*
X129442684Y-43045598D01*
X129568814Y-43113015D01*
X129705672Y-43154531D01*
X129809401Y-43164747D01*
X129809401Y-46420451D01*
X128436000Y-46420451D01*
X128332690Y-46430626D01*
X128233350Y-46460761D01*
X128141798Y-46509696D01*
X128061552Y-46575552D01*
X127995696Y-46655798D01*
X127946761Y-46747350D01*
X127916626Y-46846690D01*
X127906451Y-46950000D01*
X127906451Y-47738121D01*
X127850001Y-47761504D01*
X127698172Y-47862952D01*
X127569052Y-47992072D01*
X127467604Y-48143901D01*
X127397724Y-48312604D01*
X127362100Y-48491699D01*
X127362100Y-48674301D01*
X127397724Y-48853396D01*
X127467604Y-49022099D01*
X127569052Y-49173928D01*
X127698172Y-49303048D01*
X127850001Y-49404496D01*
X128018704Y-49474376D01*
X128197799Y-49510000D01*
X128380401Y-49510000D01*
X128559496Y-49474376D01*
X128728199Y-49404496D01*
X128880028Y-49303048D01*
X129009148Y-49173928D01*
X129110596Y-49022099D01*
X129180476Y-48853396D01*
X129185667Y-48827300D01*
X129253978Y-48827300D01*
X129286000Y-48830454D01*
X129318022Y-48827300D01*
X129413814Y-48817865D01*
X129536717Y-48780583D01*
X129649984Y-48720041D01*
X129749264Y-48638564D01*
X129809400Y-48565288D01*
X129809400Y-49713706D01*
X129571750Y-49715000D01*
X129413000Y-49873750D01*
X129413000Y-50673000D01*
X129433000Y-50673000D01*
X129433000Y-50927000D01*
X129413000Y-50927000D01*
X129413000Y-51726250D01*
X129571750Y-51885000D01*
X129809400Y-51886294D01*
X129809400Y-52135233D01*
X128847614Y-53097020D01*
X128822737Y-53117436D01*
X128741260Y-53216716D01*
X128733428Y-53231369D01*
X128680717Y-53329984D01*
X128666621Y-53376451D01*
X128436000Y-53376451D01*
X128332690Y-53386626D01*
X128233350Y-53416761D01*
X128141798Y-53465696D01*
X128061552Y-53531552D01*
X127995696Y-53611798D01*
X127946761Y-53703350D01*
X127916626Y-53802690D01*
X127906451Y-53906000D01*
X127906451Y-54806000D01*
X127916626Y-54909310D01*
X127946761Y-55008650D01*
X127995696Y-55100202D01*
X128061552Y-55180448D01*
X128141798Y-55246304D01*
X128233350Y-55295239D01*
X128332690Y-55325374D01*
X128436000Y-55335549D01*
X130136000Y-55335549D01*
X130239310Y-55325374D01*
X130338650Y-55295239D01*
X130430202Y-55246304D01*
X130510448Y-55180448D01*
X130512000Y-55178557D01*
X130512000Y-56793113D01*
X130490494Y-56775463D01*
X130380180Y-56716498D01*
X130260482Y-56680188D01*
X130136000Y-56667928D01*
X129571750Y-56671000D01*
X129413000Y-56829750D01*
X129413000Y-57629000D01*
X129433000Y-57629000D01*
X129433000Y-57883000D01*
X129413000Y-57883000D01*
X129413000Y-58682250D01*
X129571750Y-58841000D01*
X130136000Y-58844072D01*
X130260482Y-58831812D01*
X130380180Y-58795502D01*
X130490494Y-58736537D01*
X130512000Y-58718888D01*
X130512000Y-58901006D01*
X130500567Y-59017609D01*
X130474542Y-59103807D01*
X130432271Y-59183308D01*
X130375361Y-59253086D01*
X130305986Y-59310479D01*
X130226781Y-59353305D01*
X130140769Y-59379929D01*
X130025926Y-59392000D01*
X87402994Y-59392000D01*
X87286391Y-59380567D01*
X87200193Y-59354542D01*
X87120692Y-59312271D01*
X87050914Y-59255361D01*
X86993521Y-59185986D01*
X86950695Y-59106781D01*
X86924071Y-59020769D01*
X86912000Y-58905926D01*
X86912000Y-58206000D01*
X127797928Y-58206000D01*
X127810188Y-58330482D01*
X127846498Y-58450180D01*
X127905463Y-58560494D01*
X127984815Y-58657185D01*
X128081506Y-58736537D01*
X128191820Y-58795502D01*
X128311518Y-58831812D01*
X128436000Y-58844072D01*
X129000250Y-58841000D01*
X129159000Y-58682250D01*
X129159000Y-57883000D01*
X127959750Y-57883000D01*
X127801000Y-58041750D01*
X127797928Y-58206000D01*
X86912000Y-58206000D01*
X86912000Y-56845565D01*
X89384040Y-56845565D01*
X89451020Y-57085656D01*
X89700048Y-57202756D01*
X89967135Y-57269023D01*
X90242017Y-57281910D01*
X90514133Y-57240922D01*
X90526746Y-57236377D01*
X92943587Y-57236377D01*
X92980353Y-57436912D01*
X93055534Y-57626420D01*
X93070264Y-57653981D01*
X93273559Y-57676836D01*
X93800395Y-57150000D01*
X93273559Y-56623164D01*
X93070264Y-56646019D01*
X92989423Y-56833184D01*
X92946649Y-57032523D01*
X92943587Y-57236377D01*
X90526746Y-57236377D01*
X90773023Y-57147636D01*
X90888980Y-57085656D01*
X90955960Y-56845565D01*
X90170000Y-56059605D01*
X89384040Y-56845565D01*
X86912000Y-56845565D01*
X86912000Y-55952017D01*
X88768090Y-55952017D01*
X88809078Y-56224133D01*
X88902364Y-56483023D01*
X88964344Y-56598980D01*
X89204435Y-56665960D01*
X89990395Y-55880000D01*
X90349605Y-55880000D01*
X91135565Y-56665960D01*
X91375656Y-56598980D01*
X91492756Y-56349952D01*
X91559023Y-56082865D01*
X91571910Y-55807983D01*
X91530922Y-55535867D01*
X91437636Y-55276977D01*
X91375656Y-55161020D01*
X91135565Y-55094040D01*
X90349605Y-55880000D01*
X89990395Y-55880000D01*
X89204435Y-55094040D01*
X88964344Y-55161020D01*
X88847244Y-55410048D01*
X88780977Y-55677135D01*
X88768090Y-55952017D01*
X86912000Y-55952017D01*
X86912000Y-55399109D01*
X86914670Y-55372000D01*
X86909626Y-55320783D01*
X86904012Y-55263789D01*
X86872448Y-55159737D01*
X86837872Y-55095049D01*
X87333000Y-55095049D01*
X87475328Y-55081031D01*
X87612186Y-55039515D01*
X87738316Y-54972098D01*
X87848869Y-54881369D01*
X87939598Y-54770816D01*
X88007015Y-54644686D01*
X88048531Y-54507828D01*
X88062549Y-54365500D01*
X88062549Y-54355917D01*
X88664967Y-53753500D01*
X88761201Y-53753500D01*
X88932001Y-53719526D01*
X89027703Y-53950570D01*
X89168768Y-54161690D01*
X89348310Y-54341232D01*
X89559430Y-54482297D01*
X89730868Y-54553309D01*
X89566977Y-54612364D01*
X89451020Y-54674344D01*
X89384040Y-54914435D01*
X90170000Y-55700395D01*
X90955960Y-54914435D01*
X90888980Y-54674344D01*
X90639952Y-54557244D01*
X90614737Y-54550988D01*
X90780570Y-54482297D01*
X90991690Y-54341232D01*
X91171232Y-54161690D01*
X91312297Y-53950570D01*
X91409465Y-53715987D01*
X91459000Y-53466955D01*
X91459000Y-53213045D01*
X91409465Y-52964013D01*
X91312297Y-52729430D01*
X91171232Y-52518310D01*
X90991690Y-52338768D01*
X90780570Y-52197703D01*
X90545987Y-52100535D01*
X90392476Y-52070000D01*
X90545987Y-52039465D01*
X90780570Y-51942297D01*
X90991690Y-51801232D01*
X91171232Y-51621690D01*
X91312297Y-51410570D01*
X91409465Y-51175987D01*
X91459000Y-50926955D01*
X91459000Y-50673045D01*
X91409465Y-50424013D01*
X91312297Y-50189430D01*
X91171232Y-49978310D01*
X90991690Y-49798768D01*
X90780570Y-49657703D01*
X90545987Y-49560535D01*
X90392476Y-49530000D01*
X90545987Y-49499465D01*
X90780570Y-49402297D01*
X90991690Y-49261232D01*
X91171232Y-49081690D01*
X91312297Y-48870570D01*
X91348091Y-48784157D01*
X92600020Y-50036087D01*
X92620436Y-50060964D01*
X92719716Y-50142441D01*
X92822648Y-50197459D01*
X92832983Y-50202983D01*
X92955885Y-50240265D01*
X92968527Y-50241510D01*
X93051678Y-50249700D01*
X93051685Y-50249700D01*
X93083699Y-50252853D01*
X93115714Y-50249700D01*
X93408275Y-50249700D01*
X93360224Y-50365704D01*
X93324600Y-50544799D01*
X93324600Y-50727401D01*
X93360224Y-50906496D01*
X93430104Y-51075199D01*
X93531552Y-51227028D01*
X93660672Y-51356148D01*
X93812501Y-51457596D01*
X93981204Y-51527476D01*
X94070176Y-51545174D01*
X94098239Y-51579369D01*
X94101436Y-51583264D01*
X94200716Y-51664741D01*
X94256876Y-51694759D01*
X94251928Y-51745000D01*
X94255000Y-51784250D01*
X94413750Y-51943000D01*
X94716231Y-51943000D01*
X94786690Y-51964374D01*
X94890000Y-51974549D01*
X95567000Y-51974549D01*
X95567000Y-52165451D01*
X94890000Y-52165451D01*
X94786690Y-52175626D01*
X94716231Y-52197000D01*
X94413750Y-52197000D01*
X94255000Y-52355750D01*
X94251928Y-52395000D01*
X94264188Y-52519482D01*
X94300498Y-52639180D01*
X94359463Y-52749494D01*
X94360451Y-52750698D01*
X94360451Y-53345000D01*
X94370626Y-53448310D01*
X94400761Y-53547650D01*
X94449696Y-53639202D01*
X94515552Y-53719448D01*
X94595798Y-53785304D01*
X94687350Y-53834239D01*
X94786690Y-53864374D01*
X94890000Y-53874549D01*
X95950000Y-53874549D01*
X96053310Y-53864374D01*
X96152650Y-53834239D01*
X96162310Y-53829076D01*
X98649776Y-56316543D01*
X98620901Y-56328504D01*
X98469072Y-56429952D01*
X98425000Y-56474024D01*
X98380928Y-56429952D01*
X98229099Y-56328504D01*
X98060396Y-56258624D01*
X97881301Y-56223000D01*
X97698699Y-56223000D01*
X97519604Y-56258624D01*
X97350901Y-56328504D01*
X97199072Y-56429952D01*
X97155000Y-56474024D01*
X97110928Y-56429952D01*
X96959099Y-56328504D01*
X96790396Y-56258624D01*
X96611301Y-56223000D01*
X96428699Y-56223000D01*
X96249604Y-56258624D01*
X96080901Y-56328504D01*
X95929072Y-56429952D01*
X95885000Y-56474024D01*
X95840928Y-56429952D01*
X95689099Y-56328504D01*
X95520396Y-56258624D01*
X95341301Y-56223000D01*
X95158699Y-56223000D01*
X94979604Y-56258624D01*
X94810901Y-56328504D01*
X94701516Y-56401592D01*
X94625158Y-56325234D01*
X94506836Y-56443556D01*
X94483981Y-56240264D01*
X94296816Y-56159423D01*
X94097477Y-56116649D01*
X93893623Y-56113587D01*
X93693088Y-56150353D01*
X93503580Y-56225534D01*
X93476019Y-56240264D01*
X93453164Y-56443559D01*
X93980000Y-56970395D01*
X93994143Y-56956253D01*
X94173748Y-57135858D01*
X94159605Y-57150000D01*
X94173748Y-57164143D01*
X93994143Y-57343748D01*
X93980000Y-57329605D01*
X93453164Y-57856441D01*
X93476019Y-58059736D01*
X93663184Y-58140577D01*
X93862523Y-58183351D01*
X94066377Y-58186413D01*
X94266912Y-58149647D01*
X94456420Y-58074466D01*
X94483981Y-58059736D01*
X94506836Y-57856444D01*
X94625158Y-57974766D01*
X94701516Y-57898408D01*
X94810901Y-57971496D01*
X94979604Y-58041376D01*
X95158699Y-58077000D01*
X95341301Y-58077000D01*
X95520396Y-58041376D01*
X95689099Y-57971496D01*
X95840928Y-57870048D01*
X95885000Y-57825976D01*
X95929072Y-57870048D01*
X96080901Y-57971496D01*
X96249604Y-58041376D01*
X96428699Y-58077000D01*
X96611301Y-58077000D01*
X96790396Y-58041376D01*
X96959099Y-57971496D01*
X97110928Y-57870048D01*
X97155000Y-57825976D01*
X97199072Y-57870048D01*
X97350901Y-57971496D01*
X97519604Y-58041376D01*
X97698699Y-58077000D01*
X97881301Y-58077000D01*
X98060396Y-58041376D01*
X98229099Y-57971496D01*
X98380928Y-57870048D01*
X98425000Y-57825976D01*
X98469072Y-57870048D01*
X98620901Y-57971496D01*
X98789604Y-58041376D01*
X98968699Y-58077000D01*
X99151301Y-58077000D01*
X99330396Y-58041376D01*
X99499099Y-57971496D01*
X99650928Y-57870048D01*
X99695000Y-57825976D01*
X99739072Y-57870048D01*
X99890901Y-57971496D01*
X100059604Y-58041376D01*
X100238699Y-58077000D01*
X100421301Y-58077000D01*
X100600396Y-58041376D01*
X100769099Y-57971496D01*
X100920928Y-57870048D01*
X100965000Y-57825976D01*
X101009072Y-57870048D01*
X101160901Y-57971496D01*
X101329604Y-58041376D01*
X101508699Y-58077000D01*
X101691301Y-58077000D01*
X101870396Y-58041376D01*
X102039099Y-57971496D01*
X102190928Y-57870048D01*
X102235000Y-57825976D01*
X102279072Y-57870048D01*
X102430901Y-57971496D01*
X102599604Y-58041376D01*
X102778699Y-58077000D01*
X102961301Y-58077000D01*
X103140396Y-58041376D01*
X103309099Y-57971496D01*
X103460928Y-57870048D01*
X103590048Y-57740928D01*
X103691496Y-57589099D01*
X103761376Y-57420396D01*
X103784130Y-57306000D01*
X127797928Y-57306000D01*
X127801000Y-57470250D01*
X127959750Y-57629000D01*
X129159000Y-57629000D01*
X129159000Y-56829750D01*
X129000250Y-56671000D01*
X128436000Y-56667928D01*
X128311518Y-56680188D01*
X128191820Y-56716498D01*
X128081506Y-56775463D01*
X127984815Y-56854815D01*
X127905463Y-56951506D01*
X127846498Y-57061820D01*
X127810188Y-57181518D01*
X127797928Y-57306000D01*
X103784130Y-57306000D01*
X103797000Y-57241301D01*
X103797000Y-57076600D01*
X108002383Y-57076600D01*
X108003586Y-57076965D01*
X108131399Y-57089554D01*
X108163421Y-57086400D01*
X111644878Y-57086400D01*
X111676900Y-57089554D01*
X111708922Y-57086400D01*
X111804714Y-57076965D01*
X111927617Y-57039683D01*
X112040884Y-56979141D01*
X112140164Y-56897664D01*
X112160585Y-56872781D01*
X112855596Y-56177770D01*
X112922252Y-56277528D01*
X113051372Y-56406648D01*
X113203201Y-56508096D01*
X113371904Y-56577976D01*
X113550999Y-56613600D01*
X113733601Y-56613600D01*
X113912696Y-56577976D01*
X114081399Y-56508096D01*
X114233228Y-56406648D01*
X114362348Y-56277528D01*
X114463796Y-56125699D01*
X114533676Y-55956996D01*
X114569300Y-55777901D01*
X114569300Y-55595299D01*
X114533676Y-55416204D01*
X114508904Y-55356399D01*
X115482300Y-55356399D01*
X115482300Y-55539001D01*
X115517924Y-55718096D01*
X115587804Y-55886799D01*
X115689252Y-56038628D01*
X115818372Y-56167748D01*
X115970201Y-56269196D01*
X116138904Y-56339076D01*
X116317999Y-56374700D01*
X116500601Y-56374700D01*
X116679696Y-56339076D01*
X116848399Y-56269196D01*
X117000228Y-56167748D01*
X117129348Y-56038628D01*
X117230796Y-55886799D01*
X117300676Y-55718096D01*
X117336300Y-55539001D01*
X117336300Y-55356399D01*
X117300676Y-55177304D01*
X117230796Y-55008601D01*
X117129348Y-54856772D01*
X117000228Y-54727652D01*
X116848399Y-54626204D01*
X116679696Y-54556324D01*
X116500601Y-54520700D01*
X116317999Y-54520700D01*
X116138904Y-54556324D01*
X115970201Y-54626204D01*
X115818372Y-54727652D01*
X115689252Y-54856772D01*
X115587804Y-55008601D01*
X115517924Y-55177304D01*
X115482300Y-55356399D01*
X114508904Y-55356399D01*
X114463796Y-55247501D01*
X114362348Y-55095672D01*
X114233228Y-54966552D01*
X114133470Y-54899896D01*
X115754387Y-53278980D01*
X115779264Y-53258564D01*
X115860741Y-53159284D01*
X115921283Y-53046017D01*
X115945474Y-52966269D01*
X115968650Y-52959239D01*
X116060202Y-52910304D01*
X116140448Y-52844448D01*
X116206304Y-52764202D01*
X116255239Y-52672650D01*
X116285374Y-52573310D01*
X116295549Y-52470000D01*
X116295549Y-51670000D01*
X116285374Y-51566690D01*
X116255239Y-51467350D01*
X116206304Y-51375798D01*
X116140448Y-51295552D01*
X116060202Y-51229696D01*
X115968650Y-51180761D01*
X115869310Y-51150626D01*
X115766000Y-51140451D01*
X114866000Y-51140451D01*
X114762690Y-51150626D01*
X114663350Y-51180761D01*
X114571798Y-51229696D01*
X114491552Y-51295552D01*
X114425696Y-51375798D01*
X114376761Y-51467350D01*
X114346626Y-51566690D01*
X114336451Y-51670000D01*
X114336451Y-52470000D01*
X114346626Y-52573310D01*
X114376761Y-52672650D01*
X114425464Y-52763769D01*
X114295549Y-52893684D01*
X114295549Y-52620000D01*
X114285374Y-52516690D01*
X114255239Y-52417350D01*
X114206304Y-52325798D01*
X114140448Y-52245552D01*
X114060202Y-52179696D01*
X113968650Y-52130761D01*
X113869310Y-52100626D01*
X113766000Y-52090451D01*
X112866000Y-52090451D01*
X112762690Y-52100626D01*
X112663350Y-52130761D01*
X112571798Y-52179696D01*
X112491552Y-52245552D01*
X112425696Y-52325798D01*
X112403139Y-52368000D01*
X111920937Y-52368000D01*
X111960502Y-52293980D01*
X111996812Y-52174282D01*
X112009072Y-52049800D01*
X112006000Y-51885550D01*
X111847250Y-51726800D01*
X111023000Y-51726800D01*
X111023000Y-51746800D01*
X110769000Y-51746800D01*
X110769000Y-51726800D01*
X109944750Y-51726800D01*
X109786000Y-51885550D01*
X109782928Y-52049800D01*
X109795188Y-52174282D01*
X109831498Y-52293980D01*
X109861281Y-52349700D01*
X109641846Y-52349700D01*
X109656374Y-52301810D01*
X109666549Y-52198500D01*
X109666549Y-51149800D01*
X109782928Y-51149800D01*
X109786000Y-51314050D01*
X109944750Y-51472800D01*
X110769000Y-51472800D01*
X110769000Y-50673550D01*
X111023000Y-50673550D01*
X111023000Y-51472800D01*
X111847250Y-51472800D01*
X112006000Y-51314050D01*
X112009072Y-51149800D01*
X111996812Y-51025318D01*
X111960502Y-50905620D01*
X111901537Y-50795306D01*
X111839736Y-50720000D01*
X112336451Y-50720000D01*
X112336451Y-51520000D01*
X112346626Y-51623310D01*
X112376761Y-51722650D01*
X112425696Y-51814202D01*
X112491552Y-51894448D01*
X112571798Y-51960304D01*
X112663350Y-52009239D01*
X112762690Y-52039374D01*
X112866000Y-52049549D01*
X113766000Y-52049549D01*
X113869310Y-52039374D01*
X113968650Y-52009239D01*
X114060202Y-51960304D01*
X114140448Y-51894448D01*
X114206304Y-51814202D01*
X114255239Y-51722650D01*
X114285374Y-51623310D01*
X114295549Y-51520000D01*
X114295549Y-50720000D01*
X114285374Y-50616690D01*
X114255239Y-50517350D01*
X114206304Y-50425798D01*
X114178075Y-50391401D01*
X114194548Y-50374928D01*
X114295996Y-50223099D01*
X114365876Y-50054396D01*
X114401500Y-49875301D01*
X114401500Y-49692699D01*
X114365876Y-49513604D01*
X114295996Y-49344901D01*
X114194548Y-49193072D01*
X114065428Y-49063952D01*
X113913599Y-48962504D01*
X113744896Y-48892624D01*
X113565801Y-48857000D01*
X113383199Y-48857000D01*
X113204104Y-48892624D01*
X113035401Y-48962504D01*
X112883572Y-49063952D01*
X112754452Y-49193072D01*
X112653004Y-49344901D01*
X112583124Y-49513604D01*
X112547500Y-49692699D01*
X112547500Y-49875301D01*
X112583124Y-50054396D01*
X112653004Y-50223099D01*
X112659499Y-50232819D01*
X112571798Y-50279696D01*
X112491552Y-50345552D01*
X112425696Y-50425798D01*
X112376761Y-50517350D01*
X112346626Y-50616690D01*
X112336451Y-50720000D01*
X111839736Y-50720000D01*
X111822185Y-50698615D01*
X111725494Y-50619263D01*
X111615180Y-50560298D01*
X111495482Y-50523988D01*
X111371000Y-50511728D01*
X111181750Y-50514800D01*
X111023000Y-50673550D01*
X110769000Y-50673550D01*
X110610250Y-50514800D01*
X110421000Y-50511728D01*
X110296518Y-50523988D01*
X110176820Y-50560298D01*
X110066506Y-50619263D01*
X109969815Y-50698615D01*
X109890463Y-50795306D01*
X109831498Y-50905620D01*
X109795188Y-51025318D01*
X109782928Y-51149800D01*
X109666549Y-51149800D01*
X109666549Y-51138500D01*
X109656374Y-51035190D01*
X109626239Y-50935850D01*
X109577304Y-50844298D01*
X109511448Y-50764052D01*
X109457992Y-50720182D01*
X109454565Y-50685385D01*
X109417283Y-50562483D01*
X109398967Y-50528216D01*
X109356741Y-50449216D01*
X109275264Y-50349936D01*
X109250387Y-50329520D01*
X107179866Y-48259000D01*
X109796134Y-48259000D01*
X109891451Y-48354317D01*
X109891451Y-48636800D01*
X109905469Y-48779128D01*
X109946985Y-48915986D01*
X110014402Y-49042116D01*
X110105131Y-49152669D01*
X110215684Y-49243398D01*
X110341814Y-49310815D01*
X110478672Y-49352331D01*
X110621000Y-49366349D01*
X111171000Y-49366349D01*
X111313328Y-49352331D01*
X111450186Y-49310815D01*
X111576316Y-49243398D01*
X111686869Y-49152669D01*
X111777598Y-49042116D01*
X111845015Y-48915986D01*
X111886531Y-48779128D01*
X111898934Y-48653197D01*
X119575000Y-48653197D01*
X119575000Y-48796403D01*
X119602938Y-48936858D01*
X119657741Y-49069164D01*
X119737302Y-49188236D01*
X119838564Y-49289498D01*
X119957636Y-49369059D01*
X120089942Y-49423862D01*
X120230397Y-49451800D01*
X120286200Y-49451800D01*
X120286200Y-49471000D01*
X120230397Y-49471000D01*
X120089942Y-49498938D01*
X119957636Y-49553741D01*
X119838564Y-49633302D01*
X119737302Y-49734564D01*
X119657741Y-49853636D01*
X119602938Y-49985942D01*
X119575000Y-50126397D01*
X119575000Y-50269603D01*
X119602938Y-50410058D01*
X119657741Y-50542364D01*
X119737302Y-50661436D01*
X119838564Y-50762698D01*
X119957636Y-50842259D01*
X120089942Y-50897062D01*
X120230397Y-50925000D01*
X120286200Y-50925000D01*
X120286200Y-51031603D01*
X120314138Y-51172058D01*
X120368941Y-51304364D01*
X120448502Y-51423436D01*
X120549764Y-51524698D01*
X120668836Y-51604259D01*
X120801142Y-51659062D01*
X120941597Y-51687000D01*
X121084803Y-51687000D01*
X121225258Y-51659062D01*
X121357564Y-51604259D01*
X121476636Y-51524698D01*
X121577898Y-51423436D01*
X121657459Y-51304364D01*
X121712262Y-51172058D01*
X121740200Y-51031603D01*
X121740200Y-50925000D01*
X121759400Y-50925000D01*
X121759400Y-51031603D01*
X121787338Y-51172058D01*
X121842141Y-51304364D01*
X121921702Y-51423436D01*
X122022964Y-51524698D01*
X122142036Y-51604259D01*
X122274342Y-51659062D01*
X122414797Y-51687000D01*
X122558003Y-51687000D01*
X122698458Y-51659062D01*
X122830764Y-51604259D01*
X122949836Y-51524698D01*
X123051098Y-51423436D01*
X123130659Y-51304364D01*
X123153177Y-51250000D01*
X127797928Y-51250000D01*
X127810188Y-51374482D01*
X127846498Y-51494180D01*
X127905463Y-51604494D01*
X127984815Y-51701185D01*
X128081506Y-51780537D01*
X128191820Y-51839502D01*
X128311518Y-51875812D01*
X128436000Y-51888072D01*
X129000250Y-51885000D01*
X129159000Y-51726250D01*
X129159000Y-50927000D01*
X127959750Y-50927000D01*
X127801000Y-51085750D01*
X127797928Y-51250000D01*
X123153177Y-51250000D01*
X123185462Y-51172058D01*
X123213400Y-51031603D01*
X123213400Y-50922176D01*
X123227597Y-50925000D01*
X123370803Y-50925000D01*
X123511258Y-50897062D01*
X123643564Y-50842259D01*
X123762636Y-50762698D01*
X123863898Y-50661436D01*
X123943459Y-50542364D01*
X123998262Y-50410058D01*
X124010208Y-50350000D01*
X127797928Y-50350000D01*
X127801000Y-50514250D01*
X127959750Y-50673000D01*
X129159000Y-50673000D01*
X129159000Y-49873750D01*
X129000250Y-49715000D01*
X128436000Y-49711928D01*
X128311518Y-49724188D01*
X128191820Y-49760498D01*
X128081506Y-49819463D01*
X127984815Y-49898815D01*
X127905463Y-49995506D01*
X127846498Y-50105820D01*
X127810188Y-50225518D01*
X127797928Y-50350000D01*
X124010208Y-50350000D01*
X124026200Y-50269603D01*
X124026200Y-50126397D01*
X123998262Y-49985942D01*
X123943459Y-49853636D01*
X123863898Y-49734564D01*
X123762636Y-49633302D01*
X123643564Y-49553741D01*
X123511258Y-49498938D01*
X123370803Y-49471000D01*
X123227597Y-49471000D01*
X123213400Y-49473824D01*
X123213400Y-49398176D01*
X123227597Y-49401000D01*
X123370803Y-49401000D01*
X123511258Y-49373062D01*
X123643564Y-49318259D01*
X123762636Y-49238698D01*
X123863898Y-49137436D01*
X123943459Y-49018364D01*
X123998262Y-48886058D01*
X124026200Y-48745603D01*
X124026200Y-48602397D01*
X123998262Y-48461942D01*
X123943459Y-48329636D01*
X123863898Y-48210564D01*
X123762636Y-48109302D01*
X123643564Y-48029741D01*
X123511258Y-47974938D01*
X123370803Y-47947000D01*
X123227597Y-47947000D01*
X123213400Y-47949824D01*
X123213400Y-47891197D01*
X123185462Y-47750742D01*
X123130659Y-47618436D01*
X123051098Y-47499364D01*
X122949836Y-47398102D01*
X122830764Y-47318541D01*
X122698458Y-47263738D01*
X122558003Y-47235800D01*
X122414797Y-47235800D01*
X122274342Y-47263738D01*
X122142036Y-47318541D01*
X122022964Y-47398102D01*
X121921702Y-47499364D01*
X121842141Y-47618436D01*
X121787338Y-47750742D01*
X121759400Y-47891197D01*
X121759400Y-47947000D01*
X121754397Y-47947000D01*
X121740200Y-47949824D01*
X121740200Y-47891197D01*
X121712262Y-47750742D01*
X121657459Y-47618436D01*
X121577898Y-47499364D01*
X121476636Y-47398102D01*
X121357564Y-47318541D01*
X121225258Y-47263738D01*
X121084803Y-47235800D01*
X120941597Y-47235800D01*
X120801142Y-47263738D01*
X120668836Y-47318541D01*
X120549764Y-47398102D01*
X120448502Y-47499364D01*
X120368941Y-47618436D01*
X120314138Y-47750742D01*
X120286200Y-47891197D01*
X120286200Y-47997800D01*
X120230397Y-47997800D01*
X120089942Y-48025738D01*
X119957636Y-48080541D01*
X119838564Y-48160102D01*
X119737302Y-48261364D01*
X119657741Y-48380436D01*
X119602938Y-48512742D01*
X119575000Y-48653197D01*
X111898934Y-48653197D01*
X111900549Y-48636800D01*
X111900549Y-48236800D01*
X111886531Y-48094472D01*
X111845015Y-47957614D01*
X111777598Y-47831484D01*
X111686869Y-47720931D01*
X111576316Y-47630202D01*
X111541888Y-47611800D01*
X111576316Y-47593398D01*
X111686869Y-47502669D01*
X111777598Y-47392116D01*
X111845015Y-47265986D01*
X111886531Y-47129128D01*
X111900549Y-46986800D01*
X111900549Y-46586800D01*
X111886531Y-46444472D01*
X111859550Y-46355528D01*
X111982250Y-46355000D01*
X112141000Y-46196250D01*
X112141000Y-44847000D01*
X112395000Y-44847000D01*
X112395000Y-46196250D01*
X112553750Y-46355000D01*
X113268000Y-46358072D01*
X113392482Y-46345812D01*
X113512180Y-46309502D01*
X113622494Y-46250537D01*
X113719185Y-46171185D01*
X113798537Y-46074494D01*
X113857502Y-45964180D01*
X113893812Y-45844482D01*
X113906072Y-45720000D01*
X120281928Y-45720000D01*
X120294188Y-45844482D01*
X120330498Y-45964180D01*
X120389463Y-46074494D01*
X120468815Y-46171185D01*
X120565506Y-46250537D01*
X120675820Y-46309502D01*
X120795518Y-46345812D01*
X120920000Y-46358072D01*
X121634250Y-46355000D01*
X121793000Y-46196250D01*
X121793000Y-44847000D01*
X122047000Y-44847000D01*
X122047000Y-46196250D01*
X122205750Y-46355000D01*
X122920000Y-46358072D01*
X123044482Y-46345812D01*
X123164180Y-46309502D01*
X123274494Y-46250537D01*
X123371185Y-46171185D01*
X123450537Y-46074494D01*
X123509502Y-45964180D01*
X123545812Y-45844482D01*
X123558072Y-45720000D01*
X123555000Y-45005750D01*
X123396250Y-44847000D01*
X122047000Y-44847000D01*
X121793000Y-44847000D01*
X120443750Y-44847000D01*
X120285000Y-45005750D01*
X120281928Y-45720000D01*
X113906072Y-45720000D01*
X113903000Y-45005750D01*
X113744250Y-44847000D01*
X112395000Y-44847000D01*
X112141000Y-44847000D01*
X112121000Y-44847000D01*
X112121000Y-44593000D01*
X112141000Y-44593000D01*
X112141000Y-44573000D01*
X112395000Y-44573000D01*
X112395000Y-44593000D01*
X113744250Y-44593000D01*
X113903000Y-44434250D01*
X113904667Y-44046600D01*
X120283333Y-44046600D01*
X120285000Y-44434250D01*
X120443750Y-44593000D01*
X121793000Y-44593000D01*
X121793000Y-44573000D01*
X122047000Y-44573000D01*
X122047000Y-44593000D01*
X123396250Y-44593000D01*
X123555000Y-44434250D01*
X123556667Y-44046600D01*
X126515400Y-44046600D01*
X126515401Y-45025768D01*
X126512246Y-45057800D01*
X126524835Y-45185614D01*
X126562117Y-45308516D01*
X126586132Y-45353444D01*
X126622660Y-45421784D01*
X126704137Y-45521064D01*
X126729014Y-45541480D01*
X126824400Y-45636866D01*
X126824400Y-45733101D01*
X126860024Y-45912196D01*
X126929904Y-46080899D01*
X127031352Y-46232728D01*
X127160472Y-46361848D01*
X127312301Y-46463296D01*
X127481004Y-46533176D01*
X127660099Y-46568800D01*
X127842701Y-46568800D01*
X128021796Y-46533176D01*
X128190499Y-46463296D01*
X128342328Y-46361848D01*
X128471448Y-46232728D01*
X128572896Y-46080899D01*
X128642776Y-45912196D01*
X128678400Y-45733101D01*
X128678400Y-45550499D01*
X128642776Y-45371404D01*
X128572896Y-45202701D01*
X128471448Y-45050872D01*
X128342328Y-44921752D01*
X128190499Y-44820304D01*
X128021796Y-44750424D01*
X127842701Y-44714800D01*
X127819400Y-44714800D01*
X127819400Y-43664666D01*
X128315518Y-43168549D01*
X128598000Y-43168549D01*
X128740328Y-43154531D01*
X128877186Y-43113015D01*
X129003316Y-43045598D01*
X129113869Y-42954869D01*
X129204598Y-42844316D01*
X129223000Y-42809888D01*
X129241402Y-42844316D01*
G37*
G04 #@! TD.AperFunction*
D25*
X88830000Y-37330250D02*
X88879419Y-37379669D01*
X88775750Y-37381000D01*
X88617000Y-37539750D01*
X88617000Y-38989000D01*
X89491250Y-38989000D01*
X89650000Y-38830250D01*
X89650297Y-38751415D01*
X89679250Y-38751000D01*
X89838000Y-38592250D01*
X89838000Y-37743000D01*
X89818000Y-37743000D01*
X89818000Y-37489000D01*
X89838000Y-37489000D01*
X89838000Y-37469000D01*
X90092000Y-37469000D01*
X90092000Y-37489000D01*
X90112000Y-37489000D01*
X90112000Y-37743000D01*
X90092000Y-37743000D01*
X90092000Y-38592250D01*
X90250750Y-38751000D01*
X90279703Y-38751415D01*
X90280000Y-38830250D01*
X90438750Y-38989000D01*
X91313000Y-38989000D01*
X91313000Y-37539750D01*
X91567000Y-37539750D01*
X91567000Y-38989000D01*
X92441250Y-38989000D01*
X92600000Y-38830250D01*
X92603072Y-38016000D01*
X92590812Y-37891518D01*
X92554502Y-37771820D01*
X92495537Y-37661506D01*
X92416185Y-37564815D01*
X92319494Y-37485463D01*
X92209180Y-37426498D01*
X92089482Y-37390188D01*
X91965000Y-37377928D01*
X91725750Y-37381000D01*
X91567000Y-37539750D01*
X91313000Y-37539750D01*
X91154250Y-37381000D01*
X91050581Y-37379669D01*
X91100000Y-37330250D01*
X91102900Y-37128000D01*
X96634627Y-37128000D01*
X96620469Y-37174672D01*
X96606451Y-37317000D01*
X96606451Y-37867000D01*
X96620469Y-38009328D01*
X96661985Y-38146186D01*
X96729402Y-38272316D01*
X96820131Y-38382869D01*
X96930684Y-38473598D01*
X97056814Y-38541015D01*
X97193672Y-38582531D01*
X97336000Y-38596549D01*
X97618483Y-38596549D01*
X100890235Y-41868302D01*
X100779901Y-41914004D01*
X100628072Y-42015452D01*
X100498952Y-42144572D01*
X100397504Y-42296401D01*
X100327624Y-42465104D01*
X100292000Y-42644199D01*
X100292000Y-42826801D01*
X100327624Y-43005896D01*
X100397504Y-43174599D01*
X100498952Y-43326428D01*
X100628072Y-43455548D01*
X100779901Y-43556996D01*
X100948604Y-43626876D01*
X100986360Y-43634386D01*
X100977928Y-43720000D01*
X100981000Y-44434250D01*
X101139750Y-44593000D01*
X102489000Y-44593000D01*
X102489000Y-44573000D01*
X102743000Y-44573000D01*
X102743000Y-44593000D01*
X104092250Y-44593000D01*
X104251000Y-44434250D01*
X104254072Y-43720000D01*
X104241812Y-43595518D01*
X104205502Y-43475820D01*
X104146537Y-43365506D01*
X104067185Y-43268815D01*
X104036582Y-43243700D01*
X107641900Y-43243700D01*
X107597682Y-43326428D01*
X107590917Y-43339084D01*
X107553635Y-43461986D01*
X107541046Y-43589800D01*
X107544200Y-43621823D01*
X107544201Y-44537268D01*
X107541046Y-44569300D01*
X107553635Y-44697114D01*
X107590917Y-44820016D01*
X107605629Y-44847540D01*
X107651460Y-44933284D01*
X107732937Y-45032564D01*
X107757814Y-45052980D01*
X108209919Y-45505086D01*
X108230336Y-45529964D01*
X108329616Y-45611441D01*
X108442883Y-45671983D01*
X108565785Y-45709265D01*
X108693600Y-45721854D01*
X108725622Y-45718700D01*
X109379678Y-45718700D01*
X109411700Y-45721854D01*
X109443722Y-45718700D01*
X109539514Y-45709265D01*
X109662417Y-45671983D01*
X109775684Y-45611441D01*
X109874964Y-45529964D01*
X109895385Y-45505081D01*
X110633000Y-44767467D01*
X110633000Y-44847002D01*
X110791748Y-44847002D01*
X110633000Y-45005750D01*
X110629928Y-45720000D01*
X110642188Y-45844482D01*
X110646061Y-45857251D01*
X110621000Y-45857251D01*
X110478672Y-45871269D01*
X110341814Y-45912785D01*
X110215684Y-45980202D01*
X110105131Y-46070931D01*
X110052715Y-46134800D01*
X104097045Y-46134800D01*
X104146537Y-46074494D01*
X104205502Y-45964180D01*
X104241812Y-45844482D01*
X104254072Y-45720000D01*
X104251000Y-45005750D01*
X104092250Y-44847000D01*
X102743000Y-44847000D01*
X102743000Y-46196250D01*
X102901750Y-46355000D01*
X103346221Y-46356912D01*
X101001719Y-48701415D01*
X100976836Y-48721836D01*
X100895359Y-48821117D01*
X100835992Y-48932185D01*
X100834817Y-48934384D01*
X100797535Y-49057286D01*
X100784946Y-49185100D01*
X100788100Y-49217122D01*
X100788100Y-49414612D01*
X100785196Y-49407601D01*
X100683748Y-49255772D01*
X100554628Y-49126652D01*
X100402799Y-49025204D01*
X100234096Y-48955324D01*
X100055001Y-48919700D01*
X99958767Y-48919700D01*
X99078000Y-48038934D01*
X99078000Y-47579285D01*
X99141869Y-47526869D01*
X99232598Y-47416316D01*
X99251000Y-47381888D01*
X99269402Y-47416316D01*
X99360131Y-47526869D01*
X99470684Y-47617598D01*
X99596814Y-47685015D01*
X99733672Y-47726531D01*
X99876000Y-47740549D01*
X100276000Y-47740549D01*
X100418328Y-47726531D01*
X100555186Y-47685015D01*
X100681316Y-47617598D01*
X100791869Y-47526869D01*
X100882598Y-47416316D01*
X100950015Y-47290186D01*
X100991531Y-47153328D01*
X101005549Y-47011000D01*
X101005549Y-46461000D01*
X100991531Y-46318672D01*
X100950015Y-46181814D01*
X100882598Y-46055684D01*
X100791869Y-45945131D01*
X100681316Y-45854402D01*
X100555186Y-45786985D01*
X100418328Y-45745469D01*
X100276000Y-45731451D01*
X99993518Y-45731451D01*
X99982067Y-45720000D01*
X100977928Y-45720000D01*
X100990188Y-45844482D01*
X101026498Y-45964180D01*
X101085463Y-46074494D01*
X101164815Y-46171185D01*
X101261506Y-46250537D01*
X101371820Y-46309502D01*
X101491518Y-46345812D01*
X101616000Y-46358072D01*
X102330250Y-46355000D01*
X102489000Y-46196250D01*
X102489000Y-44847000D01*
X101139750Y-44847000D01*
X100981000Y-45005750D01*
X100977928Y-45720000D01*
X99982067Y-45720000D01*
X99204000Y-44941934D01*
X99204000Y-44044062D01*
X99299877Y-43965377D01*
X99392938Y-43851983D01*
X99462088Y-43722612D01*
X99504671Y-43582236D01*
X99519049Y-43436250D01*
X99519049Y-42923750D01*
X99504671Y-42777764D01*
X99462088Y-42637388D01*
X99392938Y-42508017D01*
X99299877Y-42394623D01*
X99186483Y-42301562D01*
X99057112Y-42232412D01*
X98916736Y-42189829D01*
X98770750Y-42175451D01*
X98333250Y-42175451D01*
X98187264Y-42189829D01*
X98046888Y-42232412D01*
X97917517Y-42301562D01*
X97909960Y-42307764D01*
X97865685Y-42253815D01*
X97768994Y-42174463D01*
X97658680Y-42115498D01*
X97538982Y-42079188D01*
X97414500Y-42066928D01*
X97262750Y-42070000D01*
X97104000Y-42228750D01*
X97104000Y-43053000D01*
X97124000Y-43053000D01*
X97124000Y-43307000D01*
X97104000Y-43307000D01*
X97104000Y-44131250D01*
X97262750Y-44290000D01*
X97414500Y-44293072D01*
X97538982Y-44280812D01*
X97658680Y-44244502D01*
X97768994Y-44185537D01*
X97865685Y-44106185D01*
X97900001Y-44064371D01*
X97900000Y-44554258D01*
X97787553Y-44554258D01*
X97608458Y-44589882D01*
X97439755Y-44659762D01*
X97341254Y-44725578D01*
X97298528Y-44682852D01*
X97146699Y-44581404D01*
X96977996Y-44511524D01*
X96798901Y-44475900D01*
X96616299Y-44475900D01*
X96437204Y-44511524D01*
X96268501Y-44581404D01*
X96116672Y-44682852D01*
X95987552Y-44811972D01*
X95886104Y-44963801D01*
X95816224Y-45132504D01*
X95780600Y-45311599D01*
X95780600Y-45481474D01*
X95774494Y-45476463D01*
X95664180Y-45417498D01*
X95544482Y-45381188D01*
X95420000Y-45368928D01*
X95255750Y-45372000D01*
X95097000Y-45530750D01*
X95097000Y-46355000D01*
X95117000Y-46355000D01*
X95117000Y-46609000D01*
X95097000Y-46609000D01*
X95097000Y-47879000D01*
X95117000Y-47879000D01*
X95117000Y-48133000D01*
X95097000Y-48133000D01*
X95097000Y-48153000D01*
X94843000Y-48153000D01*
X94843000Y-48133000D01*
X94043750Y-48133000D01*
X93885000Y-48291750D01*
X93881928Y-48481000D01*
X93894188Y-48605482D01*
X93930498Y-48725180D01*
X93989463Y-48835494D01*
X94068815Y-48932185D01*
X94085283Y-48945700D01*
X93353767Y-48945700D01*
X91365067Y-46957000D01*
X93881928Y-46957000D01*
X93894188Y-47081482D01*
X93930498Y-47201180D01*
X93953386Y-47244000D01*
X93930498Y-47286820D01*
X93894188Y-47406518D01*
X93881928Y-47531000D01*
X93885000Y-47720250D01*
X94043750Y-47879000D01*
X94843000Y-47879000D01*
X94843000Y-46609000D01*
X94043750Y-46609000D01*
X93885000Y-46767750D01*
X93881928Y-46957000D01*
X91365067Y-46957000D01*
X91094266Y-46686200D01*
X92797678Y-46686200D01*
X92829700Y-46689354D01*
X92861722Y-46686200D01*
X92957514Y-46676765D01*
X93080417Y-46639483D01*
X93193684Y-46578941D01*
X93292964Y-46497464D01*
X93313384Y-46472582D01*
X93510166Y-46275800D01*
X93606401Y-46275800D01*
X93785496Y-46240176D01*
X93886916Y-46198166D01*
X94043750Y-46355000D01*
X94843000Y-46355000D01*
X94843000Y-45530750D01*
X94684250Y-45372000D01*
X94520000Y-45368928D01*
X94442100Y-45376600D01*
X94442100Y-45257499D01*
X94406476Y-45078404D01*
X94336596Y-44909701D01*
X94235148Y-44757872D01*
X94106028Y-44628752D01*
X93954199Y-44527304D01*
X93785496Y-44457424D01*
X93606401Y-44421800D01*
X93423799Y-44421800D01*
X93244704Y-44457424D01*
X93076001Y-44527304D01*
X92924172Y-44628752D01*
X92795052Y-44757872D01*
X92693604Y-44909701D01*
X92623724Y-45078404D01*
X92588100Y-45257499D01*
X92588100Y-45353734D01*
X92559634Y-45382200D01*
X92495549Y-45382200D01*
X92495549Y-44937000D01*
X92481531Y-44794672D01*
X92440015Y-44657814D01*
X92372598Y-44531684D01*
X92281869Y-44421131D01*
X92218000Y-44368715D01*
X92218000Y-44023966D01*
X92382079Y-43859888D01*
X92393998Y-43899180D01*
X92452963Y-44009494D01*
X92532315Y-44106185D01*
X92629006Y-44185537D01*
X92739320Y-44244502D01*
X92859018Y-44280812D01*
X92983500Y-44293072D01*
X93135250Y-44290000D01*
X93294000Y-44131250D01*
X93294000Y-43307000D01*
X93274000Y-43307000D01*
X93274000Y-43053000D01*
X93294000Y-43053000D01*
X93294000Y-43033000D01*
X93548000Y-43033000D01*
X93548000Y-43053000D01*
X93568000Y-43053000D01*
X93568000Y-43307000D01*
X93548000Y-43307000D01*
X93548000Y-44131250D01*
X93706750Y-44290000D01*
X93858500Y-44293072D01*
X93982982Y-44280812D01*
X94102680Y-44244502D01*
X94212994Y-44185537D01*
X94309685Y-44106185D01*
X94353960Y-44052236D01*
X94361517Y-44058438D01*
X94490888Y-44127588D01*
X94631264Y-44170171D01*
X94777250Y-44184549D01*
X95214750Y-44184549D01*
X95360736Y-44170171D01*
X95501112Y-44127588D01*
X95630483Y-44058438D01*
X95743877Y-43965377D01*
X95836938Y-43851983D01*
X95906088Y-43722612D01*
X95907597Y-43717637D01*
X95913688Y-43779482D01*
X95949998Y-43899180D01*
X96008963Y-44009494D01*
X96088315Y-44106185D01*
X96185006Y-44185537D01*
X96295320Y-44244502D01*
X96415018Y-44280812D01*
X96539500Y-44293072D01*
X96691250Y-44290000D01*
X96850000Y-44131250D01*
X96850000Y-43307000D01*
X96830000Y-43307000D01*
X96830000Y-43053000D01*
X96850000Y-43053000D01*
X96850000Y-42228750D01*
X96691250Y-42070000D01*
X96539500Y-42066928D01*
X96415018Y-42079188D01*
X96295320Y-42115498D01*
X96185006Y-42174463D01*
X96088315Y-42253815D01*
X96008963Y-42350506D01*
X95949998Y-42460820D01*
X95913688Y-42580518D01*
X95907597Y-42642363D01*
X95906088Y-42637388D01*
X95836938Y-42508017D01*
X95743877Y-42394623D01*
X95630483Y-42301562D01*
X95501112Y-42232412D01*
X95360736Y-42189829D01*
X95214750Y-42175451D01*
X94913517Y-42175451D01*
X94655984Y-41917918D01*
X94635564Y-41893036D01*
X94536284Y-41811559D01*
X94423017Y-41751017D01*
X94300114Y-41713735D01*
X94204322Y-41704300D01*
X94172300Y-41701146D01*
X94140278Y-41704300D01*
X92995622Y-41704300D01*
X92963600Y-41701146D01*
X92835785Y-41713735D01*
X92796639Y-41725610D01*
X92712883Y-41751017D01*
X92599616Y-41811559D01*
X92500336Y-41893036D01*
X92479920Y-41917913D01*
X91127619Y-43270215D01*
X91102736Y-43290636D01*
X91021259Y-43389917D01*
X90981693Y-43463941D01*
X90960717Y-43503184D01*
X90923435Y-43626086D01*
X90910846Y-43753900D01*
X90914000Y-43785922D01*
X90914000Y-44368714D01*
X90850131Y-44421131D01*
X90759402Y-44531684D01*
X90741000Y-44566112D01*
X90722598Y-44531684D01*
X90631869Y-44421131D01*
X90521316Y-44330402D01*
X90395186Y-44262985D01*
X90258328Y-44221469D01*
X90116000Y-44207451D01*
X89716000Y-44207451D01*
X89573672Y-44221469D01*
X89436814Y-44262985D01*
X89310684Y-44330402D01*
X89200131Y-44421131D01*
X89109402Y-44531684D01*
X89041985Y-44657814D01*
X89000469Y-44794672D01*
X88986451Y-44937000D01*
X88986451Y-45323000D01*
X87901285Y-45323000D01*
X87848869Y-45259131D01*
X87738316Y-45168402D01*
X87612186Y-45100985D01*
X87475328Y-45059469D01*
X87333000Y-45045451D01*
X86783000Y-45045451D01*
X86640672Y-45059469D01*
X86503814Y-45100985D01*
X86377684Y-45168402D01*
X86267131Y-45259131D01*
X86176402Y-45369684D01*
X86108985Y-45495814D01*
X86067469Y-45632672D01*
X86053451Y-45775000D01*
X86053451Y-46175000D01*
X86067469Y-46317328D01*
X86108985Y-46454186D01*
X86176402Y-46580316D01*
X86257404Y-46679017D01*
X86228506Y-46694463D01*
X86131815Y-46773815D01*
X86052463Y-46870506D01*
X85993498Y-46980820D01*
X85957188Y-47100518D01*
X85944928Y-47225000D01*
X85948000Y-47339250D01*
X86106750Y-47498000D01*
X86931000Y-47498000D01*
X86931000Y-47478000D01*
X87185000Y-47478000D01*
X87185000Y-47498000D01*
X88009250Y-47498000D01*
X88168000Y-47339250D01*
X88171072Y-47225000D01*
X88158812Y-47100518D01*
X88122502Y-46980820D01*
X88063537Y-46870506D01*
X87984185Y-46773815D01*
X87887494Y-46694463D01*
X87858596Y-46679017D01*
X87901285Y-46627000D01*
X89190934Y-46627000D01*
X89645843Y-47081909D01*
X89559430Y-47117703D01*
X89348310Y-47258768D01*
X89168768Y-47438310D01*
X89027703Y-47649430D01*
X88930535Y-47884013D01*
X88881000Y-48133045D01*
X88881000Y-48386955D01*
X88914267Y-48554200D01*
X88794899Y-48554200D01*
X88615804Y-48589824D01*
X88447101Y-48659704D01*
X88295272Y-48761152D01*
X88166152Y-48890272D01*
X88064704Y-49042101D01*
X88062549Y-49047304D01*
X88062549Y-49013500D01*
X88048531Y-48871172D01*
X88007015Y-48734314D01*
X87939598Y-48608184D01*
X87892811Y-48551174D01*
X87984185Y-48476185D01*
X88063537Y-48379494D01*
X88122502Y-48269180D01*
X88158812Y-48149482D01*
X88171072Y-48025000D01*
X88168000Y-47910750D01*
X88009250Y-47752000D01*
X87185000Y-47752000D01*
X87185000Y-47772000D01*
X86931000Y-47772000D01*
X86931000Y-47752000D01*
X86106750Y-47752000D01*
X86085408Y-47773342D01*
X85892382Y-47580315D01*
X85931000Y-47386167D01*
X85931000Y-47133833D01*
X85881772Y-46886346D01*
X85785207Y-46653219D01*
X85645018Y-46443410D01*
X85466590Y-46264982D01*
X85256781Y-46124793D01*
X85118620Y-46067564D01*
X85250229Y-46020063D01*
X85364235Y-45959127D01*
X85430246Y-45719851D01*
X84650000Y-44939605D01*
X84635858Y-44953748D01*
X84456253Y-44774143D01*
X84470395Y-44760000D01*
X84829605Y-44760000D01*
X85609851Y-45540246D01*
X85849127Y-45474235D01*
X85965426Y-45226574D01*
X86031174Y-44960982D01*
X86043845Y-44687666D01*
X86002951Y-44417130D01*
X85910063Y-44159771D01*
X85849127Y-44045765D01*
X85609851Y-43979754D01*
X84829605Y-44760000D01*
X84470395Y-44760000D01*
X84456253Y-44745858D01*
X84635858Y-44566253D01*
X84650000Y-44580395D01*
X85430246Y-43800149D01*
X85364235Y-43560873D01*
X85116574Y-43444574D01*
X84850982Y-43378826D01*
X84577666Y-43366155D01*
X84500063Y-43377885D01*
X84590823Y-43244702D01*
X84700319Y-42987034D01*
X84717008Y-42907076D01*
X84594852Y-42687000D01*
X82677000Y-42687000D01*
X82677000Y-43982500D01*
X83464500Y-43982500D01*
X83656517Y-43946125D01*
X83690147Y-43979755D01*
X83450873Y-44045765D01*
X83334574Y-44293426D01*
X83268826Y-44559018D01*
X83256155Y-44832334D01*
X83297049Y-45102870D01*
X83311171Y-45141997D01*
X83284357Y-45115183D01*
X83095677Y-44989111D01*
X82886026Y-44902271D01*
X82663462Y-44858000D01*
X82436538Y-44858000D01*
X82213974Y-44902271D01*
X82004323Y-44989111D01*
X81815643Y-45115183D01*
X81655183Y-45275643D01*
X81529111Y-45464323D01*
X81442271Y-45673974D01*
X81398000Y-45896538D01*
X81398000Y-46123462D01*
X81442271Y-46346026D01*
X81529111Y-46555677D01*
X81655183Y-46744357D01*
X81815643Y-46904817D01*
X82004323Y-47030889D01*
X82213974Y-47117729D01*
X82436538Y-47162000D01*
X82663462Y-47162000D01*
X82886026Y-47117729D01*
X83095677Y-47030889D01*
X83284357Y-46904817D01*
X83444817Y-46744357D01*
X83570889Y-46555677D01*
X83657729Y-46346026D01*
X83702000Y-46123462D01*
X83702000Y-45896538D01*
X83674299Y-45757277D01*
X83753315Y-45836293D01*
X83869755Y-45719853D01*
X83935765Y-45959127D01*
X84173572Y-46070799D01*
X84043219Y-46124793D01*
X83833410Y-46264982D01*
X83654982Y-46443410D01*
X83514793Y-46653219D01*
X83418228Y-46886346D01*
X83369000Y-47133833D01*
X83369000Y-47386167D01*
X83418228Y-47633654D01*
X83514793Y-47866781D01*
X83654982Y-48076590D01*
X83833410Y-48255018D01*
X83840866Y-48260000D01*
X83833410Y-48264982D01*
X83654982Y-48443410D01*
X83514793Y-48653219D01*
X83418228Y-48886346D01*
X83369000Y-49133833D01*
X83369000Y-49386167D01*
X83418228Y-49633654D01*
X83514793Y-49866781D01*
X83654982Y-50076590D01*
X83833410Y-50255018D01*
X84043219Y-50395207D01*
X84239358Y-50476451D01*
X83896000Y-50476451D01*
X83792690Y-50486626D01*
X83702000Y-50514137D01*
X83702000Y-50396538D01*
X83657729Y-50173974D01*
X83570889Y-49964323D01*
X83444817Y-49775643D01*
X83284357Y-49615183D01*
X83095677Y-49489111D01*
X82886026Y-49402271D01*
X82663462Y-49358000D01*
X82436538Y-49358000D01*
X82213974Y-49402271D01*
X82004323Y-49489111D01*
X81815643Y-49615183D01*
X81655183Y-49775643D01*
X81529111Y-49964323D01*
X81442271Y-50173974D01*
X81398000Y-50396538D01*
X81398000Y-50623462D01*
X81442271Y-50846026D01*
X81529111Y-51055677D01*
X81655183Y-51244357D01*
X81815643Y-51404817D01*
X82004323Y-51530889D01*
X82213974Y-51617729D01*
X82436538Y-51662000D01*
X82663462Y-51662000D01*
X82886026Y-51617729D01*
X83095677Y-51530889D01*
X83284357Y-51404817D01*
X83366451Y-51322723D01*
X83366451Y-52514000D01*
X83368766Y-52537500D01*
X82677000Y-52537500D01*
X82677000Y-53833000D01*
X84594852Y-53833000D01*
X84717008Y-53612924D01*
X84700319Y-53532966D01*
X84590823Y-53275298D01*
X84433162Y-53043943D01*
X84432761Y-53043549D01*
X85404000Y-53043549D01*
X85507310Y-53033374D01*
X85606650Y-53003239D01*
X85698202Y-52954304D01*
X85778448Y-52888448D01*
X85844304Y-52808202D01*
X85893239Y-52716650D01*
X85923374Y-52617310D01*
X85933549Y-52514000D01*
X85933549Y-52313115D01*
X86053451Y-52433017D01*
X86053451Y-52715500D01*
X86067469Y-52857828D01*
X86108985Y-52994686D01*
X86176402Y-53120816D01*
X86267131Y-53231369D01*
X86377684Y-53322098D01*
X86412112Y-53340500D01*
X86377684Y-53358902D01*
X86267131Y-53449631D01*
X86176402Y-53560184D01*
X86108985Y-53686314D01*
X86067469Y-53823172D01*
X86053451Y-53965500D01*
X86053451Y-54365500D01*
X86067469Y-54507828D01*
X86108985Y-54644686D01*
X86176402Y-54770816D01*
X86216766Y-54820000D01*
X84471363Y-54820000D01*
X84590823Y-54644702D01*
X84700319Y-54387034D01*
X84717008Y-54307076D01*
X84594852Y-54087000D01*
X82677000Y-54087000D01*
X82677000Y-54107000D01*
X82423000Y-54107000D01*
X82423000Y-54087000D01*
X80505148Y-54087000D01*
X80382992Y-54307076D01*
X80399681Y-54387034D01*
X80509177Y-54644702D01*
X80628637Y-54820000D01*
X80308000Y-54820000D01*
X80308000Y-53612924D01*
X80382992Y-53612924D01*
X80505148Y-53833000D01*
X82423000Y-53833000D01*
X82423000Y-52537500D01*
X81635500Y-52537500D01*
X81360424Y-52589609D01*
X81100800Y-52694382D01*
X80866605Y-52847792D01*
X80666838Y-53043943D01*
X80509177Y-53275298D01*
X80399681Y-53532966D01*
X80382992Y-53612924D01*
X80308000Y-53612924D01*
X80308000Y-42907076D01*
X80382992Y-42907076D01*
X80399681Y-42987034D01*
X80509177Y-43244702D01*
X80666838Y-43476057D01*
X80866605Y-43672208D01*
X81100800Y-43825618D01*
X81360424Y-43930391D01*
X81635500Y-43982500D01*
X82423000Y-43982500D01*
X82423000Y-42687000D01*
X80505148Y-42687000D01*
X80382992Y-42907076D01*
X80308000Y-42907076D01*
X80308000Y-41700000D01*
X80628637Y-41700000D01*
X80509177Y-41875298D01*
X80399681Y-42132966D01*
X80382992Y-42212924D01*
X80505148Y-42433000D01*
X82423000Y-42433000D01*
X82423000Y-42413000D01*
X82677000Y-42413000D01*
X82677000Y-42433000D01*
X84594852Y-42433000D01*
X84717008Y-42212924D01*
X84700319Y-42132966D01*
X84590823Y-41875298D01*
X84471363Y-41700000D01*
X86332891Y-41700000D01*
X86360000Y-41702670D01*
X86387108Y-41700000D01*
X86387109Y-41700000D01*
X86468211Y-41692012D01*
X86572263Y-41660448D01*
X86668158Y-41609191D01*
X86752211Y-41540211D01*
X86821191Y-41456158D01*
X86872448Y-41360263D01*
X86904012Y-41256211D01*
X86914670Y-41148000D01*
X86912000Y-41120891D01*
X86912000Y-40216000D01*
X87326928Y-40216000D01*
X87339188Y-40340482D01*
X87375498Y-40460180D01*
X87434463Y-40570494D01*
X87513815Y-40667185D01*
X87610506Y-40746537D01*
X87720820Y-40805502D01*
X87840518Y-40841812D01*
X87965000Y-40854072D01*
X88204250Y-40851000D01*
X88363000Y-40692250D01*
X88363000Y-39243000D01*
X88617000Y-39243000D01*
X88617000Y-40692250D01*
X88775750Y-40851000D01*
X88935451Y-40853051D01*
X88935451Y-41116000D01*
X88945626Y-41219310D01*
X88975761Y-41318650D01*
X89024696Y-41410202D01*
X89090552Y-41490448D01*
X89170798Y-41556304D01*
X89262350Y-41605239D01*
X89361690Y-41635374D01*
X89465000Y-41645549D01*
X90465000Y-41645549D01*
X90568310Y-41635374D01*
X90667650Y-41605239D01*
X90759202Y-41556304D01*
X90839448Y-41490448D01*
X90905304Y-41410202D01*
X90941331Y-41342800D01*
X92571724Y-41342800D01*
X92639772Y-41410848D01*
X92791601Y-41512296D01*
X92960304Y-41582176D01*
X93139399Y-41617800D01*
X93322001Y-41617800D01*
X93501096Y-41582176D01*
X93669799Y-41512296D01*
X93821628Y-41410848D01*
X93847935Y-41384541D01*
X94989864Y-41384541D01*
X95012719Y-41587836D01*
X95199884Y-41668677D01*
X95399223Y-41711451D01*
X95603077Y-41714513D01*
X95803612Y-41677747D01*
X95993120Y-41602566D01*
X96020681Y-41587836D01*
X96043536Y-41384541D01*
X95516700Y-40857705D01*
X94989864Y-41384541D01*
X93847935Y-41384541D01*
X93950748Y-41281728D01*
X94052196Y-41129899D01*
X94122076Y-40961196D01*
X94157700Y-40782101D01*
X94157700Y-40764477D01*
X94480287Y-40764477D01*
X94517053Y-40965012D01*
X94592234Y-41154520D01*
X94606964Y-41182081D01*
X94810259Y-41204936D01*
X95337095Y-40678100D01*
X95696305Y-40678100D01*
X96223141Y-41204936D01*
X96426436Y-41182081D01*
X96507277Y-40994916D01*
X96550051Y-40795577D01*
X96553113Y-40591723D01*
X96516347Y-40391188D01*
X96441166Y-40201680D01*
X96426436Y-40174119D01*
X96223141Y-40151264D01*
X95696305Y-40678100D01*
X95337095Y-40678100D01*
X94810259Y-40151264D01*
X94606964Y-40174119D01*
X94526123Y-40361284D01*
X94483349Y-40560623D01*
X94480287Y-40764477D01*
X94157700Y-40764477D01*
X94157700Y-40599499D01*
X94122076Y-40420404D01*
X94052196Y-40251701D01*
X93950748Y-40099872D01*
X93822535Y-39971659D01*
X94989864Y-39971659D01*
X95516700Y-40498495D01*
X96043536Y-39971659D01*
X96020681Y-39768364D01*
X95833516Y-39687523D01*
X95634177Y-39644749D01*
X95430323Y-39641687D01*
X95229788Y-39678453D01*
X95040280Y-39753634D01*
X95012719Y-39768364D01*
X94989864Y-39971659D01*
X93822535Y-39971659D01*
X93821628Y-39970752D01*
X93669799Y-39869304D01*
X93501096Y-39799424D01*
X93322001Y-39763800D01*
X93139399Y-39763800D01*
X92960304Y-39799424D01*
X92791601Y-39869304D01*
X92639772Y-39970752D01*
X92602288Y-40008236D01*
X92600000Y-39401750D01*
X92441250Y-39243000D01*
X91567000Y-39243000D01*
X91567000Y-39263000D01*
X91313000Y-39263000D01*
X91313000Y-39243000D01*
X90438750Y-39243000D01*
X90280000Y-39401750D01*
X90279303Y-39586451D01*
X89650697Y-39586451D01*
X89650000Y-39401750D01*
X89491250Y-39243000D01*
X88617000Y-39243000D01*
X88363000Y-39243000D01*
X87488750Y-39243000D01*
X87330000Y-39401750D01*
X87326928Y-40216000D01*
X86912000Y-40216000D01*
X86912000Y-38016000D01*
X87326928Y-38016000D01*
X87330000Y-38830250D01*
X87488750Y-38989000D01*
X88363000Y-38989000D01*
X88363000Y-37539750D01*
X88204250Y-37381000D01*
X87965000Y-37377928D01*
X87840518Y-37390188D01*
X87720820Y-37426498D01*
X87610506Y-37485463D01*
X87513815Y-37564815D01*
X87434463Y-37661506D01*
X87375498Y-37771820D01*
X87339188Y-37891518D01*
X87326928Y-38016000D01*
X86912000Y-38016000D01*
X86912000Y-37618994D01*
X86923433Y-37502390D01*
X86949457Y-37416193D01*
X86991729Y-37336692D01*
X87048639Y-37266914D01*
X87118013Y-37209522D01*
X87197220Y-37166695D01*
X87283232Y-37140070D01*
X87398074Y-37128000D01*
X88827100Y-37128000D01*
X88830000Y-37330250D01*
G04 #@! TA.AperFunction,Conductor*
D26*
G36*
X88830000Y-37330250D02*
G01*
X88879419Y-37379669D01*
X88775750Y-37381000D01*
X88617000Y-37539750D01*
X88617000Y-38989000D01*
X89491250Y-38989000D01*
X89650000Y-38830250D01*
X89650297Y-38751415D01*
X89679250Y-38751000D01*
X89838000Y-38592250D01*
X89838000Y-37743000D01*
X89818000Y-37743000D01*
X89818000Y-37489000D01*
X89838000Y-37489000D01*
X89838000Y-37469000D01*
X90092000Y-37469000D01*
X90092000Y-37489000D01*
X90112000Y-37489000D01*
X90112000Y-37743000D01*
X90092000Y-37743000D01*
X90092000Y-38592250D01*
X90250750Y-38751000D01*
X90279703Y-38751415D01*
X90280000Y-38830250D01*
X90438750Y-38989000D01*
X91313000Y-38989000D01*
X91313000Y-37539750D01*
X91567000Y-37539750D01*
X91567000Y-38989000D01*
X92441250Y-38989000D01*
X92600000Y-38830250D01*
X92603072Y-38016000D01*
X92590812Y-37891518D01*
X92554502Y-37771820D01*
X92495537Y-37661506D01*
X92416185Y-37564815D01*
X92319494Y-37485463D01*
X92209180Y-37426498D01*
X92089482Y-37390188D01*
X91965000Y-37377928D01*
X91725750Y-37381000D01*
X91567000Y-37539750D01*
X91313000Y-37539750D01*
X91154250Y-37381000D01*
X91050581Y-37379669D01*
X91100000Y-37330250D01*
X91102900Y-37128000D01*
X96634627Y-37128000D01*
X96620469Y-37174672D01*
X96606451Y-37317000D01*
X96606451Y-37867000D01*
X96620469Y-38009328D01*
X96661985Y-38146186D01*
X96729402Y-38272316D01*
X96820131Y-38382869D01*
X96930684Y-38473598D01*
X97056814Y-38541015D01*
X97193672Y-38582531D01*
X97336000Y-38596549D01*
X97618483Y-38596549D01*
X100890235Y-41868302D01*
X100779901Y-41914004D01*
X100628072Y-42015452D01*
X100498952Y-42144572D01*
X100397504Y-42296401D01*
X100327624Y-42465104D01*
X100292000Y-42644199D01*
X100292000Y-42826801D01*
X100327624Y-43005896D01*
X100397504Y-43174599D01*
X100498952Y-43326428D01*
X100628072Y-43455548D01*
X100779901Y-43556996D01*
X100948604Y-43626876D01*
X100986360Y-43634386D01*
X100977928Y-43720000D01*
X100981000Y-44434250D01*
X101139750Y-44593000D01*
X102489000Y-44593000D01*
X102489000Y-44573000D01*
X102743000Y-44573000D01*
X102743000Y-44593000D01*
X104092250Y-44593000D01*
X104251000Y-44434250D01*
X104254072Y-43720000D01*
X104241812Y-43595518D01*
X104205502Y-43475820D01*
X104146537Y-43365506D01*
X104067185Y-43268815D01*
X104036582Y-43243700D01*
X107641900Y-43243700D01*
X107597682Y-43326428D01*
X107590917Y-43339084D01*
X107553635Y-43461986D01*
X107541046Y-43589800D01*
X107544200Y-43621823D01*
X107544201Y-44537268D01*
X107541046Y-44569300D01*
X107553635Y-44697114D01*
X107590917Y-44820016D01*
X107605629Y-44847540D01*
X107651460Y-44933284D01*
X107732937Y-45032564D01*
X107757814Y-45052980D01*
X108209919Y-45505086D01*
X108230336Y-45529964D01*
X108329616Y-45611441D01*
X108442883Y-45671983D01*
X108565785Y-45709265D01*
X108693600Y-45721854D01*
X108725622Y-45718700D01*
X109379678Y-45718700D01*
X109411700Y-45721854D01*
X109443722Y-45718700D01*
X109539514Y-45709265D01*
X109662417Y-45671983D01*
X109775684Y-45611441D01*
X109874964Y-45529964D01*
X109895385Y-45505081D01*
X110633000Y-44767467D01*
X110633000Y-44847002D01*
X110791748Y-44847002D01*
X110633000Y-45005750D01*
X110629928Y-45720000D01*
X110642188Y-45844482D01*
X110646061Y-45857251D01*
X110621000Y-45857251D01*
X110478672Y-45871269D01*
X110341814Y-45912785D01*
X110215684Y-45980202D01*
X110105131Y-46070931D01*
X110052715Y-46134800D01*
X104097045Y-46134800D01*
X104146537Y-46074494D01*
X104205502Y-45964180D01*
X104241812Y-45844482D01*
X104254072Y-45720000D01*
X104251000Y-45005750D01*
X104092250Y-44847000D01*
X102743000Y-44847000D01*
X102743000Y-46196250D01*
X102901750Y-46355000D01*
X103346221Y-46356912D01*
X101001719Y-48701415D01*
X100976836Y-48721836D01*
X100895359Y-48821117D01*
X100835992Y-48932185D01*
X100834817Y-48934384D01*
X100797535Y-49057286D01*
X100784946Y-49185100D01*
X100788100Y-49217122D01*
X100788100Y-49414612D01*
X100785196Y-49407601D01*
X100683748Y-49255772D01*
X100554628Y-49126652D01*
X100402799Y-49025204D01*
X100234096Y-48955324D01*
X100055001Y-48919700D01*
X99958767Y-48919700D01*
X99078000Y-48038934D01*
X99078000Y-47579285D01*
X99141869Y-47526869D01*
X99232598Y-47416316D01*
X99251000Y-47381888D01*
X99269402Y-47416316D01*
X99360131Y-47526869D01*
X99470684Y-47617598D01*
X99596814Y-47685015D01*
X99733672Y-47726531D01*
X99876000Y-47740549D01*
X100276000Y-47740549D01*
X100418328Y-47726531D01*
X100555186Y-47685015D01*
X100681316Y-47617598D01*
X100791869Y-47526869D01*
X100882598Y-47416316D01*
X100950015Y-47290186D01*
X100991531Y-47153328D01*
X101005549Y-47011000D01*
X101005549Y-46461000D01*
X100991531Y-46318672D01*
X100950015Y-46181814D01*
X100882598Y-46055684D01*
X100791869Y-45945131D01*
X100681316Y-45854402D01*
X100555186Y-45786985D01*
X100418328Y-45745469D01*
X100276000Y-45731451D01*
X99993518Y-45731451D01*
X99982067Y-45720000D01*
X100977928Y-45720000D01*
X100990188Y-45844482D01*
X101026498Y-45964180D01*
X101085463Y-46074494D01*
X101164815Y-46171185D01*
X101261506Y-46250537D01*
X101371820Y-46309502D01*
X101491518Y-46345812D01*
X101616000Y-46358072D01*
X102330250Y-46355000D01*
X102489000Y-46196250D01*
X102489000Y-44847000D01*
X101139750Y-44847000D01*
X100981000Y-45005750D01*
X100977928Y-45720000D01*
X99982067Y-45720000D01*
X99204000Y-44941934D01*
X99204000Y-44044062D01*
X99299877Y-43965377D01*
X99392938Y-43851983D01*
X99462088Y-43722612D01*
X99504671Y-43582236D01*
X99519049Y-43436250D01*
X99519049Y-42923750D01*
X99504671Y-42777764D01*
X99462088Y-42637388D01*
X99392938Y-42508017D01*
X99299877Y-42394623D01*
X99186483Y-42301562D01*
X99057112Y-42232412D01*
X98916736Y-42189829D01*
X98770750Y-42175451D01*
X98333250Y-42175451D01*
X98187264Y-42189829D01*
X98046888Y-42232412D01*
X97917517Y-42301562D01*
X97909960Y-42307764D01*
X97865685Y-42253815D01*
X97768994Y-42174463D01*
X97658680Y-42115498D01*
X97538982Y-42079188D01*
X97414500Y-42066928D01*
X97262750Y-42070000D01*
X97104000Y-42228750D01*
X97104000Y-43053000D01*
X97124000Y-43053000D01*
X97124000Y-43307000D01*
X97104000Y-43307000D01*
X97104000Y-44131250D01*
X97262750Y-44290000D01*
X97414500Y-44293072D01*
X97538982Y-44280812D01*
X97658680Y-44244502D01*
X97768994Y-44185537D01*
X97865685Y-44106185D01*
X97900001Y-44064371D01*
X97900000Y-44554258D01*
X97787553Y-44554258D01*
X97608458Y-44589882D01*
X97439755Y-44659762D01*
X97341254Y-44725578D01*
X97298528Y-44682852D01*
X97146699Y-44581404D01*
X96977996Y-44511524D01*
X96798901Y-44475900D01*
X96616299Y-44475900D01*
X96437204Y-44511524D01*
X96268501Y-44581404D01*
X96116672Y-44682852D01*
X95987552Y-44811972D01*
X95886104Y-44963801D01*
X95816224Y-45132504D01*
X95780600Y-45311599D01*
X95780600Y-45481474D01*
X95774494Y-45476463D01*
X95664180Y-45417498D01*
X95544482Y-45381188D01*
X95420000Y-45368928D01*
X95255750Y-45372000D01*
X95097000Y-45530750D01*
X95097000Y-46355000D01*
X95117000Y-46355000D01*
X95117000Y-46609000D01*
X95097000Y-46609000D01*
X95097000Y-47879000D01*
X95117000Y-47879000D01*
X95117000Y-48133000D01*
X95097000Y-48133000D01*
X95097000Y-48153000D01*
X94843000Y-48153000D01*
X94843000Y-48133000D01*
X94043750Y-48133000D01*
X93885000Y-48291750D01*
X93881928Y-48481000D01*
X93894188Y-48605482D01*
X93930498Y-48725180D01*
X93989463Y-48835494D01*
X94068815Y-48932185D01*
X94085283Y-48945700D01*
X93353767Y-48945700D01*
X91365067Y-46957000D01*
X93881928Y-46957000D01*
X93894188Y-47081482D01*
X93930498Y-47201180D01*
X93953386Y-47244000D01*
X93930498Y-47286820D01*
X93894188Y-47406518D01*
X93881928Y-47531000D01*
X93885000Y-47720250D01*
X94043750Y-47879000D01*
X94843000Y-47879000D01*
X94843000Y-46609000D01*
X94043750Y-46609000D01*
X93885000Y-46767750D01*
X93881928Y-46957000D01*
X91365067Y-46957000D01*
X91094266Y-46686200D01*
X92797678Y-46686200D01*
X92829700Y-46689354D01*
X92861722Y-46686200D01*
X92957514Y-46676765D01*
X93080417Y-46639483D01*
X93193684Y-46578941D01*
X93292964Y-46497464D01*
X93313384Y-46472582D01*
X93510166Y-46275800D01*
X93606401Y-46275800D01*
X93785496Y-46240176D01*
X93886916Y-46198166D01*
X94043750Y-46355000D01*
X94843000Y-46355000D01*
X94843000Y-45530750D01*
X94684250Y-45372000D01*
X94520000Y-45368928D01*
X94442100Y-45376600D01*
X94442100Y-45257499D01*
X94406476Y-45078404D01*
X94336596Y-44909701D01*
X94235148Y-44757872D01*
X94106028Y-44628752D01*
X93954199Y-44527304D01*
X93785496Y-44457424D01*
X93606401Y-44421800D01*
X93423799Y-44421800D01*
X93244704Y-44457424D01*
X93076001Y-44527304D01*
X92924172Y-44628752D01*
X92795052Y-44757872D01*
X92693604Y-44909701D01*
X92623724Y-45078404D01*
X92588100Y-45257499D01*
X92588100Y-45353734D01*
X92559634Y-45382200D01*
X92495549Y-45382200D01*
X92495549Y-44937000D01*
X92481531Y-44794672D01*
X92440015Y-44657814D01*
X92372598Y-44531684D01*
X92281869Y-44421131D01*
X92218000Y-44368715D01*
X92218000Y-44023966D01*
X92382079Y-43859888D01*
X92393998Y-43899180D01*
X92452963Y-44009494D01*
X92532315Y-44106185D01*
X92629006Y-44185537D01*
X92739320Y-44244502D01*
X92859018Y-44280812D01*
X92983500Y-44293072D01*
X93135250Y-44290000D01*
X93294000Y-44131250D01*
X93294000Y-43307000D01*
X93274000Y-43307000D01*
X93274000Y-43053000D01*
X93294000Y-43053000D01*
X93294000Y-43033000D01*
X93548000Y-43033000D01*
X93548000Y-43053000D01*
X93568000Y-43053000D01*
X93568000Y-43307000D01*
X93548000Y-43307000D01*
X93548000Y-44131250D01*
X93706750Y-44290000D01*
X93858500Y-44293072D01*
X93982982Y-44280812D01*
X94102680Y-44244502D01*
X94212994Y-44185537D01*
X94309685Y-44106185D01*
X94353960Y-44052236D01*
X94361517Y-44058438D01*
X94490888Y-44127588D01*
X94631264Y-44170171D01*
X94777250Y-44184549D01*
X95214750Y-44184549D01*
X95360736Y-44170171D01*
X95501112Y-44127588D01*
X95630483Y-44058438D01*
X95743877Y-43965377D01*
X95836938Y-43851983D01*
X95906088Y-43722612D01*
X95907597Y-43717637D01*
X95913688Y-43779482D01*
X95949998Y-43899180D01*
X96008963Y-44009494D01*
X96088315Y-44106185D01*
X96185006Y-44185537D01*
X96295320Y-44244502D01*
X96415018Y-44280812D01*
X96539500Y-44293072D01*
X96691250Y-44290000D01*
X96850000Y-44131250D01*
X96850000Y-43307000D01*
X96830000Y-43307000D01*
X96830000Y-43053000D01*
X96850000Y-43053000D01*
X96850000Y-42228750D01*
X96691250Y-42070000D01*
X96539500Y-42066928D01*
X96415018Y-42079188D01*
X96295320Y-42115498D01*
X96185006Y-42174463D01*
X96088315Y-42253815D01*
X96008963Y-42350506D01*
X95949998Y-42460820D01*
X95913688Y-42580518D01*
X95907597Y-42642363D01*
X95906088Y-42637388D01*
X95836938Y-42508017D01*
X95743877Y-42394623D01*
X95630483Y-42301562D01*
X95501112Y-42232412D01*
X95360736Y-42189829D01*
X95214750Y-42175451D01*
X94913517Y-42175451D01*
X94655984Y-41917918D01*
X94635564Y-41893036D01*
X94536284Y-41811559D01*
X94423017Y-41751017D01*
X94300114Y-41713735D01*
X94204322Y-41704300D01*
X94172300Y-41701146D01*
X94140278Y-41704300D01*
X92995622Y-41704300D01*
X92963600Y-41701146D01*
X92835785Y-41713735D01*
X92796639Y-41725610D01*
X92712883Y-41751017D01*
X92599616Y-41811559D01*
X92500336Y-41893036D01*
X92479920Y-41917913D01*
X91127619Y-43270215D01*
X91102736Y-43290636D01*
X91021259Y-43389917D01*
X90981693Y-43463941D01*
X90960717Y-43503184D01*
X90923435Y-43626086D01*
X90910846Y-43753900D01*
X90914000Y-43785922D01*
X90914000Y-44368714D01*
X90850131Y-44421131D01*
X90759402Y-44531684D01*
X90741000Y-44566112D01*
X90722598Y-44531684D01*
X90631869Y-44421131D01*
X90521316Y-44330402D01*
X90395186Y-44262985D01*
X90258328Y-44221469D01*
X90116000Y-44207451D01*
X89716000Y-44207451D01*
X89573672Y-44221469D01*
X89436814Y-44262985D01*
X89310684Y-44330402D01*
X89200131Y-44421131D01*
X89109402Y-44531684D01*
X89041985Y-44657814D01*
X89000469Y-44794672D01*
X88986451Y-44937000D01*
X88986451Y-45323000D01*
X87901285Y-45323000D01*
X87848869Y-45259131D01*
X87738316Y-45168402D01*
X87612186Y-45100985D01*
X87475328Y-45059469D01*
X87333000Y-45045451D01*
X86783000Y-45045451D01*
X86640672Y-45059469D01*
X86503814Y-45100985D01*
X86377684Y-45168402D01*
X86267131Y-45259131D01*
X86176402Y-45369684D01*
X86108985Y-45495814D01*
X86067469Y-45632672D01*
X86053451Y-45775000D01*
X86053451Y-46175000D01*
X86067469Y-46317328D01*
X86108985Y-46454186D01*
X86176402Y-46580316D01*
X86257404Y-46679017D01*
X86228506Y-46694463D01*
X86131815Y-46773815D01*
X86052463Y-46870506D01*
X85993498Y-46980820D01*
X85957188Y-47100518D01*
X85944928Y-47225000D01*
X85948000Y-47339250D01*
X86106750Y-47498000D01*
X86931000Y-47498000D01*
X86931000Y-47478000D01*
X87185000Y-47478000D01*
X87185000Y-47498000D01*
X88009250Y-47498000D01*
X88168000Y-47339250D01*
X88171072Y-47225000D01*
X88158812Y-47100518D01*
X88122502Y-46980820D01*
X88063537Y-46870506D01*
X87984185Y-46773815D01*
X87887494Y-46694463D01*
X87858596Y-46679017D01*
X87901285Y-46627000D01*
X89190934Y-46627000D01*
X89645843Y-47081909D01*
X89559430Y-47117703D01*
X89348310Y-47258768D01*
X89168768Y-47438310D01*
X89027703Y-47649430D01*
X88930535Y-47884013D01*
X88881000Y-48133045D01*
X88881000Y-48386955D01*
X88914267Y-48554200D01*
X88794899Y-48554200D01*
X88615804Y-48589824D01*
X88447101Y-48659704D01*
X88295272Y-48761152D01*
X88166152Y-48890272D01*
X88064704Y-49042101D01*
X88062549Y-49047304D01*
X88062549Y-49013500D01*
X88048531Y-48871172D01*
X88007015Y-48734314D01*
X87939598Y-48608184D01*
X87892811Y-48551174D01*
X87984185Y-48476185D01*
X88063537Y-48379494D01*
X88122502Y-48269180D01*
X88158812Y-48149482D01*
X88171072Y-48025000D01*
X88168000Y-47910750D01*
X88009250Y-47752000D01*
X87185000Y-47752000D01*
X87185000Y-47772000D01*
X86931000Y-47772000D01*
X86931000Y-47752000D01*
X86106750Y-47752000D01*
X86085408Y-47773342D01*
X85892382Y-47580315D01*
X85931000Y-47386167D01*
X85931000Y-47133833D01*
X85881772Y-46886346D01*
X85785207Y-46653219D01*
X85645018Y-46443410D01*
X85466590Y-46264982D01*
X85256781Y-46124793D01*
X85118620Y-46067564D01*
X85250229Y-46020063D01*
X85364235Y-45959127D01*
X85430246Y-45719851D01*
X84650000Y-44939605D01*
X84635858Y-44953748D01*
X84456253Y-44774143D01*
X84470395Y-44760000D01*
X84829605Y-44760000D01*
X85609851Y-45540246D01*
X85849127Y-45474235D01*
X85965426Y-45226574D01*
X86031174Y-44960982D01*
X86043845Y-44687666D01*
X86002951Y-44417130D01*
X85910063Y-44159771D01*
X85849127Y-44045765D01*
X85609851Y-43979754D01*
X84829605Y-44760000D01*
X84470395Y-44760000D01*
X84456253Y-44745858D01*
X84635858Y-44566253D01*
X84650000Y-44580395D01*
X85430246Y-43800149D01*
X85364235Y-43560873D01*
X85116574Y-43444574D01*
X84850982Y-43378826D01*
X84577666Y-43366155D01*
X84500063Y-43377885D01*
X84590823Y-43244702D01*
X84700319Y-42987034D01*
X84717008Y-42907076D01*
X84594852Y-42687000D01*
X82677000Y-42687000D01*
X82677000Y-43982500D01*
X83464500Y-43982500D01*
X83656517Y-43946125D01*
X83690147Y-43979755D01*
X83450873Y-44045765D01*
X83334574Y-44293426D01*
X83268826Y-44559018D01*
X83256155Y-44832334D01*
X83297049Y-45102870D01*
X83311171Y-45141997D01*
X83284357Y-45115183D01*
X83095677Y-44989111D01*
X82886026Y-44902271D01*
X82663462Y-44858000D01*
X82436538Y-44858000D01*
X82213974Y-44902271D01*
X82004323Y-44989111D01*
X81815643Y-45115183D01*
X81655183Y-45275643D01*
X81529111Y-45464323D01*
X81442271Y-45673974D01*
X81398000Y-45896538D01*
X81398000Y-46123462D01*
X81442271Y-46346026D01*
X81529111Y-46555677D01*
X81655183Y-46744357D01*
X81815643Y-46904817D01*
X82004323Y-47030889D01*
X82213974Y-47117729D01*
X82436538Y-47162000D01*
X82663462Y-47162000D01*
X82886026Y-47117729D01*
X83095677Y-47030889D01*
X83284357Y-46904817D01*
X83444817Y-46744357D01*
X83570889Y-46555677D01*
X83657729Y-46346026D01*
X83702000Y-46123462D01*
X83702000Y-45896538D01*
X83674299Y-45757277D01*
X83753315Y-45836293D01*
X83869755Y-45719853D01*
X83935765Y-45959127D01*
X84173572Y-46070799D01*
X84043219Y-46124793D01*
X83833410Y-46264982D01*
X83654982Y-46443410D01*
X83514793Y-46653219D01*
X83418228Y-46886346D01*
X83369000Y-47133833D01*
X83369000Y-47386167D01*
X83418228Y-47633654D01*
X83514793Y-47866781D01*
X83654982Y-48076590D01*
X83833410Y-48255018D01*
X83840866Y-48260000D01*
X83833410Y-48264982D01*
X83654982Y-48443410D01*
X83514793Y-48653219D01*
X83418228Y-48886346D01*
X83369000Y-49133833D01*
X83369000Y-49386167D01*
X83418228Y-49633654D01*
X83514793Y-49866781D01*
X83654982Y-50076590D01*
X83833410Y-50255018D01*
X84043219Y-50395207D01*
X84239358Y-50476451D01*
X83896000Y-50476451D01*
X83792690Y-50486626D01*
X83702000Y-50514137D01*
X83702000Y-50396538D01*
X83657729Y-50173974D01*
X83570889Y-49964323D01*
X83444817Y-49775643D01*
X83284357Y-49615183D01*
X83095677Y-49489111D01*
X82886026Y-49402271D01*
X82663462Y-49358000D01*
X82436538Y-49358000D01*
X82213974Y-49402271D01*
X82004323Y-49489111D01*
X81815643Y-49615183D01*
X81655183Y-49775643D01*
X81529111Y-49964323D01*
X81442271Y-50173974D01*
X81398000Y-50396538D01*
X81398000Y-50623462D01*
X81442271Y-50846026D01*
X81529111Y-51055677D01*
X81655183Y-51244357D01*
X81815643Y-51404817D01*
X82004323Y-51530889D01*
X82213974Y-51617729D01*
X82436538Y-51662000D01*
X82663462Y-51662000D01*
X82886026Y-51617729D01*
X83095677Y-51530889D01*
X83284357Y-51404817D01*
X83366451Y-51322723D01*
X83366451Y-52514000D01*
X83368766Y-52537500D01*
X82677000Y-52537500D01*
X82677000Y-53833000D01*
X84594852Y-53833000D01*
X84717008Y-53612924D01*
X84700319Y-53532966D01*
X84590823Y-53275298D01*
X84433162Y-53043943D01*
X84432761Y-53043549D01*
X85404000Y-53043549D01*
X85507310Y-53033374D01*
X85606650Y-53003239D01*
X85698202Y-52954304D01*
X85778448Y-52888448D01*
X85844304Y-52808202D01*
X85893239Y-52716650D01*
X85923374Y-52617310D01*
X85933549Y-52514000D01*
X85933549Y-52313115D01*
X86053451Y-52433017D01*
X86053451Y-52715500D01*
X86067469Y-52857828D01*
X86108985Y-52994686D01*
X86176402Y-53120816D01*
X86267131Y-53231369D01*
X86377684Y-53322098D01*
X86412112Y-53340500D01*
X86377684Y-53358902D01*
X86267131Y-53449631D01*
X86176402Y-53560184D01*
X86108985Y-53686314D01*
X86067469Y-53823172D01*
X86053451Y-53965500D01*
X86053451Y-54365500D01*
X86067469Y-54507828D01*
X86108985Y-54644686D01*
X86176402Y-54770816D01*
X86216766Y-54820000D01*
X84471363Y-54820000D01*
X84590823Y-54644702D01*
X84700319Y-54387034D01*
X84717008Y-54307076D01*
X84594852Y-54087000D01*
X82677000Y-54087000D01*
X82677000Y-54107000D01*
X82423000Y-54107000D01*
X82423000Y-54087000D01*
X80505148Y-54087000D01*
X80382992Y-54307076D01*
X80399681Y-54387034D01*
X80509177Y-54644702D01*
X80628637Y-54820000D01*
X80308000Y-54820000D01*
X80308000Y-53612924D01*
X80382992Y-53612924D01*
X80505148Y-53833000D01*
X82423000Y-53833000D01*
X82423000Y-52537500D01*
X81635500Y-52537500D01*
X81360424Y-52589609D01*
X81100800Y-52694382D01*
X80866605Y-52847792D01*
X80666838Y-53043943D01*
X80509177Y-53275298D01*
X80399681Y-53532966D01*
X80382992Y-53612924D01*
X80308000Y-53612924D01*
X80308000Y-42907076D01*
X80382992Y-42907076D01*
X80399681Y-42987034D01*
X80509177Y-43244702D01*
X80666838Y-43476057D01*
X80866605Y-43672208D01*
X81100800Y-43825618D01*
X81360424Y-43930391D01*
X81635500Y-43982500D01*
X82423000Y-43982500D01*
X82423000Y-42687000D01*
X80505148Y-42687000D01*
X80382992Y-42907076D01*
X80308000Y-42907076D01*
X80308000Y-41700000D01*
X80628637Y-41700000D01*
X80509177Y-41875298D01*
X80399681Y-42132966D01*
X80382992Y-42212924D01*
X80505148Y-42433000D01*
X82423000Y-42433000D01*
X82423000Y-42413000D01*
X82677000Y-42413000D01*
X82677000Y-42433000D01*
X84594852Y-42433000D01*
X84717008Y-42212924D01*
X84700319Y-42132966D01*
X84590823Y-41875298D01*
X84471363Y-41700000D01*
X86332891Y-41700000D01*
X86360000Y-41702670D01*
X86387108Y-41700000D01*
X86387109Y-41700000D01*
X86468211Y-41692012D01*
X86572263Y-41660448D01*
X86668158Y-41609191D01*
X86752211Y-41540211D01*
X86821191Y-41456158D01*
X86872448Y-41360263D01*
X86904012Y-41256211D01*
X86914670Y-41148000D01*
X86912000Y-41120891D01*
X86912000Y-40216000D01*
X87326928Y-40216000D01*
X87339188Y-40340482D01*
X87375498Y-40460180D01*
X87434463Y-40570494D01*
X87513815Y-40667185D01*
X87610506Y-40746537D01*
X87720820Y-40805502D01*
X87840518Y-40841812D01*
X87965000Y-40854072D01*
X88204250Y-40851000D01*
X88363000Y-40692250D01*
X88363000Y-39243000D01*
X88617000Y-39243000D01*
X88617000Y-40692250D01*
X88775750Y-40851000D01*
X88935451Y-40853051D01*
X88935451Y-41116000D01*
X88945626Y-41219310D01*
X88975761Y-41318650D01*
X89024696Y-41410202D01*
X89090552Y-41490448D01*
X89170798Y-41556304D01*
X89262350Y-41605239D01*
X89361690Y-41635374D01*
X89465000Y-41645549D01*
X90465000Y-41645549D01*
X90568310Y-41635374D01*
X90667650Y-41605239D01*
X90759202Y-41556304D01*
X90839448Y-41490448D01*
X90905304Y-41410202D01*
X90941331Y-41342800D01*
X92571724Y-41342800D01*
X92639772Y-41410848D01*
X92791601Y-41512296D01*
X92960304Y-41582176D01*
X93139399Y-41617800D01*
X93322001Y-41617800D01*
X93501096Y-41582176D01*
X93669799Y-41512296D01*
X93821628Y-41410848D01*
X93847935Y-41384541D01*
X94989864Y-41384541D01*
X95012719Y-41587836D01*
X95199884Y-41668677D01*
X95399223Y-41711451D01*
X95603077Y-41714513D01*
X95803612Y-41677747D01*
X95993120Y-41602566D01*
X96020681Y-41587836D01*
X96043536Y-41384541D01*
X95516700Y-40857705D01*
X94989864Y-41384541D01*
X93847935Y-41384541D01*
X93950748Y-41281728D01*
X94052196Y-41129899D01*
X94122076Y-40961196D01*
X94157700Y-40782101D01*
X94157700Y-40764477D01*
X94480287Y-40764477D01*
X94517053Y-40965012D01*
X94592234Y-41154520D01*
X94606964Y-41182081D01*
X94810259Y-41204936D01*
X95337095Y-40678100D01*
X95696305Y-40678100D01*
X96223141Y-41204936D01*
X96426436Y-41182081D01*
X96507277Y-40994916D01*
X96550051Y-40795577D01*
X96553113Y-40591723D01*
X96516347Y-40391188D01*
X96441166Y-40201680D01*
X96426436Y-40174119D01*
X96223141Y-40151264D01*
X95696305Y-40678100D01*
X95337095Y-40678100D01*
X94810259Y-40151264D01*
X94606964Y-40174119D01*
X94526123Y-40361284D01*
X94483349Y-40560623D01*
X94480287Y-40764477D01*
X94157700Y-40764477D01*
X94157700Y-40599499D01*
X94122076Y-40420404D01*
X94052196Y-40251701D01*
X93950748Y-40099872D01*
X93822535Y-39971659D01*
X94989864Y-39971659D01*
X95516700Y-40498495D01*
X96043536Y-39971659D01*
X96020681Y-39768364D01*
X95833516Y-39687523D01*
X95634177Y-39644749D01*
X95430323Y-39641687D01*
X95229788Y-39678453D01*
X95040280Y-39753634D01*
X95012719Y-39768364D01*
X94989864Y-39971659D01*
X93822535Y-39971659D01*
X93821628Y-39970752D01*
X93669799Y-39869304D01*
X93501096Y-39799424D01*
X93322001Y-39763800D01*
X93139399Y-39763800D01*
X92960304Y-39799424D01*
X92791601Y-39869304D01*
X92639772Y-39970752D01*
X92602288Y-40008236D01*
X92600000Y-39401750D01*
X92441250Y-39243000D01*
X91567000Y-39243000D01*
X91567000Y-39263000D01*
X91313000Y-39263000D01*
X91313000Y-39243000D01*
X90438750Y-39243000D01*
X90280000Y-39401750D01*
X90279303Y-39586451D01*
X89650697Y-39586451D01*
X89650000Y-39401750D01*
X89491250Y-39243000D01*
X88617000Y-39243000D01*
X88363000Y-39243000D01*
X87488750Y-39243000D01*
X87330000Y-39401750D01*
X87326928Y-40216000D01*
X86912000Y-40216000D01*
X86912000Y-38016000D01*
X87326928Y-38016000D01*
X87330000Y-38830250D01*
X87488750Y-38989000D01*
X88363000Y-38989000D01*
X88363000Y-37539750D01*
X88204250Y-37381000D01*
X87965000Y-37377928D01*
X87840518Y-37390188D01*
X87720820Y-37426498D01*
X87610506Y-37485463D01*
X87513815Y-37564815D01*
X87434463Y-37661506D01*
X87375498Y-37771820D01*
X87339188Y-37891518D01*
X87326928Y-38016000D01*
X86912000Y-38016000D01*
X86912000Y-37618994D01*
X86923433Y-37502390D01*
X86949457Y-37416193D01*
X86991729Y-37336692D01*
X87048639Y-37266914D01*
X87118013Y-37209522D01*
X87197220Y-37166695D01*
X87283232Y-37140070D01*
X87398074Y-37128000D01*
X88827100Y-37128000D01*
X88830000Y-37330250D01*
G37*
G04 #@! TD.AperFunction*
D25*
X100788101Y-53525468D02*
X100784946Y-53557500D01*
X100797535Y-53685314D01*
X100834817Y-53808216D01*
X100862659Y-53860304D01*
X100895360Y-53921484D01*
X100976837Y-54020764D01*
X101001714Y-54041180D01*
X101172300Y-54211766D01*
X101172300Y-54304800D01*
X100661067Y-54304800D01*
X100117588Y-53761321D01*
X100237205Y-53697385D01*
X100351547Y-53603547D01*
X100445385Y-53489205D01*
X100515112Y-53358753D01*
X100558051Y-53217205D01*
X100572549Y-53070000D01*
X100572549Y-52620000D01*
X100558051Y-52472795D01*
X100515112Y-52331247D01*
X100458552Y-52225428D01*
X100494185Y-52196185D01*
X100573537Y-52099494D01*
X100632502Y-51989180D01*
X100668812Y-51869482D01*
X100681072Y-51745000D01*
X100678000Y-51580750D01*
X100519250Y-51422000D01*
X99695000Y-51422000D01*
X99695000Y-51442000D01*
X99441000Y-51442000D01*
X99441000Y-51422000D01*
X99421000Y-51422000D01*
X99421000Y-51168000D01*
X99441000Y-51168000D01*
X99441000Y-51148000D01*
X99695000Y-51148000D01*
X99695000Y-51168000D01*
X100519250Y-51168000D01*
X100678000Y-51009250D01*
X100681072Y-50845000D01*
X100668812Y-50720518D01*
X100632502Y-50600820D01*
X100593508Y-50527868D01*
X100683748Y-50437628D01*
X100785196Y-50285799D01*
X100788100Y-50278788D01*
X100788101Y-53525468D01*
G04 #@! TA.AperFunction,Conductor*
D26*
G36*
X100788101Y-53525468D02*
G01*
X100784946Y-53557500D01*
X100797535Y-53685314D01*
X100834817Y-53808216D01*
X100862659Y-53860304D01*
X100895360Y-53921484D01*
X100976837Y-54020764D01*
X101001714Y-54041180D01*
X101172300Y-54211766D01*
X101172300Y-54304800D01*
X100661067Y-54304800D01*
X100117588Y-53761321D01*
X100237205Y-53697385D01*
X100351547Y-53603547D01*
X100445385Y-53489205D01*
X100515112Y-53358753D01*
X100558051Y-53217205D01*
X100572549Y-53070000D01*
X100572549Y-52620000D01*
X100558051Y-52472795D01*
X100515112Y-52331247D01*
X100458552Y-52225428D01*
X100494185Y-52196185D01*
X100573537Y-52099494D01*
X100632502Y-51989180D01*
X100668812Y-51869482D01*
X100681072Y-51745000D01*
X100678000Y-51580750D01*
X100519250Y-51422000D01*
X99695000Y-51422000D01*
X99695000Y-51442000D01*
X99441000Y-51442000D01*
X99441000Y-51422000D01*
X99421000Y-51422000D01*
X99421000Y-51168000D01*
X99441000Y-51168000D01*
X99441000Y-51148000D01*
X99695000Y-51148000D01*
X99695000Y-51168000D01*
X100519250Y-51168000D01*
X100678000Y-51009250D01*
X100681072Y-50845000D01*
X100668812Y-50720518D01*
X100632502Y-50600820D01*
X100593508Y-50527868D01*
X100683748Y-50437628D01*
X100785196Y-50285799D01*
X100788100Y-50278788D01*
X100788101Y-53525468D01*
G37*
G04 #@! TD.AperFunction*
D25*
X103407524Y-49533196D02*
X103477404Y-49701899D01*
X103578852Y-49853728D01*
X103707972Y-49982848D01*
X103859801Y-50084296D01*
X104028504Y-50154176D01*
X104207599Y-50189800D01*
X104390201Y-50189800D01*
X104569296Y-50154176D01*
X104737999Y-50084296D01*
X104889828Y-49982848D01*
X104957876Y-49914800D01*
X105091534Y-49914800D01*
X106102924Y-50926191D01*
X106097761Y-50935850D01*
X106067626Y-51035190D01*
X106057451Y-51138500D01*
X106057451Y-52198500D01*
X106067626Y-52301810D01*
X106097761Y-52401150D01*
X106146696Y-52492702D01*
X106212552Y-52572948D01*
X106266008Y-52616818D01*
X106269435Y-52651614D01*
X106306717Y-52774516D01*
X106324723Y-52808202D01*
X106355042Y-52864926D01*
X106292798Y-52898196D01*
X106212552Y-52964052D01*
X106146696Y-53044298D01*
X106097761Y-53135850D01*
X106073296Y-53216500D01*
X105754549Y-53216500D01*
X105754549Y-52937800D01*
X105740051Y-52790595D01*
X105697112Y-52649047D01*
X105640552Y-52543228D01*
X105676185Y-52513985D01*
X105755537Y-52417294D01*
X105814502Y-52306980D01*
X105850812Y-52187282D01*
X105863072Y-52062800D01*
X105860000Y-51898550D01*
X105701250Y-51739800D01*
X104877000Y-51739800D01*
X104877000Y-51759800D01*
X104623000Y-51759800D01*
X104623000Y-51739800D01*
X104603000Y-51739800D01*
X104603000Y-51485800D01*
X104623000Y-51485800D01*
X104623000Y-50686550D01*
X104877000Y-50686550D01*
X104877000Y-51485800D01*
X105701250Y-51485800D01*
X105860000Y-51327050D01*
X105863072Y-51162800D01*
X105850812Y-51038318D01*
X105814502Y-50918620D01*
X105755537Y-50808306D01*
X105676185Y-50711615D01*
X105579494Y-50632263D01*
X105469180Y-50573298D01*
X105349482Y-50536988D01*
X105225000Y-50524728D01*
X105035750Y-50527800D01*
X104877000Y-50686550D01*
X104623000Y-50686550D01*
X104464250Y-50527800D01*
X104275000Y-50524728D01*
X104150518Y-50536988D01*
X104030820Y-50573298D01*
X103920506Y-50632263D01*
X103823815Y-50711615D01*
X103744463Y-50808306D01*
X103685498Y-50918620D01*
X103649188Y-51038318D01*
X103645971Y-51070986D01*
X103596438Y-50978317D01*
X103503377Y-50864923D01*
X103389983Y-50771862D01*
X103370000Y-50761181D01*
X103370000Y-49451066D01*
X103387672Y-49433394D01*
X103407524Y-49533196D01*
G04 #@! TA.AperFunction,Conductor*
D26*
G36*
X103407524Y-49533196D02*
G01*
X103477404Y-49701899D01*
X103578852Y-49853728D01*
X103707972Y-49982848D01*
X103859801Y-50084296D01*
X104028504Y-50154176D01*
X104207599Y-50189800D01*
X104390201Y-50189800D01*
X104569296Y-50154176D01*
X104737999Y-50084296D01*
X104889828Y-49982848D01*
X104957876Y-49914800D01*
X105091534Y-49914800D01*
X106102924Y-50926191D01*
X106097761Y-50935850D01*
X106067626Y-51035190D01*
X106057451Y-51138500D01*
X106057451Y-52198500D01*
X106067626Y-52301810D01*
X106097761Y-52401150D01*
X106146696Y-52492702D01*
X106212552Y-52572948D01*
X106266008Y-52616818D01*
X106269435Y-52651614D01*
X106306717Y-52774516D01*
X106324723Y-52808202D01*
X106355042Y-52864926D01*
X106292798Y-52898196D01*
X106212552Y-52964052D01*
X106146696Y-53044298D01*
X106097761Y-53135850D01*
X106073296Y-53216500D01*
X105754549Y-53216500D01*
X105754549Y-52937800D01*
X105740051Y-52790595D01*
X105697112Y-52649047D01*
X105640552Y-52543228D01*
X105676185Y-52513985D01*
X105755537Y-52417294D01*
X105814502Y-52306980D01*
X105850812Y-52187282D01*
X105863072Y-52062800D01*
X105860000Y-51898550D01*
X105701250Y-51739800D01*
X104877000Y-51739800D01*
X104877000Y-51759800D01*
X104623000Y-51759800D01*
X104623000Y-51739800D01*
X104603000Y-51739800D01*
X104603000Y-51485800D01*
X104623000Y-51485800D01*
X104623000Y-50686550D01*
X104877000Y-50686550D01*
X104877000Y-51485800D01*
X105701250Y-51485800D01*
X105860000Y-51327050D01*
X105863072Y-51162800D01*
X105850812Y-51038318D01*
X105814502Y-50918620D01*
X105755537Y-50808306D01*
X105676185Y-50711615D01*
X105579494Y-50632263D01*
X105469180Y-50573298D01*
X105349482Y-50536988D01*
X105225000Y-50524728D01*
X105035750Y-50527800D01*
X104877000Y-50686550D01*
X104623000Y-50686550D01*
X104464250Y-50527800D01*
X104275000Y-50524728D01*
X104150518Y-50536988D01*
X104030820Y-50573298D01*
X103920506Y-50632263D01*
X103823815Y-50711615D01*
X103744463Y-50808306D01*
X103685498Y-50918620D01*
X103649188Y-51038318D01*
X103645971Y-51070986D01*
X103596438Y-50978317D01*
X103503377Y-50864923D01*
X103389983Y-50771862D01*
X103370000Y-50761181D01*
X103370000Y-49451066D01*
X103387672Y-49433394D01*
X103407524Y-49533196D01*
G37*
G04 #@! TD.AperFunction*
D25*
X107957451Y-51815500D02*
X107766549Y-51815500D01*
X107766549Y-51521500D01*
X107957451Y-51521500D01*
X107957451Y-51815500D01*
G04 #@! TA.AperFunction,Conductor*
D26*
G36*
X107957451Y-51815500D02*
G01*
X107766549Y-51815500D01*
X107766549Y-51521500D01*
X107957451Y-51521500D01*
X107957451Y-51815500D01*
G37*
G04 #@! TD.AperFunction*
D25*
X130137610Y-37139433D02*
X130223807Y-37165457D01*
X130303308Y-37207729D01*
X130373086Y-37264639D01*
X130430478Y-37334013D01*
X130473305Y-37413220D01*
X130499930Y-37499232D01*
X130512001Y-37614083D01*
X130512001Y-37693683D01*
X130424814Y-37667235D01*
X130366648Y-37661506D01*
X130297000Y-37654646D01*
X130264978Y-37657800D01*
X129095222Y-37657800D01*
X129063200Y-37654646D01*
X128935385Y-37667235D01*
X128874610Y-37685671D01*
X128812483Y-37704517D01*
X128699216Y-37765059D01*
X128599936Y-37846536D01*
X128579520Y-37871413D01*
X128339482Y-38111451D01*
X128032000Y-38111451D01*
X127884795Y-38125949D01*
X127743247Y-38168888D01*
X127612795Y-38238615D01*
X127498453Y-38332453D01*
X127404615Y-38446795D01*
X127334888Y-38577247D01*
X127291949Y-38718795D01*
X127277451Y-38866000D01*
X127277451Y-39366000D01*
X127291949Y-39513205D01*
X127334888Y-39654753D01*
X127404615Y-39785205D01*
X127498453Y-39899547D01*
X127547700Y-39939963D01*
X127547701Y-40259523D01*
X127479652Y-40327572D01*
X127378204Y-40479401D01*
X127308324Y-40648104D01*
X127272700Y-40827199D01*
X127272700Y-41009801D01*
X127308324Y-41188896D01*
X127378204Y-41357599D01*
X127479652Y-41509428D01*
X127543510Y-41573286D01*
X127523985Y-41609814D01*
X127482469Y-41746672D01*
X127468451Y-41889000D01*
X127468451Y-42171482D01*
X126897334Y-42742600D01*
X115468466Y-42742600D01*
X119614518Y-38596549D01*
X119779482Y-38596549D01*
X119943546Y-38760613D01*
X119952135Y-38847814D01*
X119989417Y-38970717D01*
X120049959Y-39083984D01*
X120123259Y-39173300D01*
X120131436Y-39183264D01*
X120230716Y-39264741D01*
X120343983Y-39325283D01*
X120390451Y-39339379D01*
X120390451Y-39720000D01*
X120400626Y-39823310D01*
X120430761Y-39922650D01*
X120479696Y-40014202D01*
X120545552Y-40094448D01*
X120625798Y-40160304D01*
X120717350Y-40209239D01*
X120816690Y-40239374D01*
X120920000Y-40249549D01*
X122920000Y-40249549D01*
X123023310Y-40239374D01*
X123122650Y-40209239D01*
X123214202Y-40160304D01*
X123294448Y-40094448D01*
X123360304Y-40014202D01*
X123409239Y-39922650D01*
X123439374Y-39823310D01*
X123449549Y-39720000D01*
X123449549Y-37720000D01*
X123439374Y-37616690D01*
X123409239Y-37517350D01*
X123360304Y-37425798D01*
X123294448Y-37345552D01*
X123214202Y-37279696D01*
X123122650Y-37230761D01*
X123023310Y-37200626D01*
X122920000Y-37190451D01*
X120920000Y-37190451D01*
X120816690Y-37200626D01*
X120717350Y-37230761D01*
X120625798Y-37279696D01*
X120623094Y-37281916D01*
X120612531Y-37174672D01*
X120598373Y-37128000D01*
X130021006Y-37128000D01*
X130137610Y-37139433D01*
G04 #@! TA.AperFunction,Conductor*
D26*
G36*
X130137610Y-37139433D02*
G01*
X130223807Y-37165457D01*
X130303308Y-37207729D01*
X130373086Y-37264639D01*
X130430478Y-37334013D01*
X130473305Y-37413220D01*
X130499930Y-37499232D01*
X130512001Y-37614083D01*
X130512001Y-37693683D01*
X130424814Y-37667235D01*
X130366648Y-37661506D01*
X130297000Y-37654646D01*
X130264978Y-37657800D01*
X129095222Y-37657800D01*
X129063200Y-37654646D01*
X128935385Y-37667235D01*
X128874610Y-37685671D01*
X128812483Y-37704517D01*
X128699216Y-37765059D01*
X128599936Y-37846536D01*
X128579520Y-37871413D01*
X128339482Y-38111451D01*
X128032000Y-38111451D01*
X127884795Y-38125949D01*
X127743247Y-38168888D01*
X127612795Y-38238615D01*
X127498453Y-38332453D01*
X127404615Y-38446795D01*
X127334888Y-38577247D01*
X127291949Y-38718795D01*
X127277451Y-38866000D01*
X127277451Y-39366000D01*
X127291949Y-39513205D01*
X127334888Y-39654753D01*
X127404615Y-39785205D01*
X127498453Y-39899547D01*
X127547700Y-39939963D01*
X127547701Y-40259523D01*
X127479652Y-40327572D01*
X127378204Y-40479401D01*
X127308324Y-40648104D01*
X127272700Y-40827199D01*
X127272700Y-41009801D01*
X127308324Y-41188896D01*
X127378204Y-41357599D01*
X127479652Y-41509428D01*
X127543510Y-41573286D01*
X127523985Y-41609814D01*
X127482469Y-41746672D01*
X127468451Y-41889000D01*
X127468451Y-42171482D01*
X126897334Y-42742600D01*
X115468466Y-42742600D01*
X119614518Y-38596549D01*
X119779482Y-38596549D01*
X119943546Y-38760613D01*
X119952135Y-38847814D01*
X119989417Y-38970717D01*
X120049959Y-39083984D01*
X120123259Y-39173300D01*
X120131436Y-39183264D01*
X120230716Y-39264741D01*
X120343983Y-39325283D01*
X120390451Y-39339379D01*
X120390451Y-39720000D01*
X120400626Y-39823310D01*
X120430761Y-39922650D01*
X120479696Y-40014202D01*
X120545552Y-40094448D01*
X120625798Y-40160304D01*
X120717350Y-40209239D01*
X120816690Y-40239374D01*
X120920000Y-40249549D01*
X122920000Y-40249549D01*
X123023310Y-40239374D01*
X123122650Y-40209239D01*
X123214202Y-40160304D01*
X123294448Y-40094448D01*
X123360304Y-40014202D01*
X123409239Y-39922650D01*
X123439374Y-39823310D01*
X123449549Y-39720000D01*
X123449549Y-37720000D01*
X123439374Y-37616690D01*
X123409239Y-37517350D01*
X123360304Y-37425798D01*
X123294448Y-37345552D01*
X123214202Y-37279696D01*
X123122650Y-37230761D01*
X123023310Y-37200626D01*
X122920000Y-37190451D01*
X120920000Y-37190451D01*
X120816690Y-37200626D01*
X120717350Y-37230761D01*
X120625798Y-37279696D01*
X120623094Y-37281916D01*
X120612531Y-37174672D01*
X120598373Y-37128000D01*
X130021006Y-37128000D01*
X130137610Y-37139433D01*
G37*
G04 #@! TD.AperFunction*
D25*
X114099734Y-42267200D02*
X111856166Y-42267200D01*
X113372467Y-40750900D01*
X115508078Y-40750900D01*
X115540100Y-40754054D01*
X115572122Y-40750900D01*
X115620831Y-40746102D01*
X114099734Y-42267200D01*
G04 #@! TA.AperFunction,Conductor*
D26*
G36*
X114099734Y-42267200D02*
G01*
X111856166Y-42267200D01*
X113372467Y-40750900D01*
X115508078Y-40750900D01*
X115540100Y-40754054D01*
X115572122Y-40750900D01*
X115620831Y-40746102D01*
X114099734Y-42267200D01*
G37*
G04 #@! TD.AperFunction*
D25*
X100314000Y-39375154D02*
X100346022Y-39372000D01*
X101086451Y-39372000D01*
X101086451Y-39720000D01*
X101096626Y-39823310D01*
X101126761Y-39922650D01*
X101175696Y-40014202D01*
X101241552Y-40094448D01*
X101321798Y-40160304D01*
X101413350Y-40209239D01*
X101512690Y-40239374D01*
X101616000Y-40249549D01*
X103616000Y-40249549D01*
X103719310Y-40239374D01*
X103818650Y-40209239D01*
X103910202Y-40160304D01*
X103990448Y-40094448D01*
X104056304Y-40014202D01*
X104105239Y-39922650D01*
X104135374Y-39823310D01*
X104145549Y-39720000D01*
X104145549Y-39372000D01*
X104581234Y-39372000D01*
X107068900Y-41859667D01*
X107068900Y-41939700D01*
X102805767Y-41939700D01*
X100233269Y-39367202D01*
X100314000Y-39375154D01*
G04 #@! TA.AperFunction,Conductor*
D26*
G36*
X100314000Y-39375154D02*
G01*
X100346022Y-39372000D01*
X101086451Y-39372000D01*
X101086451Y-39720000D01*
X101096626Y-39823310D01*
X101126761Y-39922650D01*
X101175696Y-40014202D01*
X101241552Y-40094448D01*
X101321798Y-40160304D01*
X101413350Y-40209239D01*
X101512690Y-40239374D01*
X101616000Y-40249549D01*
X103616000Y-40249549D01*
X103719310Y-40239374D01*
X103818650Y-40209239D01*
X103910202Y-40160304D01*
X103990448Y-40094448D01*
X104056304Y-40014202D01*
X104105239Y-39922650D01*
X104135374Y-39823310D01*
X104145549Y-39720000D01*
X104145549Y-39372000D01*
X104581234Y-39372000D01*
X107068900Y-41859667D01*
X107068900Y-41939700D01*
X102805767Y-41939700D01*
X100233269Y-39367202D01*
X100314000Y-39375154D01*
G37*
G04 #@! TD.AperFunction*
D25*
X129934000Y-38989000D02*
X129954000Y-38989000D01*
X129954000Y-39243000D01*
X129934000Y-39243000D01*
X129934000Y-40067250D01*
X129999600Y-40132850D01*
X129999600Y-41159451D01*
X129848000Y-41159451D01*
X129705672Y-41173469D01*
X129568814Y-41214985D01*
X129442684Y-41282402D01*
X129332131Y-41373131D01*
X129241402Y-41483684D01*
X129223000Y-41518112D01*
X129204598Y-41483684D01*
X129113869Y-41373131D01*
X129039906Y-41312431D01*
X129091076Y-41188896D01*
X129126700Y-41009801D01*
X129126700Y-40827199D01*
X129091076Y-40648104D01*
X129021196Y-40479401D01*
X128919748Y-40327572D01*
X128851700Y-40259524D01*
X128851700Y-40019846D01*
X128876572Y-40006552D01*
X128905815Y-40042185D01*
X129002506Y-40121537D01*
X129112820Y-40180502D01*
X129232518Y-40216812D01*
X129357000Y-40229072D01*
X129521250Y-40226000D01*
X129680000Y-40067250D01*
X129680000Y-39243000D01*
X129660000Y-39243000D01*
X129660000Y-38989000D01*
X129680000Y-38989000D01*
X129680000Y-38969000D01*
X129934000Y-38969000D01*
X129934000Y-38989000D01*
G04 #@! TA.AperFunction,Conductor*
D26*
G36*
X129934000Y-38989000D02*
G01*
X129954000Y-38989000D01*
X129954000Y-39243000D01*
X129934000Y-39243000D01*
X129934000Y-40067250D01*
X129999600Y-40132850D01*
X129999600Y-41159451D01*
X129848000Y-41159451D01*
X129705672Y-41173469D01*
X129568814Y-41214985D01*
X129442684Y-41282402D01*
X129332131Y-41373131D01*
X129241402Y-41483684D01*
X129223000Y-41518112D01*
X129204598Y-41483684D01*
X129113869Y-41373131D01*
X129039906Y-41312431D01*
X129091076Y-41188896D01*
X129126700Y-41009801D01*
X129126700Y-40827199D01*
X129091076Y-40648104D01*
X129021196Y-40479401D01*
X128919748Y-40327572D01*
X128851700Y-40259524D01*
X128851700Y-40019846D01*
X128876572Y-40006552D01*
X128905815Y-40042185D01*
X129002506Y-40121537D01*
X129112820Y-40180502D01*
X129232518Y-40216812D01*
X129357000Y-40229072D01*
X129521250Y-40226000D01*
X129680000Y-40067250D01*
X129680000Y-39243000D01*
X129660000Y-39243000D01*
X129660000Y-38989000D01*
X129680000Y-38989000D01*
X129680000Y-38969000D01*
X129934000Y-38969000D01*
X129934000Y-38989000D01*
G37*
G04 #@! TD.AperFunction*
M02*
