G04 #@! TF.GenerationSoftware,KiCad,Pcbnew,(5.1.12)-1*
G04 #@! TF.CreationDate,2022-01-02T13:29:21+01:00*
G04 #@! TF.ProjectId,20210211_eduino,32303231-3032-4313-915f-656475696e6f,v1.0*
G04 #@! TF.SameCoordinates,Original*
G04 #@! TF.FileFunction,Legend,Bot*
G04 #@! TF.FilePolarity,Positive*
%FSLAX46Y46*%
G04 Gerber Fmt 4.6, Leading zero omitted, Abs format (unit mm)*
G04 Created by KiCad (PCBNEW (5.1.12)-1) date 2022-01-02 13:29:21*
%MOMM*%
%LPD*%
G01*
G04 APERTURE LIST*
%ADD10C,0.100000*%
%ADD11C,0.050000*%
%ADD12C,0.120000*%
%ADD13C,0.150000*%
%ADD14C,0.200000*%
G04 APERTURE END LIST*
D10*
X123664714Y-37804285D02*
X123664714Y-37054285D01*
X123664714Y-37411428D02*
X123236142Y-37411428D01*
X123236142Y-37804285D02*
X123236142Y-37054285D01*
X122557571Y-37804285D02*
X122557571Y-37411428D01*
X122593285Y-37340000D01*
X122664714Y-37304285D01*
X122807571Y-37304285D01*
X122879000Y-37340000D01*
X122557571Y-37768571D02*
X122629000Y-37804285D01*
X122807571Y-37804285D01*
X122879000Y-37768571D01*
X122914714Y-37697142D01*
X122914714Y-37625714D01*
X122879000Y-37554285D01*
X122807571Y-37518571D01*
X122629000Y-37518571D01*
X122557571Y-37482857D01*
X121879000Y-37768571D02*
X121950428Y-37804285D01*
X122093285Y-37804285D01*
X122164714Y-37768571D01*
X122200428Y-37732857D01*
X122236142Y-37661428D01*
X122236142Y-37447142D01*
X122200428Y-37375714D01*
X122164714Y-37340000D01*
X122093285Y-37304285D01*
X121950428Y-37304285D01*
X121879000Y-37340000D01*
X121557571Y-37804285D02*
X121557571Y-37054285D01*
X121486142Y-37518571D02*
X121271857Y-37804285D01*
X121271857Y-37304285D02*
X121557571Y-37590000D01*
X120450428Y-37304285D02*
X120271857Y-37804285D01*
X120093285Y-37304285D02*
X120271857Y-37804285D01*
X120343285Y-37982857D01*
X120379000Y-38018571D01*
X120450428Y-38054285D01*
X119700428Y-37804285D02*
X119771857Y-37768571D01*
X119807571Y-37732857D01*
X119843285Y-37661428D01*
X119843285Y-37447142D01*
X119807571Y-37375714D01*
X119771857Y-37340000D01*
X119700428Y-37304285D01*
X119593285Y-37304285D01*
X119521857Y-37340000D01*
X119486142Y-37375714D01*
X119450428Y-37447142D01*
X119450428Y-37661428D01*
X119486142Y-37732857D01*
X119521857Y-37768571D01*
X119593285Y-37804285D01*
X119700428Y-37804285D01*
X118807571Y-37304285D02*
X118807571Y-37804285D01*
X119129000Y-37304285D02*
X119129000Y-37697142D01*
X119093285Y-37768571D01*
X119021857Y-37804285D01*
X118914714Y-37804285D01*
X118843285Y-37768571D01*
X118807571Y-37732857D01*
X118450428Y-37804285D02*
X118450428Y-37304285D01*
X118450428Y-37447142D02*
X118414714Y-37375714D01*
X118379000Y-37340000D01*
X118307571Y-37304285D01*
X118236142Y-37304285D01*
X117093285Y-37304285D02*
X117093285Y-37911428D01*
X117129000Y-37982857D01*
X117164714Y-38018571D01*
X117236142Y-38054285D01*
X117343285Y-38054285D01*
X117414714Y-38018571D01*
X117093285Y-37768571D02*
X117164714Y-37804285D01*
X117307571Y-37804285D01*
X117379000Y-37768571D01*
X117414714Y-37732857D01*
X117450428Y-37661428D01*
X117450428Y-37447142D01*
X117414714Y-37375714D01*
X117379000Y-37340000D01*
X117307571Y-37304285D01*
X117164714Y-37304285D01*
X117093285Y-37340000D01*
X116414714Y-37804285D02*
X116414714Y-37411428D01*
X116450428Y-37340000D01*
X116521857Y-37304285D01*
X116664714Y-37304285D01*
X116736142Y-37340000D01*
X116414714Y-37768571D02*
X116486142Y-37804285D01*
X116664714Y-37804285D01*
X116736142Y-37768571D01*
X116771857Y-37697142D01*
X116771857Y-37625714D01*
X116736142Y-37554285D01*
X116664714Y-37518571D01*
X116486142Y-37518571D01*
X116414714Y-37482857D01*
X116057571Y-37804285D02*
X116057571Y-37304285D01*
X116057571Y-37447142D02*
X116021857Y-37375714D01*
X115986142Y-37340000D01*
X115914714Y-37304285D01*
X115843285Y-37304285D01*
X115271857Y-37804285D02*
X115271857Y-37411428D01*
X115307571Y-37340000D01*
X115379000Y-37304285D01*
X115521857Y-37304285D01*
X115593285Y-37340000D01*
X115271857Y-37768571D02*
X115343285Y-37804285D01*
X115521857Y-37804285D01*
X115593285Y-37768571D01*
X115629000Y-37697142D01*
X115629000Y-37625714D01*
X115593285Y-37554285D01*
X115521857Y-37518571D01*
X115343285Y-37518571D01*
X115271857Y-37482857D01*
X114593285Y-37304285D02*
X114593285Y-37911428D01*
X114629000Y-37982857D01*
X114664714Y-38018571D01*
X114736142Y-38054285D01*
X114843285Y-38054285D01*
X114914714Y-38018571D01*
X114593285Y-37768571D02*
X114664714Y-37804285D01*
X114807571Y-37804285D01*
X114879000Y-37768571D01*
X114914714Y-37732857D01*
X114950428Y-37661428D01*
X114950428Y-37447142D01*
X114914714Y-37375714D01*
X114879000Y-37340000D01*
X114807571Y-37304285D01*
X114664714Y-37304285D01*
X114593285Y-37340000D01*
X113950428Y-37768571D02*
X114021857Y-37804285D01*
X114164714Y-37804285D01*
X114236142Y-37768571D01*
X114271857Y-37697142D01*
X114271857Y-37411428D01*
X114236142Y-37340000D01*
X114164714Y-37304285D01*
X114021857Y-37304285D01*
X113950428Y-37340000D01*
X113914714Y-37411428D01*
X113914714Y-37482857D01*
X114271857Y-37554285D01*
X112700428Y-37804285D02*
X112700428Y-37054285D01*
X112700428Y-37768571D02*
X112771857Y-37804285D01*
X112914714Y-37804285D01*
X112986142Y-37768571D01*
X113021857Y-37732857D01*
X113057571Y-37661428D01*
X113057571Y-37447142D01*
X113021857Y-37375714D01*
X112986142Y-37340000D01*
X112914714Y-37304285D01*
X112771857Y-37304285D01*
X112700428Y-37340000D01*
X112236142Y-37804285D02*
X112307571Y-37768571D01*
X112343285Y-37732857D01*
X112379000Y-37661428D01*
X112379000Y-37447142D01*
X112343285Y-37375714D01*
X112307571Y-37340000D01*
X112236142Y-37304285D01*
X112129000Y-37304285D01*
X112057571Y-37340000D01*
X112021857Y-37375714D01*
X111986142Y-37447142D01*
X111986142Y-37661428D01*
X112021857Y-37732857D01*
X112057571Y-37768571D01*
X112129000Y-37804285D01*
X112236142Y-37804285D01*
X111557571Y-37804285D02*
X111629000Y-37768571D01*
X111664714Y-37732857D01*
X111700428Y-37661428D01*
X111700428Y-37447142D01*
X111664714Y-37375714D01*
X111629000Y-37340000D01*
X111557571Y-37304285D01*
X111450428Y-37304285D01*
X111379000Y-37340000D01*
X111343285Y-37375714D01*
X111307571Y-37447142D01*
X111307571Y-37661428D01*
X111343285Y-37732857D01*
X111379000Y-37768571D01*
X111450428Y-37804285D01*
X111557571Y-37804285D01*
X110986142Y-37804285D02*
X110986142Y-37304285D01*
X110986142Y-37447142D02*
X110950428Y-37375714D01*
X110914714Y-37340000D01*
X110843285Y-37304285D01*
X110771857Y-37304285D01*
X109950428Y-37518571D02*
X109379000Y-37518571D01*
X108450428Y-37411428D02*
X108200428Y-37411428D01*
X108093285Y-37804285D02*
X108450428Y-37804285D01*
X108450428Y-37054285D01*
X108093285Y-37054285D01*
X107807571Y-37768571D02*
X107700428Y-37804285D01*
X107521857Y-37804285D01*
X107450428Y-37768571D01*
X107414714Y-37732857D01*
X107379000Y-37661428D01*
X107379000Y-37590000D01*
X107414714Y-37518571D01*
X107450428Y-37482857D01*
X107521857Y-37447142D01*
X107664714Y-37411428D01*
X107736142Y-37375714D01*
X107771857Y-37340000D01*
X107807571Y-37268571D01*
X107807571Y-37197142D01*
X107771857Y-37125714D01*
X107736142Y-37090000D01*
X107664714Y-37054285D01*
X107486142Y-37054285D01*
X107379000Y-37090000D01*
X107057571Y-37804285D02*
X107057571Y-37054285D01*
X106771857Y-37054285D01*
X106700428Y-37090000D01*
X106664714Y-37125714D01*
X106629000Y-37197142D01*
X106629000Y-37304285D01*
X106664714Y-37375714D01*
X106700428Y-37411428D01*
X106771857Y-37447142D01*
X107057571Y-37447142D01*
X106379000Y-37054285D02*
X105914714Y-37054285D01*
X106164714Y-37340000D01*
X106057571Y-37340000D01*
X105986142Y-37375714D01*
X105950428Y-37411428D01*
X105914714Y-37482857D01*
X105914714Y-37661428D01*
X105950428Y-37732857D01*
X105986142Y-37768571D01*
X106057571Y-37804285D01*
X106271857Y-37804285D01*
X106343285Y-37768571D01*
X106379000Y-37732857D01*
X105629000Y-37125714D02*
X105593285Y-37090000D01*
X105521857Y-37054285D01*
X105343285Y-37054285D01*
X105271857Y-37090000D01*
X105236142Y-37125714D01*
X105200428Y-37197142D01*
X105200428Y-37268571D01*
X105236142Y-37375714D01*
X105664714Y-37804285D01*
X105200428Y-37804285D01*
X104307571Y-37804285D02*
X104307571Y-37054285D01*
X104057571Y-37590000D01*
X103807571Y-37054285D01*
X103807571Y-37804285D01*
X103450428Y-37804285D02*
X103450428Y-37304285D01*
X103450428Y-37054285D02*
X103486142Y-37090000D01*
X103450428Y-37125714D01*
X103414714Y-37090000D01*
X103450428Y-37054285D01*
X103450428Y-37125714D01*
X103093285Y-37304285D02*
X103093285Y-37804285D01*
X103093285Y-37375714D02*
X103057571Y-37340000D01*
X102986142Y-37304285D01*
X102879000Y-37304285D01*
X102807571Y-37340000D01*
X102771857Y-37411428D01*
X102771857Y-37804285D01*
X102414714Y-37804285D02*
X102414714Y-37304285D01*
X102414714Y-37054285D02*
X102450428Y-37090000D01*
X102414714Y-37125714D01*
X102379000Y-37090000D01*
X102414714Y-37054285D01*
X102414714Y-37125714D01*
X101521857Y-37768571D02*
X101414714Y-37804285D01*
X101236142Y-37804285D01*
X101164714Y-37768571D01*
X101129000Y-37732857D01*
X101093285Y-37661428D01*
X101093285Y-37590000D01*
X101129000Y-37518571D01*
X101164714Y-37482857D01*
X101236142Y-37447142D01*
X101379000Y-37411428D01*
X101450428Y-37375714D01*
X101486142Y-37340000D01*
X101521857Y-37268571D01*
X101521857Y-37197142D01*
X101486142Y-37125714D01*
X101450428Y-37090000D01*
X101379000Y-37054285D01*
X101200428Y-37054285D01*
X101093285Y-37090000D01*
X100879000Y-37304285D02*
X100593285Y-37304285D01*
X100771857Y-37054285D02*
X100771857Y-37697142D01*
X100736142Y-37768571D01*
X100664714Y-37804285D01*
X100593285Y-37804285D01*
X100343285Y-37804285D02*
X100343285Y-37304285D01*
X100343285Y-37054285D02*
X100379000Y-37090000D01*
X100343285Y-37125714D01*
X100307571Y-37090000D01*
X100343285Y-37054285D01*
X100343285Y-37125714D01*
X99664714Y-37768571D02*
X99736142Y-37804285D01*
X99879000Y-37804285D01*
X99950428Y-37768571D01*
X99986142Y-37732857D01*
X100021857Y-37661428D01*
X100021857Y-37447142D01*
X99986142Y-37375714D01*
X99950428Y-37340000D01*
X99879000Y-37304285D01*
X99736142Y-37304285D01*
X99664714Y-37340000D01*
X99343285Y-37804285D02*
X99343285Y-37054285D01*
X99271857Y-37518571D02*
X99057571Y-37804285D01*
X99057571Y-37304285D02*
X99343285Y-37590000D01*
X115497857Y-59021285D02*
X115355000Y-59521285D01*
X115212142Y-59164142D01*
X115069285Y-59521285D01*
X114926428Y-59021285D01*
X114712142Y-59021285D02*
X114569285Y-59521285D01*
X114426428Y-59164142D01*
X114283571Y-59521285D01*
X114140714Y-59021285D01*
X113926428Y-59021285D02*
X113783571Y-59521285D01*
X113640714Y-59164142D01*
X113497857Y-59521285D01*
X113355000Y-59021285D01*
X113069285Y-59449857D02*
X113033571Y-59485571D01*
X113069285Y-59521285D01*
X113105000Y-59485571D01*
X113069285Y-59449857D01*
X113069285Y-59521285D01*
X112712142Y-59521285D02*
X112712142Y-59021285D01*
X112712142Y-59092714D02*
X112676428Y-59057000D01*
X112605000Y-59021285D01*
X112497857Y-59021285D01*
X112426428Y-59057000D01*
X112390714Y-59128428D01*
X112390714Y-59521285D01*
X112390714Y-59128428D02*
X112355000Y-59057000D01*
X112283571Y-59021285D01*
X112176428Y-59021285D01*
X112105000Y-59057000D01*
X112069285Y-59128428D01*
X112069285Y-59521285D01*
X111605000Y-59521285D02*
X111676428Y-59485571D01*
X111712142Y-59449857D01*
X111747857Y-59378428D01*
X111747857Y-59164142D01*
X111712142Y-59092714D01*
X111676428Y-59057000D01*
X111605000Y-59021285D01*
X111497857Y-59021285D01*
X111426428Y-59057000D01*
X111390714Y-59092714D01*
X111355000Y-59164142D01*
X111355000Y-59378428D01*
X111390714Y-59449857D01*
X111426428Y-59485571D01*
X111497857Y-59521285D01*
X111605000Y-59521285D01*
X111033571Y-59521285D02*
X111033571Y-59021285D01*
X111033571Y-59164142D02*
X110997857Y-59092714D01*
X110962142Y-59057000D01*
X110890714Y-59021285D01*
X110819285Y-59021285D01*
X110569285Y-59021285D02*
X110569285Y-59771285D01*
X110569285Y-59057000D02*
X110497857Y-59021285D01*
X110355000Y-59021285D01*
X110283571Y-59057000D01*
X110247857Y-59092714D01*
X110212142Y-59164142D01*
X110212142Y-59378428D01*
X110247857Y-59449857D01*
X110283571Y-59485571D01*
X110355000Y-59521285D01*
X110497857Y-59521285D01*
X110569285Y-59485571D01*
X109890714Y-59521285D02*
X109890714Y-58771285D01*
X109569285Y-59521285D02*
X109569285Y-59128428D01*
X109605000Y-59057000D01*
X109676428Y-59021285D01*
X109783571Y-59021285D01*
X109855000Y-59057000D01*
X109890714Y-59092714D01*
X108926428Y-59485571D02*
X108997857Y-59521285D01*
X109140714Y-59521285D01*
X109212142Y-59485571D01*
X109247857Y-59414142D01*
X109247857Y-59128428D01*
X109212142Y-59057000D01*
X109140714Y-59021285D01*
X108997857Y-59021285D01*
X108926428Y-59057000D01*
X108890714Y-59128428D01*
X108890714Y-59199857D01*
X109247857Y-59271285D01*
X108247857Y-59521285D02*
X108247857Y-59128428D01*
X108283571Y-59057000D01*
X108355000Y-59021285D01*
X108497857Y-59021285D01*
X108569285Y-59057000D01*
X108247857Y-59485571D02*
X108319285Y-59521285D01*
X108497857Y-59521285D01*
X108569285Y-59485571D01*
X108605000Y-59414142D01*
X108605000Y-59342714D01*
X108569285Y-59271285D01*
X108497857Y-59235571D01*
X108319285Y-59235571D01*
X108247857Y-59199857D01*
X107890714Y-59021285D02*
X107890714Y-59521285D01*
X107890714Y-59092714D02*
X107855000Y-59057000D01*
X107783571Y-59021285D01*
X107676428Y-59021285D01*
X107605000Y-59057000D01*
X107569285Y-59128428D01*
X107569285Y-59521285D01*
X107247857Y-59485571D02*
X107176428Y-59521285D01*
X107033571Y-59521285D01*
X106962142Y-59485571D01*
X106926428Y-59414142D01*
X106926428Y-59378428D01*
X106962142Y-59307000D01*
X107033571Y-59271285D01*
X107140714Y-59271285D01*
X107212142Y-59235571D01*
X107247857Y-59164142D01*
X107247857Y-59128428D01*
X107212142Y-59057000D01*
X107140714Y-59021285D01*
X107033571Y-59021285D01*
X106962142Y-59057000D01*
X106605000Y-59449857D02*
X106569285Y-59485571D01*
X106605000Y-59521285D01*
X106640714Y-59485571D01*
X106605000Y-59449857D01*
X106605000Y-59521285D01*
X105926428Y-59485571D02*
X105997857Y-59521285D01*
X106140714Y-59521285D01*
X106212142Y-59485571D01*
X106247857Y-59449857D01*
X106283571Y-59378428D01*
X106283571Y-59164142D01*
X106247857Y-59092714D01*
X106212142Y-59057000D01*
X106140714Y-59021285D01*
X105997857Y-59021285D01*
X105926428Y-59057000D01*
X105497857Y-59521285D02*
X105569285Y-59485571D01*
X105605000Y-59449857D01*
X105640714Y-59378428D01*
X105640714Y-59164142D01*
X105605000Y-59092714D01*
X105569285Y-59057000D01*
X105497857Y-59021285D01*
X105390714Y-59021285D01*
X105319285Y-59057000D01*
X105283571Y-59092714D01*
X105247857Y-59164142D01*
X105247857Y-59378428D01*
X105283571Y-59449857D01*
X105319285Y-59485571D01*
X105390714Y-59521285D01*
X105497857Y-59521285D01*
X104926428Y-59521285D02*
X104926428Y-59021285D01*
X104926428Y-59092714D02*
X104890714Y-59057000D01*
X104819285Y-59021285D01*
X104712142Y-59021285D01*
X104640714Y-59057000D01*
X104605000Y-59128428D01*
X104605000Y-59521285D01*
X104605000Y-59128428D02*
X104569285Y-59057000D01*
X104497857Y-59021285D01*
X104390714Y-59021285D01*
X104319285Y-59057000D01*
X104283571Y-59128428D01*
X104283571Y-59521285D01*
X81147000Y-51137000D02*
X81182714Y-51208428D01*
X81182714Y-51315571D01*
X81147000Y-51422714D01*
X81075571Y-51494142D01*
X81004142Y-51529857D01*
X80861285Y-51565571D01*
X80754142Y-51565571D01*
X80611285Y-51529857D01*
X80539857Y-51494142D01*
X80468428Y-51422714D01*
X80432714Y-51315571D01*
X80432714Y-51244142D01*
X80468428Y-51137000D01*
X80504142Y-51101285D01*
X80754142Y-51101285D01*
X80754142Y-51244142D01*
X80432714Y-50458428D02*
X80825571Y-50458428D01*
X80897000Y-50494142D01*
X80932714Y-50565571D01*
X80932714Y-50708428D01*
X80897000Y-50779857D01*
X80468428Y-50458428D02*
X80432714Y-50529857D01*
X80432714Y-50708428D01*
X80468428Y-50779857D01*
X80539857Y-50815571D01*
X80611285Y-50815571D01*
X80682714Y-50779857D01*
X80718428Y-50708428D01*
X80718428Y-50529857D01*
X80754142Y-50458428D01*
X80432714Y-50101285D02*
X80932714Y-50101285D01*
X80789857Y-50101285D02*
X80861285Y-50065571D01*
X80897000Y-50029857D01*
X80932714Y-49958428D01*
X80932714Y-49887000D01*
X80432714Y-49315571D02*
X80825571Y-49315571D01*
X80897000Y-49351285D01*
X80932714Y-49422714D01*
X80932714Y-49565571D01*
X80897000Y-49637000D01*
X80468428Y-49315571D02*
X80432714Y-49387000D01*
X80432714Y-49565571D01*
X80468428Y-49637000D01*
X80539857Y-49672714D01*
X80611285Y-49672714D01*
X80682714Y-49637000D01*
X80718428Y-49565571D01*
X80718428Y-49387000D01*
X80754142Y-49315571D01*
X80932714Y-48637000D02*
X80325571Y-48637000D01*
X80254142Y-48672714D01*
X80218428Y-48708428D01*
X80182714Y-48779857D01*
X80182714Y-48887000D01*
X80218428Y-48958428D01*
X80468428Y-48637000D02*
X80432714Y-48708428D01*
X80432714Y-48851285D01*
X80468428Y-48922714D01*
X80504142Y-48958428D01*
X80575571Y-48994142D01*
X80789857Y-48994142D01*
X80861285Y-48958428D01*
X80897000Y-48922714D01*
X80932714Y-48851285D01*
X80932714Y-48708428D01*
X80897000Y-48637000D01*
X80468428Y-47994142D02*
X80432714Y-48065571D01*
X80432714Y-48208428D01*
X80468428Y-48279857D01*
X80539857Y-48315571D01*
X80825571Y-48315571D01*
X80897000Y-48279857D01*
X80932714Y-48208428D01*
X80932714Y-48065571D01*
X80897000Y-47994142D01*
X80825571Y-47958428D01*
X80754142Y-47958428D01*
X80682714Y-48315571D01*
X80468428Y-47672714D02*
X80432714Y-47565571D01*
X80432714Y-47387000D01*
X80468428Y-47315571D01*
X80504142Y-47279857D01*
X80575571Y-47244142D01*
X80647000Y-47244142D01*
X80718428Y-47279857D01*
X80754142Y-47315571D01*
X80789857Y-47387000D01*
X80825571Y-47529857D01*
X80861285Y-47601285D01*
X80897000Y-47637000D01*
X80968428Y-47672714D01*
X81039857Y-47672714D01*
X81111285Y-47637000D01*
X81147000Y-47601285D01*
X81182714Y-47529857D01*
X81182714Y-47351285D01*
X81147000Y-47244142D01*
X80932714Y-47029857D02*
X80932714Y-46744142D01*
X81182714Y-46922714D02*
X80539857Y-46922714D01*
X80468428Y-46887000D01*
X80432714Y-46815571D01*
X80432714Y-46744142D01*
X80432714Y-46494142D02*
X80932714Y-46494142D01*
X81182714Y-46494142D02*
X81147000Y-46529857D01*
X81111285Y-46494142D01*
X81147000Y-46458428D01*
X81182714Y-46494142D01*
X81111285Y-46494142D01*
X80468428Y-45815571D02*
X80432714Y-45887000D01*
X80432714Y-46029857D01*
X80468428Y-46101285D01*
X80504142Y-46137000D01*
X80575571Y-46172714D01*
X80789857Y-46172714D01*
X80861285Y-46137000D01*
X80897000Y-46101285D01*
X80932714Y-46029857D01*
X80932714Y-45887000D01*
X80897000Y-45815571D01*
X80432714Y-45494142D02*
X81182714Y-45494142D01*
X80718428Y-45422714D02*
X80432714Y-45208428D01*
X80932714Y-45208428D02*
X80647000Y-45494142D01*
D11*
X109587066Y-53848800D02*
X109353733Y-53848800D01*
X109253733Y-54215466D02*
X109587066Y-54215466D01*
X109587066Y-53515466D01*
X109253733Y-53515466D01*
X108987066Y-54182133D02*
X108887066Y-54215466D01*
X108720400Y-54215466D01*
X108653733Y-54182133D01*
X108620400Y-54148800D01*
X108587066Y-54082133D01*
X108587066Y-54015466D01*
X108620400Y-53948800D01*
X108653733Y-53915466D01*
X108720400Y-53882133D01*
X108853733Y-53848800D01*
X108920400Y-53815466D01*
X108953733Y-53782133D01*
X108987066Y-53715466D01*
X108987066Y-53648800D01*
X108953733Y-53582133D01*
X108920400Y-53548800D01*
X108853733Y-53515466D01*
X108687066Y-53515466D01*
X108587066Y-53548800D01*
X108287066Y-54215466D02*
X108287066Y-53515466D01*
X108020400Y-53515466D01*
X107953733Y-53548800D01*
X107920400Y-53582133D01*
X107887066Y-53648800D01*
X107887066Y-53748800D01*
X107920400Y-53815466D01*
X107953733Y-53848800D01*
X108020400Y-53882133D01*
X108287066Y-53882133D01*
X107653733Y-53515466D02*
X107220400Y-53515466D01*
X107453733Y-53782133D01*
X107353733Y-53782133D01*
X107287066Y-53815466D01*
X107253733Y-53848800D01*
X107220400Y-53915466D01*
X107220400Y-54082133D01*
X107253733Y-54148800D01*
X107287066Y-54182133D01*
X107353733Y-54215466D01*
X107553733Y-54215466D01*
X107620400Y-54182133D01*
X107653733Y-54148800D01*
X106953733Y-53582133D02*
X106920400Y-53548800D01*
X106853733Y-53515466D01*
X106687066Y-53515466D01*
X106620400Y-53548800D01*
X106587066Y-53582133D01*
X106553733Y-53648800D01*
X106553733Y-53715466D01*
X106587066Y-53815466D01*
X106987066Y-54215466D01*
X106553733Y-54215466D01*
X106287066Y-54182133D02*
X106187066Y-54215466D01*
X106020400Y-54215466D01*
X105953733Y-54182133D01*
X105920400Y-54148800D01*
X105887066Y-54082133D01*
X105887066Y-54015466D01*
X105920400Y-53948800D01*
X105953733Y-53915466D01*
X106020400Y-53882133D01*
X106153733Y-53848800D01*
X106220400Y-53815466D01*
X106253733Y-53782133D01*
X106287066Y-53715466D01*
X106287066Y-53648800D01*
X106253733Y-53582133D01*
X106220400Y-53548800D01*
X106153733Y-53515466D01*
X105987066Y-53515466D01*
X105887066Y-53548800D01*
X105620400Y-53582133D02*
X105587066Y-53548800D01*
X105520400Y-53515466D01*
X105353733Y-53515466D01*
X105287066Y-53548800D01*
X105253733Y-53582133D01*
X105220400Y-53648800D01*
X105220400Y-53715466D01*
X105253733Y-53815466D01*
X105653733Y-54215466D01*
X105220400Y-54215466D01*
X104920400Y-53948800D02*
X104387066Y-53948800D01*
X104053733Y-54215466D02*
X104053733Y-53515466D01*
X103653733Y-54215466D02*
X103953733Y-53815466D01*
X103653733Y-53515466D02*
X104053733Y-53915466D01*
X103087066Y-54182133D02*
X103153733Y-54215466D01*
X103287066Y-54215466D01*
X103353733Y-54182133D01*
X103387066Y-54115466D01*
X103387066Y-53848800D01*
X103353733Y-53782133D01*
X103287066Y-53748800D01*
X103153733Y-53748800D01*
X103087066Y-53782133D01*
X103053733Y-53848800D01*
X103053733Y-53915466D01*
X103387066Y-53982133D01*
X102820400Y-53748800D02*
X102653733Y-54215466D01*
X102487066Y-53748800D02*
X102653733Y-54215466D01*
X102720400Y-54382133D01*
X102753733Y-54415466D01*
X102820400Y-54448800D01*
D12*
X87833200Y-37592000D02*
X87833200Y-38150800D01*
X90017600Y-37592000D02*
X87833200Y-37592000D01*
X90017600Y-38150800D02*
X90017600Y-37592000D01*
X87833200Y-45669200D02*
X90068400Y-45669200D01*
X87833200Y-38150800D02*
X87833200Y-45669200D01*
X90017600Y-38150800D02*
X90068400Y-45669200D01*
D11*
X88613500Y-38181733D02*
X88580166Y-38115066D01*
X88580166Y-38015066D01*
X88613500Y-37915066D01*
X88680166Y-37848400D01*
X88746833Y-37815066D01*
X88880166Y-37781733D01*
X88980166Y-37781733D01*
X89113500Y-37815066D01*
X89180166Y-37848400D01*
X89246833Y-37915066D01*
X89280166Y-38015066D01*
X89280166Y-38081733D01*
X89246833Y-38181733D01*
X89213500Y-38215066D01*
X88980166Y-38215066D01*
X88980166Y-38081733D01*
X88913500Y-43373000D02*
X88946833Y-43473000D01*
X88980166Y-43506333D01*
X89046833Y-43539666D01*
X89146833Y-43539666D01*
X89213500Y-43506333D01*
X89246833Y-43473000D01*
X89280166Y-43406333D01*
X89280166Y-43139666D01*
X88580166Y-43139666D01*
X88580166Y-43373000D01*
X88613500Y-43439666D01*
X88646833Y-43473000D01*
X88713500Y-43506333D01*
X88780166Y-43506333D01*
X88846833Y-43473000D01*
X88880166Y-43439666D01*
X88913500Y-43373000D01*
X88913500Y-43139666D01*
X89080166Y-43806333D02*
X89080166Y-44139666D01*
X89280166Y-43739666D02*
X88580166Y-43973000D01*
X89280166Y-44206333D01*
X88580166Y-44339666D02*
X88580166Y-44739666D01*
X89280166Y-44539666D02*
X88580166Y-44539666D01*
X89013500Y-44973000D02*
X89013500Y-45506333D01*
X89280166Y-45239666D02*
X88746833Y-45239666D01*
D13*
X117022571Y-51477871D02*
X116879714Y-51525490D01*
X116832095Y-51573109D01*
X116784476Y-51668347D01*
X116784476Y-51811204D01*
X116832095Y-51906442D01*
X116879714Y-51954061D01*
X116974952Y-52001680D01*
X117355904Y-52001680D01*
X117355904Y-51001680D01*
X117022571Y-51001680D01*
X116927333Y-51049300D01*
X116879714Y-51096919D01*
X116832095Y-51192157D01*
X116832095Y-51287395D01*
X116879714Y-51382633D01*
X116927333Y-51430252D01*
X117022571Y-51477871D01*
X117355904Y-51477871D01*
X113482476Y-51938180D02*
X113815809Y-51461990D01*
X114053904Y-51938180D02*
X114053904Y-50938180D01*
X113672952Y-50938180D01*
X113577714Y-50985800D01*
X113530095Y-51033419D01*
X113482476Y-51128657D01*
X113482476Y-51271514D01*
X113530095Y-51366752D01*
X113577714Y-51414371D01*
X113672952Y-51461990D01*
X114053904Y-51461990D01*
D12*
X137320000Y-57310000D02*
X130570000Y-57310000D01*
X106320000Y-57310000D02*
X106320000Y-39310000D01*
X130570000Y-39310000D02*
X137320000Y-39310000D01*
X137320000Y-39310000D02*
X137320000Y-57310000D01*
X106570000Y-57310000D02*
X106320000Y-57310000D01*
X106570000Y-39310000D02*
X106320000Y-39310000D01*
X131010000Y-39310000D02*
X130990000Y-57310000D01*
D13*
X89846170Y-41846500D02*
G75*
G03*
X89846170Y-41846500I-882170J0D01*
G01*
D14*
X93208878Y-47488295D02*
X93208878Y-46978149D01*
X94614481Y-53623901D02*
X95678055Y-53623901D01*
X98475257Y-46503595D02*
X98475257Y-45115525D01*
X101226511Y-47292541D02*
X101226511Y-47838278D01*
X104107773Y-49653608D02*
X104107773Y-50225341D01*
X93208878Y-46978149D02*
X94351411Y-46978149D01*
X93485313Y-53905022D02*
X92932443Y-53905022D01*
X97441944Y-45115525D02*
X97441944Y-46503595D01*
X103080592Y-51669209D02*
X104136844Y-51669209D01*
X95840324Y-47405248D02*
X95383566Y-47405248D01*
X94351411Y-44293965D02*
X93825693Y-44293965D01*
X93825693Y-43220240D02*
X94351411Y-43220240D01*
X103080592Y-48369633D02*
X104136844Y-48369633D01*
X94137877Y-42198546D02*
X93087803Y-42198546D01*
X95383566Y-47405248D02*
X95383566Y-46189203D01*
X94137877Y-41697159D02*
X94137877Y-42198546D01*
X93087803Y-42198546D02*
X93087803Y-41697159D01*
X97002981Y-45115525D02*
X97441944Y-45115525D01*
X104136844Y-51669209D02*
X104136844Y-52207025D01*
X103080592Y-52207025D02*
X103080592Y-51669209D01*
X103022449Y-50225341D02*
X103022449Y-49653608D01*
X103080592Y-48854152D02*
X103080592Y-48369633D01*
X93825693Y-44293965D02*
X93825693Y-43220240D01*
X99534881Y-41834331D02*
X99007971Y-41834331D01*
X99007971Y-46503595D02*
X98475257Y-46503595D01*
X104136844Y-48854152D02*
X103080592Y-48854152D01*
X92932443Y-53905022D02*
X92932443Y-52841448D01*
X99534881Y-40694385D02*
X99534881Y-41834331D01*
X99007971Y-40694385D02*
X99534881Y-40694385D01*
X99007971Y-41834331D02*
X99007971Y-40694385D01*
X99945215Y-47838278D02*
X99945215Y-47292541D01*
X99945215Y-47292541D02*
X101226511Y-47292541D01*
X97051597Y-42312068D02*
X95027129Y-42312068D01*
X97441944Y-46503595D02*
X97002981Y-46503595D01*
X104107773Y-50225341D02*
X103022449Y-50225341D01*
X95383566Y-46189203D02*
X95840324Y-46189203D01*
X97051597Y-41550527D02*
X97051597Y-42312068D01*
X94351411Y-47488295D02*
X93208878Y-47488295D01*
X92932443Y-52841448D02*
X93485313Y-52841448D01*
X101226511Y-47838278D02*
X99945215Y-47838278D01*
X104136844Y-52207025D02*
X103080592Y-52207025D01*
X94614481Y-54153345D02*
X94614481Y-53623901D01*
X94351411Y-46978149D02*
X94351411Y-47488295D01*
X103022449Y-49653608D02*
X104107773Y-49653608D01*
X95840324Y-46189203D02*
X95840324Y-47405248D01*
X94351411Y-43220240D02*
X94351411Y-44293965D01*
X93087803Y-41697159D02*
X94137877Y-41697159D01*
X98475257Y-45115525D02*
X99007971Y-45115525D01*
X93485313Y-52841448D02*
X93485313Y-53905022D01*
X97002981Y-46503595D02*
X97002981Y-45115525D01*
X99007971Y-45115525D02*
X99007971Y-46503595D01*
X104136844Y-48369633D02*
X104136844Y-48854152D01*
X100504544Y-46583317D02*
X99743004Y-46583317D01*
X95027129Y-42312068D02*
X95027129Y-41550527D01*
X93087803Y-48559042D02*
X93087803Y-51476487D01*
X93337803Y-48809042D02*
X94777129Y-48809042D01*
X96089511Y-58415584D02*
X96089511Y-56699199D01*
X97359511Y-56699199D02*
X98220891Y-56699199D01*
X93087803Y-48559042D02*
X93337803Y-48809042D01*
X99007971Y-44195649D02*
X97612150Y-42773404D01*
X98976733Y-47113084D02*
X98976733Y-47884085D01*
X97708054Y-48915584D02*
X101740333Y-48915584D01*
X98976733Y-47884085D02*
X96933346Y-47884085D01*
X101169510Y-58415584D02*
X101169510Y-56699199D01*
X100504544Y-44521008D02*
X100504544Y-46583317D01*
X94777129Y-51226487D02*
X95027129Y-51476487D01*
X95027129Y-48559042D02*
X93087803Y-48559042D01*
X101169510Y-56699199D02*
X102030890Y-56699199D01*
X93549511Y-58415584D02*
X93549511Y-56699199D01*
X96933346Y-47113084D02*
X98976733Y-47113084D01*
X96933346Y-47884085D02*
X96933346Y-47113084D01*
X99743004Y-46583317D02*
X99743004Y-44521008D01*
X94410891Y-56699199D02*
X94410891Y-58415584D01*
X99899510Y-58415584D02*
X99899510Y-56699199D01*
X97708054Y-52995443D02*
X97708054Y-48915584D01*
X100760890Y-56699199D02*
X100760890Y-58415584D01*
X98220891Y-56699199D02*
X98220891Y-58415584D01*
X95680891Y-56699199D02*
X95680891Y-58415584D01*
X93674556Y-39415584D02*
X93674556Y-41186619D01*
X98162592Y-42252378D02*
X99570340Y-43663333D01*
X92803162Y-41186619D02*
X92803162Y-39415584D01*
X95027129Y-41550527D02*
X97051597Y-41550527D01*
X98629510Y-58415584D02*
X98629510Y-56699199D01*
X99743004Y-44521008D02*
X100504544Y-44521008D01*
X102439510Y-58415584D02*
X102439510Y-56699199D01*
X93674556Y-41186619D02*
X92803162Y-41186619D01*
X94819511Y-56699199D02*
X95680891Y-56699199D01*
X103300890Y-56699199D02*
X103300890Y-58415584D01*
X97612150Y-42773404D02*
X98162592Y-42252378D01*
X102439510Y-56699199D02*
X103300890Y-56699199D01*
X99899510Y-56699199D02*
X100760890Y-56699199D01*
X95954556Y-39415584D02*
X95954556Y-41186619D01*
X98629510Y-56699199D02*
X99490890Y-56699199D01*
X93549511Y-56699199D02*
X94410891Y-56699199D01*
X95083162Y-41186619D02*
X95083162Y-39415584D01*
X101740333Y-48915584D02*
X101740333Y-52995443D01*
X95920466Y-39415584D02*
X104975257Y-39415584D01*
X101740333Y-52995443D02*
X97708054Y-52995443D01*
X93087803Y-51476487D02*
X95027129Y-51476487D01*
X93640466Y-39415584D02*
X95120466Y-39415584D01*
X94777129Y-48809042D02*
X94777129Y-51226487D01*
X93087803Y-51476487D02*
X93337803Y-51226487D01*
X99490890Y-56699199D02*
X99490890Y-58415584D01*
X95954556Y-41186619D02*
X95083162Y-41186619D01*
X93337803Y-51226487D02*
X93337803Y-48809042D01*
X94777129Y-48809042D02*
X95027129Y-48559042D01*
X99930000Y-58415584D02*
X99460000Y-58415584D01*
X99570340Y-43663333D02*
X99007971Y-44195649D01*
X95027129Y-51476487D02*
X95027129Y-48559042D01*
X91975257Y-39415584D02*
X92840466Y-39415584D01*
X97359511Y-58415584D02*
X97359511Y-56699199D01*
X96089511Y-56699199D02*
X96950891Y-56699199D01*
X94777129Y-51226487D02*
X93337803Y-51226487D01*
X94819511Y-58415584D02*
X94819511Y-56699199D01*
X96950891Y-56699199D02*
X96950891Y-58415584D01*
X102030890Y-56699199D02*
X102030890Y-58415584D01*
X101200000Y-58415584D02*
X100730000Y-58415584D01*
X98660000Y-58415584D02*
X98190001Y-58415584D01*
X94850001Y-58415584D02*
X94380001Y-58415584D01*
X97390001Y-58415584D02*
X96920001Y-58415584D01*
X102470000Y-58415584D02*
X102000000Y-58415584D01*
X104975257Y-39415584D02*
X104975257Y-58415584D01*
X91975257Y-58415584D02*
X91975257Y-39415584D01*
X93580001Y-58415584D02*
X91975257Y-58415584D01*
X104975257Y-58415584D02*
X103270000Y-58415584D01*
X96120001Y-58415584D02*
X95650001Y-58415584D01*
X96950891Y-58415584D02*
G75*
G03*
X96089511Y-58415584I-430690J0D01*
G01*
X103270000Y-58415584D02*
G75*
G03*
X102470000Y-58415584I-400000J0D01*
G01*
X102030890Y-58415584D02*
G75*
G03*
X101169510Y-58415584I-430690J0D01*
G01*
X95650001Y-58415584D02*
G75*
G03*
X94850001Y-58415584I-400000J0D01*
G01*
X100760890Y-58415584D02*
G75*
G03*
X99899510Y-58415584I-430690J0D01*
G01*
X94380001Y-58415584D02*
G75*
G03*
X93580001Y-58415584I-400000J0D01*
G01*
X98220891Y-58415584D02*
G75*
G03*
X97359511Y-58415584I-430690J0D01*
G01*
X95680891Y-58415584D02*
G75*
G03*
X94819511Y-58415584I-430690J0D01*
G01*
X96920001Y-58415584D02*
G75*
G03*
X96120001Y-58415584I-400000J0D01*
G01*
X103300890Y-58415584D02*
G75*
G03*
X102439510Y-58415584I-430690J0D01*
G01*
X99460000Y-58415584D02*
G75*
G03*
X98660000Y-58415584I-400000J0D01*
G01*
X99490890Y-58415584D02*
G75*
G03*
X98629510Y-58415584I-430690J0D01*
G01*
X92840466Y-39415584D02*
G75*
G03*
X93640466Y-39415584I400000J0D01*
G01*
X94410891Y-58415584D02*
G75*
G03*
X93549511Y-58415584I-430690J0D01*
G01*
X102000000Y-58415584D02*
G75*
G03*
X101200000Y-58415584I-400000J0D01*
G01*
X95120466Y-39415584D02*
G75*
G03*
X95920466Y-39415584I400000J0D01*
G01*
X100730000Y-58415584D02*
G75*
G03*
X99930000Y-58415584I-400000J0D01*
G01*
X98190001Y-58415584D02*
G75*
G03*
X97390001Y-58415584I-400000J0D01*
G01*
D13*
X122769380Y-44513595D02*
X123578904Y-44513595D01*
X123674142Y-44561214D01*
X123721761Y-44608833D01*
X123769380Y-44704071D01*
X123769380Y-44894547D01*
X123721761Y-44989785D01*
X123674142Y-45037404D01*
X123578904Y-45085023D01*
X122769380Y-45085023D01*
X122864619Y-45513595D02*
X122817000Y-45561214D01*
X122769380Y-45656452D01*
X122769380Y-45894547D01*
X122817000Y-45989785D01*
X122864619Y-46037404D01*
X122959857Y-46085023D01*
X123055095Y-46085023D01*
X123197952Y-46037404D01*
X123769380Y-45465976D01*
X123769380Y-46085023D01*
X130279380Y-55817714D02*
X130279380Y-55246285D01*
X130279380Y-55532000D02*
X129279380Y-55532000D01*
X129422238Y-55436761D01*
X129517476Y-55341523D01*
X129565095Y-55246285D01*
X108435380Y-54833523D02*
X108435380Y-54262095D01*
X108435380Y-54547809D02*
X107435380Y-54547809D01*
X107578238Y-54452571D01*
X107673476Y-54357333D01*
X107721095Y-54262095D01*
X107435380Y-55166857D02*
X107435380Y-55833523D01*
X108435380Y-55404952D01*
X107530619Y-40800095D02*
X107483000Y-40847714D01*
X107435380Y-40942952D01*
X107435380Y-41181047D01*
X107483000Y-41276285D01*
X107530619Y-41323904D01*
X107625857Y-41371523D01*
X107721095Y-41371523D01*
X107863952Y-41323904D01*
X108435380Y-40752476D01*
X108435380Y-41371523D01*
X107435380Y-42228666D02*
X107435380Y-42038190D01*
X107483000Y-41942952D01*
X107530619Y-41895333D01*
X107673476Y-41800095D01*
X107863952Y-41752476D01*
X108244904Y-41752476D01*
X108340142Y-41800095D01*
X108387761Y-41847714D01*
X108435380Y-41942952D01*
X108435380Y-42133428D01*
X108387761Y-42228666D01*
X108340142Y-42276285D01*
X108244904Y-42323904D01*
X108006809Y-42323904D01*
X107911571Y-42276285D01*
X107863952Y-42228666D01*
X107816333Y-42133428D01*
X107816333Y-41942952D01*
X107863952Y-41847714D01*
X107911571Y-41800095D01*
X108006809Y-41752476D01*
X129612714Y-41276285D02*
X130279380Y-41276285D01*
X129231761Y-41038190D02*
X129946047Y-40800095D01*
X129946047Y-41419142D01*
X129374619Y-41752476D02*
X129327000Y-41800095D01*
X129279380Y-41895333D01*
X129279380Y-42133428D01*
X129327000Y-42228666D01*
X129374619Y-42276285D01*
X129469857Y-42323904D01*
X129565095Y-42323904D01*
X129707952Y-42276285D01*
X130279380Y-41704857D01*
X130279380Y-42323904D01*
D11*
X102470471Y-54466600D02*
X103130471Y-54686600D01*
X102470471Y-54906600D01*
X103067614Y-55503742D02*
X103099042Y-55472314D01*
X103130471Y-55378028D01*
X103130471Y-55315171D01*
X103099042Y-55220885D01*
X103036185Y-55158028D01*
X102973328Y-55126600D01*
X102847614Y-55095171D01*
X102753328Y-55095171D01*
X102627614Y-55126600D01*
X102564757Y-55158028D01*
X102501900Y-55220885D01*
X102470471Y-55315171D01*
X102470471Y-55378028D01*
X102501900Y-55472314D01*
X102533328Y-55503742D01*
X103067614Y-56163742D02*
X103099042Y-56132314D01*
X103130471Y-56038028D01*
X103130471Y-55975171D01*
X103099042Y-55880885D01*
X103036185Y-55818028D01*
X102973328Y-55786600D01*
X102847614Y-55755171D01*
X102753328Y-55755171D01*
X102627614Y-55786600D01*
X102564757Y-55818028D01*
X102501900Y-55880885D01*
X102470471Y-55975171D01*
X102470471Y-56038028D01*
X102501900Y-56132314D01*
X102533328Y-56163742D01*
X101143000Y-54224657D02*
X101111571Y-54161800D01*
X101111571Y-54067514D01*
X101143000Y-53973228D01*
X101205857Y-53910371D01*
X101268714Y-53878942D01*
X101394428Y-53847514D01*
X101488714Y-53847514D01*
X101614428Y-53878942D01*
X101677285Y-53910371D01*
X101740142Y-53973228D01*
X101771571Y-54067514D01*
X101771571Y-54130371D01*
X101740142Y-54224657D01*
X101708714Y-54256085D01*
X101488714Y-54256085D01*
X101488714Y-54130371D01*
X101771571Y-54538942D02*
X101111571Y-54538942D01*
X101111571Y-54696085D01*
X101143000Y-54790371D01*
X101205857Y-54853228D01*
X101268714Y-54884657D01*
X101394428Y-54916085D01*
X101488714Y-54916085D01*
X101614428Y-54884657D01*
X101677285Y-54853228D01*
X101740142Y-54790371D01*
X101771571Y-54696085D01*
X101771571Y-54538942D01*
X101111571Y-55324657D02*
X101111571Y-55450371D01*
X101143000Y-55513228D01*
X101205857Y-55576085D01*
X101331571Y-55607514D01*
X101551571Y-55607514D01*
X101677285Y-55576085D01*
X101740142Y-55513228D01*
X101771571Y-55450371D01*
X101771571Y-55324657D01*
X101740142Y-55261800D01*
X101677285Y-55198942D01*
X101551571Y-55167514D01*
X101331571Y-55167514D01*
X101205857Y-55198942D01*
X101143000Y-55261800D01*
X101111571Y-55324657D01*
X101111571Y-56016085D02*
X101111571Y-56078942D01*
X101143000Y-56141800D01*
X101174428Y-56173228D01*
X101237285Y-56204657D01*
X101363000Y-56236085D01*
X101520142Y-56236085D01*
X101645857Y-56204657D01*
X101708714Y-56173228D01*
X101740142Y-56141800D01*
X101771571Y-56078942D01*
X101771571Y-56016085D01*
X101740142Y-55953228D01*
X101708714Y-55921800D01*
X101645857Y-55890371D01*
X101520142Y-55858942D01*
X101363000Y-55858942D01*
X101237285Y-55890371D01*
X101174428Y-55921800D01*
X101143000Y-55953228D01*
X101111571Y-56016085D01*
X100464114Y-54865485D02*
X100495542Y-54834057D01*
X100526971Y-54739771D01*
X100526971Y-54676914D01*
X100495542Y-54582628D01*
X100432685Y-54519771D01*
X100369828Y-54488342D01*
X100244114Y-54456914D01*
X100149828Y-54456914D01*
X100024114Y-54488342D01*
X99961257Y-54519771D01*
X99898400Y-54582628D01*
X99866971Y-54676914D01*
X99866971Y-54739771D01*
X99898400Y-54834057D01*
X99929828Y-54865485D01*
X100495542Y-55116914D02*
X100526971Y-55211200D01*
X100526971Y-55368342D01*
X100495542Y-55431200D01*
X100464114Y-55462628D01*
X100401257Y-55494057D01*
X100338400Y-55494057D01*
X100275542Y-55462628D01*
X100244114Y-55431200D01*
X100212685Y-55368342D01*
X100181257Y-55242628D01*
X100149828Y-55179771D01*
X100118400Y-55148342D01*
X100055542Y-55116914D01*
X99992685Y-55116914D01*
X99929828Y-55148342D01*
X99898400Y-55179771D01*
X99866971Y-55242628D01*
X99866971Y-55399771D01*
X99898400Y-55494057D01*
X100526971Y-55776914D02*
X99866971Y-55776914D01*
X100526971Y-56154057D01*
X99866971Y-56154057D01*
X99276342Y-54472628D02*
X99307771Y-54566914D01*
X99307771Y-54724057D01*
X99276342Y-54786914D01*
X99244914Y-54818342D01*
X99182057Y-54849771D01*
X99119200Y-54849771D01*
X99056342Y-54818342D01*
X99024914Y-54786914D01*
X98993485Y-54724057D01*
X98962057Y-54598342D01*
X98930628Y-54535485D01*
X98899200Y-54504057D01*
X98836342Y-54472628D01*
X98773485Y-54472628D01*
X98710628Y-54504057D01*
X98679200Y-54535485D01*
X98647771Y-54598342D01*
X98647771Y-54755485D01*
X98679200Y-54849771D01*
X99244914Y-55509771D02*
X99276342Y-55478342D01*
X99307771Y-55384057D01*
X99307771Y-55321200D01*
X99276342Y-55226914D01*
X99213485Y-55164057D01*
X99150628Y-55132628D01*
X99024914Y-55101200D01*
X98930628Y-55101200D01*
X98804914Y-55132628D01*
X98742057Y-55164057D01*
X98679200Y-55226914D01*
X98647771Y-55321200D01*
X98647771Y-55384057D01*
X98679200Y-55478342D01*
X98710628Y-55509771D01*
X99307771Y-55792628D02*
X98647771Y-55792628D01*
X99307771Y-56169771D02*
X98930628Y-55886914D01*
X98647771Y-56169771D02*
X99024914Y-55792628D01*
X98037771Y-54106257D02*
X97377771Y-54106257D01*
X97849200Y-54326257D01*
X97377771Y-54546257D01*
X98037771Y-54546257D01*
X97377771Y-54986257D02*
X97377771Y-55111971D01*
X97409200Y-55174828D01*
X97472057Y-55237685D01*
X97597771Y-55269114D01*
X97817771Y-55269114D01*
X97943485Y-55237685D01*
X98006342Y-55174828D01*
X98037771Y-55111971D01*
X98037771Y-54986257D01*
X98006342Y-54923400D01*
X97943485Y-54860542D01*
X97817771Y-54829114D01*
X97597771Y-54829114D01*
X97472057Y-54860542D01*
X97409200Y-54923400D01*
X97377771Y-54986257D01*
X98006342Y-55520542D02*
X98037771Y-55614828D01*
X98037771Y-55771971D01*
X98006342Y-55834828D01*
X97974914Y-55866257D01*
X97912057Y-55897685D01*
X97849200Y-55897685D01*
X97786342Y-55866257D01*
X97754914Y-55834828D01*
X97723485Y-55771971D01*
X97692057Y-55646257D01*
X97660628Y-55583400D01*
X97629200Y-55551971D01*
X97566342Y-55520542D01*
X97503485Y-55520542D01*
X97440628Y-55551971D01*
X97409200Y-55583400D01*
X97377771Y-55646257D01*
X97377771Y-55803400D01*
X97409200Y-55897685D01*
X98037771Y-56180542D02*
X97377771Y-56180542D01*
X96805871Y-54118957D02*
X96145871Y-54118957D01*
X96617300Y-54338957D01*
X96145871Y-54558957D01*
X96805871Y-54558957D01*
X96805871Y-54873242D02*
X96145871Y-54873242D01*
X96774442Y-55156100D02*
X96805871Y-55250385D01*
X96805871Y-55407528D01*
X96774442Y-55470385D01*
X96743014Y-55501814D01*
X96680157Y-55533242D01*
X96617300Y-55533242D01*
X96554442Y-55501814D01*
X96523014Y-55470385D01*
X96491585Y-55407528D01*
X96460157Y-55281814D01*
X96428728Y-55218957D01*
X96397300Y-55187528D01*
X96334442Y-55156100D01*
X96271585Y-55156100D01*
X96208728Y-55187528D01*
X96177300Y-55218957D01*
X96145871Y-55281814D01*
X96145871Y-55438957D01*
X96177300Y-55533242D01*
X96145871Y-55941814D02*
X96145871Y-56067528D01*
X96177300Y-56130385D01*
X96240157Y-56193242D01*
X96365871Y-56224671D01*
X96585871Y-56224671D01*
X96711585Y-56193242D01*
X96774442Y-56130385D01*
X96805871Y-56067528D01*
X96805871Y-55941814D01*
X96774442Y-55878957D01*
X96711585Y-55816100D01*
X96585871Y-55784671D01*
X96365871Y-55784671D01*
X96240157Y-55816100D01*
X96177300Y-55878957D01*
X96145871Y-55941814D01*
X94907300Y-54338957D02*
X94875871Y-54276100D01*
X94875871Y-54181814D01*
X94907300Y-54087528D01*
X94970157Y-54024671D01*
X95033014Y-53993242D01*
X95158728Y-53961814D01*
X95253014Y-53961814D01*
X95378728Y-53993242D01*
X95441585Y-54024671D01*
X95504442Y-54087528D01*
X95535871Y-54181814D01*
X95535871Y-54244671D01*
X95504442Y-54338957D01*
X95473014Y-54370385D01*
X95253014Y-54370385D01*
X95253014Y-54244671D01*
X95535871Y-54653242D02*
X94875871Y-54653242D01*
X94875871Y-54810385D01*
X94907300Y-54904671D01*
X94970157Y-54967528D01*
X95033014Y-54998957D01*
X95158728Y-55030385D01*
X95253014Y-55030385D01*
X95378728Y-54998957D01*
X95441585Y-54967528D01*
X95504442Y-54904671D01*
X95535871Y-54810385D01*
X95535871Y-54653242D01*
X94875871Y-55438957D02*
X94875871Y-55564671D01*
X94907300Y-55627528D01*
X94970157Y-55690385D01*
X95095871Y-55721814D01*
X95315871Y-55721814D01*
X95441585Y-55690385D01*
X95504442Y-55627528D01*
X95535871Y-55564671D01*
X95535871Y-55438957D01*
X95504442Y-55376100D01*
X95441585Y-55313242D01*
X95315871Y-55281814D01*
X95095871Y-55281814D01*
X94970157Y-55313242D01*
X94907300Y-55376100D01*
X94875871Y-55438957D01*
X94938728Y-55973242D02*
X94907300Y-56004671D01*
X94875871Y-56067528D01*
X94875871Y-56224671D01*
X94907300Y-56287528D01*
X94938728Y-56318957D01*
X95001585Y-56350385D01*
X95064442Y-56350385D01*
X95158728Y-56318957D01*
X95535871Y-55941814D01*
X95535871Y-56350385D01*
X93611900Y-54881842D02*
X93580471Y-54818985D01*
X93580471Y-54724700D01*
X93611900Y-54630414D01*
X93674757Y-54567557D01*
X93737614Y-54536128D01*
X93863328Y-54504700D01*
X93957614Y-54504700D01*
X94083328Y-54536128D01*
X94146185Y-54567557D01*
X94209042Y-54630414D01*
X94240471Y-54724700D01*
X94240471Y-54787557D01*
X94209042Y-54881842D01*
X94177614Y-54913271D01*
X93957614Y-54913271D01*
X93957614Y-54787557D01*
X94240471Y-55196128D02*
X93580471Y-55196128D01*
X94240471Y-55573271D01*
X93580471Y-55573271D01*
X94240471Y-55887557D02*
X93580471Y-55887557D01*
X93580471Y-56044700D01*
X93611900Y-56138985D01*
X93674757Y-56201842D01*
X93737614Y-56233271D01*
X93863328Y-56264700D01*
X93957614Y-56264700D01*
X94083328Y-56233271D01*
X94146185Y-56201842D01*
X94209042Y-56138985D01*
X94240471Y-56044700D01*
X94240471Y-55887557D01*
X93264500Y-42667014D02*
X93264500Y-42981300D01*
X93453071Y-42604157D02*
X92793071Y-42824157D01*
X93453071Y-43044157D01*
X93453071Y-43264157D02*
X92793071Y-43264157D01*
X93453071Y-43641300D01*
X92793071Y-43641300D01*
X92793071Y-43861300D02*
X92793071Y-44238442D01*
X93453071Y-44049871D02*
X92793071Y-44049871D01*
X95174000Y-42994642D02*
X95142571Y-42931785D01*
X95142571Y-42837500D01*
X95174000Y-42743214D01*
X95236857Y-42680357D01*
X95299714Y-42648928D01*
X95425428Y-42617500D01*
X95519714Y-42617500D01*
X95645428Y-42648928D01*
X95708285Y-42680357D01*
X95771142Y-42743214D01*
X95802571Y-42837500D01*
X95802571Y-42900357D01*
X95771142Y-42994642D01*
X95739714Y-43026071D01*
X95519714Y-43026071D01*
X95519714Y-42900357D01*
X95802571Y-43308928D02*
X95142571Y-43308928D01*
X95802571Y-43686071D01*
X95142571Y-43686071D01*
X95802571Y-44000357D02*
X95142571Y-44000357D01*
X95142571Y-44157500D01*
X95174000Y-44251785D01*
X95236857Y-44314642D01*
X95299714Y-44346071D01*
X95425428Y-44377500D01*
X95519714Y-44377500D01*
X95645428Y-44346071D01*
X95708285Y-44314642D01*
X95771142Y-44251785D01*
X95802571Y-44157500D01*
X95802571Y-44000357D01*
M02*
