G04 #@! TF.GenerationSoftware,KiCad,Pcbnew,(5.1.12)-1*
G04 #@! TF.CreationDate,2022-01-02T13:29:21+01:00*
G04 #@! TF.ProjectId,20210211_eduino,32303231-3032-4313-915f-656475696e6f,v1.0*
G04 #@! TF.SameCoordinates,Original*
G04 #@! TF.FileFunction,Soldermask,Bot*
G04 #@! TF.FilePolarity,Negative*
%FSLAX46Y46*%
G04 Gerber Fmt 4.6, Leading zero omitted, Abs format (unit mm)*
G04 Created by KiCad (PCBNEW (5.1.12)-1) date 2022-01-02 13:29:21*
%MOMM*%
%LPD*%
G01*
G04 APERTURE LIST*
%ADD10C,0.400000*%
%ADD11C,1.524000*%
%ADD12C,0.800000*%
%ADD13R,1.508000X1.508000*%
%ADD14C,1.508000*%
%ADD15C,1.250000*%
%ADD16O,3.150000X1.575000*%
G04 APERTURE END LIST*
G36*
G01*
X130198900Y-57810000D02*
X129441100Y-57810000D01*
G75*
G02*
X129370000Y-57738900I0J71100D01*
G01*
X129370000Y-56381100D01*
G75*
G02*
X129441100Y-56310000I71100J0D01*
G01*
X130198900Y-56310000D01*
G75*
G02*
X130270000Y-56381100I0J-71100D01*
G01*
X130270000Y-57738900D01*
G75*
G02*
X130198900Y-57810000I-71100J0D01*
G01*
G37*
G36*
G01*
X128698900Y-57810000D02*
X127941100Y-57810000D01*
G75*
G02*
X127870000Y-57738900I0J71100D01*
G01*
X127870000Y-56381100D01*
G75*
G02*
X127941100Y-56310000I71100J0D01*
G01*
X128698900Y-56310000D01*
G75*
G02*
X128770000Y-56381100I0J-71100D01*
G01*
X128770000Y-57738900D01*
G75*
G02*
X128698900Y-57810000I-71100J0D01*
G01*
G37*
G36*
G01*
X127198900Y-57810000D02*
X126441100Y-57810000D01*
G75*
G02*
X126370000Y-57738900I0J71100D01*
G01*
X126370000Y-56381100D01*
G75*
G02*
X126441100Y-56310000I71100J0D01*
G01*
X127198900Y-56310000D01*
G75*
G02*
X127270000Y-56381100I0J-71100D01*
G01*
X127270000Y-57738900D01*
G75*
G02*
X127198900Y-57810000I-71100J0D01*
G01*
G37*
G36*
G01*
X125698900Y-57810000D02*
X124941100Y-57810000D01*
G75*
G02*
X124870000Y-57738900I0J71100D01*
G01*
X124870000Y-56381100D01*
G75*
G02*
X124941100Y-56310000I71100J0D01*
G01*
X125698900Y-56310000D01*
G75*
G02*
X125770000Y-56381100I0J-71100D01*
G01*
X125770000Y-57738900D01*
G75*
G02*
X125698900Y-57810000I-71100J0D01*
G01*
G37*
G36*
G01*
X124198900Y-57810000D02*
X123441100Y-57810000D01*
G75*
G02*
X123370000Y-57738900I0J71100D01*
G01*
X123370000Y-56381100D01*
G75*
G02*
X123441100Y-56310000I71100J0D01*
G01*
X124198900Y-56310000D01*
G75*
G02*
X124270000Y-56381100I0J-71100D01*
G01*
X124270000Y-57738900D01*
G75*
G02*
X124198900Y-57810000I-71100J0D01*
G01*
G37*
G36*
G01*
X122698900Y-57810000D02*
X121941100Y-57810000D01*
G75*
G02*
X121870000Y-57738900I0J71100D01*
G01*
X121870000Y-56381100D01*
G75*
G02*
X121941100Y-56310000I71100J0D01*
G01*
X122698900Y-56310000D01*
G75*
G02*
X122770000Y-56381100I0J-71100D01*
G01*
X122770000Y-57738900D01*
G75*
G02*
X122698900Y-57810000I-71100J0D01*
G01*
G37*
G36*
G01*
X121198900Y-57810000D02*
X120441100Y-57810000D01*
G75*
G02*
X120370000Y-57738900I0J71100D01*
G01*
X120370000Y-56381100D01*
G75*
G02*
X120441100Y-56310000I71100J0D01*
G01*
X121198900Y-56310000D01*
G75*
G02*
X121270000Y-56381100I0J-71100D01*
G01*
X121270000Y-57738900D01*
G75*
G02*
X121198900Y-57810000I-71100J0D01*
G01*
G37*
G36*
G01*
X119698900Y-57810000D02*
X118941100Y-57810000D01*
G75*
G02*
X118870000Y-57738900I0J71100D01*
G01*
X118870000Y-56381100D01*
G75*
G02*
X118941100Y-56310000I71100J0D01*
G01*
X119698900Y-56310000D01*
G75*
G02*
X119770000Y-56381100I0J-71100D01*
G01*
X119770000Y-57738900D01*
G75*
G02*
X119698900Y-57810000I-71100J0D01*
G01*
G37*
G36*
G01*
X118198900Y-57810000D02*
X117441100Y-57810000D01*
G75*
G02*
X117370000Y-57738900I0J71100D01*
G01*
X117370000Y-56381100D01*
G75*
G02*
X117441100Y-56310000I71100J0D01*
G01*
X118198900Y-56310000D01*
G75*
G02*
X118270000Y-56381100I0J-71100D01*
G01*
X118270000Y-57738900D01*
G75*
G02*
X118198900Y-57810000I-71100J0D01*
G01*
G37*
G36*
G01*
X116698900Y-57810000D02*
X115941100Y-57810000D01*
G75*
G02*
X115870000Y-57738900I0J71100D01*
G01*
X115870000Y-56381100D01*
G75*
G02*
X115941100Y-56310000I71100J0D01*
G01*
X116698900Y-56310000D01*
G75*
G02*
X116770000Y-56381100I0J-71100D01*
G01*
X116770000Y-57738900D01*
G75*
G02*
X116698900Y-57810000I-71100J0D01*
G01*
G37*
G36*
G01*
X115198900Y-57810000D02*
X114441100Y-57810000D01*
G75*
G02*
X114370000Y-57738900I0J71100D01*
G01*
X114370000Y-56381100D01*
G75*
G02*
X114441100Y-56310000I71100J0D01*
G01*
X115198900Y-56310000D01*
G75*
G02*
X115270000Y-56381100I0J-71100D01*
G01*
X115270000Y-57738900D01*
G75*
G02*
X115198900Y-57810000I-71100J0D01*
G01*
G37*
G36*
G01*
X113698900Y-57810000D02*
X112941100Y-57810000D01*
G75*
G02*
X112870000Y-57738900I0J71100D01*
G01*
X112870000Y-56381100D01*
G75*
G02*
X112941100Y-56310000I71100J0D01*
G01*
X113698900Y-56310000D01*
G75*
G02*
X113770000Y-56381100I0J-71100D01*
G01*
X113770000Y-57738900D01*
G75*
G02*
X113698900Y-57810000I-71100J0D01*
G01*
G37*
G36*
G01*
X112198900Y-57810000D02*
X111441100Y-57810000D01*
G75*
G02*
X111370000Y-57738900I0J71100D01*
G01*
X111370000Y-56381100D01*
G75*
G02*
X111441100Y-56310000I71100J0D01*
G01*
X112198900Y-56310000D01*
G75*
G02*
X112270000Y-56381100I0J-71100D01*
G01*
X112270000Y-57738900D01*
G75*
G02*
X112198900Y-57810000I-71100J0D01*
G01*
G37*
G36*
G01*
X110698900Y-57810000D02*
X109941100Y-57810000D01*
G75*
G02*
X109870000Y-57738900I0J71100D01*
G01*
X109870000Y-56381100D01*
G75*
G02*
X109941100Y-56310000I71100J0D01*
G01*
X110698900Y-56310000D01*
G75*
G02*
X110770000Y-56381100I0J-71100D01*
G01*
X110770000Y-57738900D01*
G75*
G02*
X110698900Y-57810000I-71100J0D01*
G01*
G37*
G36*
G01*
X109198900Y-57810000D02*
X108441100Y-57810000D01*
G75*
G02*
X108370000Y-57738900I0J71100D01*
G01*
X108370000Y-56381100D01*
G75*
G02*
X108441100Y-56310000I71100J0D01*
G01*
X109198900Y-56310000D01*
G75*
G02*
X109270000Y-56381100I0J-71100D01*
G01*
X109270000Y-57738900D01*
G75*
G02*
X109198900Y-57810000I-71100J0D01*
G01*
G37*
G36*
G01*
X107698900Y-57810000D02*
X106941100Y-57810000D01*
G75*
G02*
X106870000Y-57738900I0J71100D01*
G01*
X106870000Y-56381100D01*
G75*
G02*
X106941100Y-56310000I71100J0D01*
G01*
X107698900Y-56310000D01*
G75*
G02*
X107770000Y-56381100I0J-71100D01*
G01*
X107770000Y-57738900D01*
G75*
G02*
X107698900Y-57810000I-71100J0D01*
G01*
G37*
G36*
G01*
X105820000Y-55438900D02*
X105820000Y-54681100D01*
G75*
G02*
X105891100Y-54610000I71100J0D01*
G01*
X107248900Y-54610000D01*
G75*
G02*
X107320000Y-54681100I0J-71100D01*
G01*
X107320000Y-55438900D01*
G75*
G02*
X107248900Y-55510000I-71100J0D01*
G01*
X105891100Y-55510000D01*
G75*
G02*
X105820000Y-55438900I0J71100D01*
G01*
G37*
G36*
G01*
X105820000Y-53938900D02*
X105820000Y-53181100D01*
G75*
G02*
X105891100Y-53110000I71100J0D01*
G01*
X107248900Y-53110000D01*
G75*
G02*
X107320000Y-53181100I0J-71100D01*
G01*
X107320000Y-53938900D01*
G75*
G02*
X107248900Y-54010000I-71100J0D01*
G01*
X105891100Y-54010000D01*
G75*
G02*
X105820000Y-53938900I0J71100D01*
G01*
G37*
G36*
G01*
X105820000Y-52438900D02*
X105820000Y-51681100D01*
G75*
G02*
X105891100Y-51610000I71100J0D01*
G01*
X107248900Y-51610000D01*
G75*
G02*
X107320000Y-51681100I0J-71100D01*
G01*
X107320000Y-52438900D01*
G75*
G02*
X107248900Y-52510000I-71100J0D01*
G01*
X105891100Y-52510000D01*
G75*
G02*
X105820000Y-52438900I0J71100D01*
G01*
G37*
G36*
G01*
X105820000Y-50938900D02*
X105820000Y-50181100D01*
G75*
G02*
X105891100Y-50110000I71100J0D01*
G01*
X107248900Y-50110000D01*
G75*
G02*
X107320000Y-50181100I0J-71100D01*
G01*
X107320000Y-50938900D01*
G75*
G02*
X107248900Y-51010000I-71100J0D01*
G01*
X105891100Y-51010000D01*
G75*
G02*
X105820000Y-50938900I0J71100D01*
G01*
G37*
G36*
G01*
X105820000Y-49438900D02*
X105820000Y-48681100D01*
G75*
G02*
X105891100Y-48610000I71100J0D01*
G01*
X107248900Y-48610000D01*
G75*
G02*
X107320000Y-48681100I0J-71100D01*
G01*
X107320000Y-49438900D01*
G75*
G02*
X107248900Y-49510000I-71100J0D01*
G01*
X105891100Y-49510000D01*
G75*
G02*
X105820000Y-49438900I0J71100D01*
G01*
G37*
G36*
G01*
X105820000Y-47938900D02*
X105820000Y-47181100D01*
G75*
G02*
X105891100Y-47110000I71100J0D01*
G01*
X107248900Y-47110000D01*
G75*
G02*
X107320000Y-47181100I0J-71100D01*
G01*
X107320000Y-47938900D01*
G75*
G02*
X107248900Y-48010000I-71100J0D01*
G01*
X105891100Y-48010000D01*
G75*
G02*
X105820000Y-47938900I0J71100D01*
G01*
G37*
G36*
G01*
X105820000Y-46438900D02*
X105820000Y-45681100D01*
G75*
G02*
X105891100Y-45610000I71100J0D01*
G01*
X107248900Y-45610000D01*
G75*
G02*
X107320000Y-45681100I0J-71100D01*
G01*
X107320000Y-46438900D01*
G75*
G02*
X107248900Y-46510000I-71100J0D01*
G01*
X105891100Y-46510000D01*
G75*
G02*
X105820000Y-46438900I0J71100D01*
G01*
G37*
G36*
G01*
X105820000Y-44938900D02*
X105820000Y-44181100D01*
G75*
G02*
X105891100Y-44110000I71100J0D01*
G01*
X107248900Y-44110000D01*
G75*
G02*
X107320000Y-44181100I0J-71100D01*
G01*
X107320000Y-44938900D01*
G75*
G02*
X107248900Y-45010000I-71100J0D01*
G01*
X105891100Y-45010000D01*
G75*
G02*
X105820000Y-44938900I0J71100D01*
G01*
G37*
G36*
G01*
X105820000Y-43438900D02*
X105820000Y-42681100D01*
G75*
G02*
X105891100Y-42610000I71100J0D01*
G01*
X107248900Y-42610000D01*
G75*
G02*
X107320000Y-42681100I0J-71100D01*
G01*
X107320000Y-43438900D01*
G75*
G02*
X107248900Y-43510000I-71100J0D01*
G01*
X105891100Y-43510000D01*
G75*
G02*
X105820000Y-43438900I0J71100D01*
G01*
G37*
G36*
G01*
X105820000Y-41938900D02*
X105820000Y-41181100D01*
G75*
G02*
X105891100Y-41110000I71100J0D01*
G01*
X107248900Y-41110000D01*
G75*
G02*
X107320000Y-41181100I0J-71100D01*
G01*
X107320000Y-41938900D01*
G75*
G02*
X107248900Y-42010000I-71100J0D01*
G01*
X105891100Y-42010000D01*
G75*
G02*
X105820000Y-41938900I0J71100D01*
G01*
G37*
G36*
G01*
X106941100Y-38810000D02*
X107698900Y-38810000D01*
G75*
G02*
X107770000Y-38881100I0J-71100D01*
G01*
X107770000Y-40238900D01*
G75*
G02*
X107698900Y-40310000I-71100J0D01*
G01*
X106941100Y-40310000D01*
G75*
G02*
X106870000Y-40238900I0J71100D01*
G01*
X106870000Y-38881100D01*
G75*
G02*
X106941100Y-38810000I71100J0D01*
G01*
G37*
G36*
G01*
X108441100Y-38810000D02*
X109198900Y-38810000D01*
G75*
G02*
X109270000Y-38881100I0J-71100D01*
G01*
X109270000Y-40238900D01*
G75*
G02*
X109198900Y-40310000I-71100J0D01*
G01*
X108441100Y-40310000D01*
G75*
G02*
X108370000Y-40238900I0J71100D01*
G01*
X108370000Y-38881100D01*
G75*
G02*
X108441100Y-38810000I71100J0D01*
G01*
G37*
G36*
G01*
X109941100Y-38810000D02*
X110698900Y-38810000D01*
G75*
G02*
X110770000Y-38881100I0J-71100D01*
G01*
X110770000Y-40238900D01*
G75*
G02*
X110698900Y-40310000I-71100J0D01*
G01*
X109941100Y-40310000D01*
G75*
G02*
X109870000Y-40238900I0J71100D01*
G01*
X109870000Y-38881100D01*
G75*
G02*
X109941100Y-38810000I71100J0D01*
G01*
G37*
G36*
G01*
X111441100Y-38810000D02*
X112198900Y-38810000D01*
G75*
G02*
X112270000Y-38881100I0J-71100D01*
G01*
X112270000Y-40238900D01*
G75*
G02*
X112198900Y-40310000I-71100J0D01*
G01*
X111441100Y-40310000D01*
G75*
G02*
X111370000Y-40238900I0J71100D01*
G01*
X111370000Y-38881100D01*
G75*
G02*
X111441100Y-38810000I71100J0D01*
G01*
G37*
G36*
G01*
X112941100Y-38810000D02*
X113698900Y-38810000D01*
G75*
G02*
X113770000Y-38881100I0J-71100D01*
G01*
X113770000Y-40238900D01*
G75*
G02*
X113698900Y-40310000I-71100J0D01*
G01*
X112941100Y-40310000D01*
G75*
G02*
X112870000Y-40238900I0J71100D01*
G01*
X112870000Y-38881100D01*
G75*
G02*
X112941100Y-38810000I71100J0D01*
G01*
G37*
G36*
G01*
X114441100Y-38810000D02*
X115198900Y-38810000D01*
G75*
G02*
X115270000Y-38881100I0J-71100D01*
G01*
X115270000Y-40238900D01*
G75*
G02*
X115198900Y-40310000I-71100J0D01*
G01*
X114441100Y-40310000D01*
G75*
G02*
X114370000Y-40238900I0J71100D01*
G01*
X114370000Y-38881100D01*
G75*
G02*
X114441100Y-38810000I71100J0D01*
G01*
G37*
G36*
G01*
X115941100Y-38810000D02*
X116698900Y-38810000D01*
G75*
G02*
X116770000Y-38881100I0J-71100D01*
G01*
X116770000Y-40238900D01*
G75*
G02*
X116698900Y-40310000I-71100J0D01*
G01*
X115941100Y-40310000D01*
G75*
G02*
X115870000Y-40238900I0J71100D01*
G01*
X115870000Y-38881100D01*
G75*
G02*
X115941100Y-38810000I71100J0D01*
G01*
G37*
G36*
G01*
X117441100Y-38810000D02*
X118198900Y-38810000D01*
G75*
G02*
X118270000Y-38881100I0J-71100D01*
G01*
X118270000Y-40238900D01*
G75*
G02*
X118198900Y-40310000I-71100J0D01*
G01*
X117441100Y-40310000D01*
G75*
G02*
X117370000Y-40238900I0J71100D01*
G01*
X117370000Y-38881100D01*
G75*
G02*
X117441100Y-38810000I71100J0D01*
G01*
G37*
G36*
G01*
X118941100Y-38810000D02*
X119698900Y-38810000D01*
G75*
G02*
X119770000Y-38881100I0J-71100D01*
G01*
X119770000Y-40238900D01*
G75*
G02*
X119698900Y-40310000I-71100J0D01*
G01*
X118941100Y-40310000D01*
G75*
G02*
X118870000Y-40238900I0J71100D01*
G01*
X118870000Y-38881100D01*
G75*
G02*
X118941100Y-38810000I71100J0D01*
G01*
G37*
G36*
G01*
X120441100Y-38810000D02*
X121198900Y-38810000D01*
G75*
G02*
X121270000Y-38881100I0J-71100D01*
G01*
X121270000Y-40238900D01*
G75*
G02*
X121198900Y-40310000I-71100J0D01*
G01*
X120441100Y-40310000D01*
G75*
G02*
X120370000Y-40238900I0J71100D01*
G01*
X120370000Y-38881100D01*
G75*
G02*
X120441100Y-38810000I71100J0D01*
G01*
G37*
G36*
G01*
X121941100Y-38810000D02*
X122698900Y-38810000D01*
G75*
G02*
X122770000Y-38881100I0J-71100D01*
G01*
X122770000Y-40238900D01*
G75*
G02*
X122698900Y-40310000I-71100J0D01*
G01*
X121941100Y-40310000D01*
G75*
G02*
X121870000Y-40238900I0J71100D01*
G01*
X121870000Y-38881100D01*
G75*
G02*
X121941100Y-38810000I71100J0D01*
G01*
G37*
G36*
G01*
X123441100Y-38810000D02*
X124198900Y-38810000D01*
G75*
G02*
X124270000Y-38881100I0J-71100D01*
G01*
X124270000Y-40238900D01*
G75*
G02*
X124198900Y-40310000I-71100J0D01*
G01*
X123441100Y-40310000D01*
G75*
G02*
X123370000Y-40238900I0J71100D01*
G01*
X123370000Y-38881100D01*
G75*
G02*
X123441100Y-38810000I71100J0D01*
G01*
G37*
G36*
G01*
X124941100Y-38810000D02*
X125698900Y-38810000D01*
G75*
G02*
X125770000Y-38881100I0J-71100D01*
G01*
X125770000Y-40238900D01*
G75*
G02*
X125698900Y-40310000I-71100J0D01*
G01*
X124941100Y-40310000D01*
G75*
G02*
X124870000Y-40238900I0J71100D01*
G01*
X124870000Y-38881100D01*
G75*
G02*
X124941100Y-38810000I71100J0D01*
G01*
G37*
G36*
G01*
X126441100Y-38810000D02*
X127198900Y-38810000D01*
G75*
G02*
X127270000Y-38881100I0J-71100D01*
G01*
X127270000Y-40238900D01*
G75*
G02*
X127198900Y-40310000I-71100J0D01*
G01*
X126441100Y-40310000D01*
G75*
G02*
X126370000Y-40238900I0J71100D01*
G01*
X126370000Y-38881100D01*
G75*
G02*
X126441100Y-38810000I71100J0D01*
G01*
G37*
G36*
G01*
X127941100Y-38810000D02*
X128698900Y-38810000D01*
G75*
G02*
X128770000Y-38881100I0J-71100D01*
G01*
X128770000Y-40238900D01*
G75*
G02*
X128698900Y-40310000I-71100J0D01*
G01*
X127941100Y-40310000D01*
G75*
G02*
X127870000Y-40238900I0J71100D01*
G01*
X127870000Y-38881100D01*
G75*
G02*
X127941100Y-38810000I71100J0D01*
G01*
G37*
G36*
G01*
X129441100Y-38810000D02*
X130198900Y-38810000D01*
G75*
G02*
X130270000Y-38881100I0J-71100D01*
G01*
X130270000Y-40238900D01*
G75*
G02*
X130198900Y-40310000I-71100J0D01*
G01*
X129441100Y-40310000D01*
G75*
G02*
X129370000Y-40238900I0J71100D01*
G01*
X129370000Y-38881100D01*
G75*
G02*
X129441100Y-38810000I71100J0D01*
G01*
G37*
G36*
G01*
X122781900Y-50400000D02*
X123708100Y-50400000D01*
G75*
G02*
X123795000Y-50486900I0J-86900D01*
G01*
X123795000Y-51413100D01*
G75*
G02*
X123708100Y-51500000I-86900J0D01*
G01*
X122781900Y-51500000D01*
G75*
G02*
X122695000Y-51413100I0J86900D01*
G01*
X122695000Y-50486900D01*
G75*
G02*
X122781900Y-50400000I86900J0D01*
G01*
G37*
G36*
G01*
X122781900Y-48900000D02*
X123708100Y-48900000D01*
G75*
G02*
X123795000Y-48986900I0J-86900D01*
G01*
X123795000Y-49913100D01*
G75*
G02*
X123708100Y-50000000I-86900J0D01*
G01*
X122781900Y-50000000D01*
G75*
G02*
X122695000Y-49913100I0J86900D01*
G01*
X122695000Y-48986900D01*
G75*
G02*
X122781900Y-48900000I86900J0D01*
G01*
G37*
G36*
G01*
X122781900Y-47400000D02*
X123708100Y-47400000D01*
G75*
G02*
X123795000Y-47486900I0J-86900D01*
G01*
X123795000Y-48413100D01*
G75*
G02*
X123708100Y-48500000I-86900J0D01*
G01*
X122781900Y-48500000D01*
G75*
G02*
X122695000Y-48413100I0J86900D01*
G01*
X122695000Y-47486900D01*
G75*
G02*
X122781900Y-47400000I86900J0D01*
G01*
G37*
G36*
G01*
X121281900Y-50400000D02*
X122208100Y-50400000D01*
G75*
G02*
X122295000Y-50486900I0J-86900D01*
G01*
X122295000Y-51413100D01*
G75*
G02*
X122208100Y-51500000I-86900J0D01*
G01*
X121281900Y-51500000D01*
G75*
G02*
X121195000Y-51413100I0J86900D01*
G01*
X121195000Y-50486900D01*
G75*
G02*
X121281900Y-50400000I86900J0D01*
G01*
G37*
G36*
G01*
X121281900Y-48900000D02*
X122208100Y-48900000D01*
G75*
G02*
X122295000Y-48986900I0J-86900D01*
G01*
X122295000Y-49913100D01*
G75*
G02*
X122208100Y-50000000I-86900J0D01*
G01*
X121281900Y-50000000D01*
G75*
G02*
X121195000Y-49913100I0J86900D01*
G01*
X121195000Y-48986900D01*
G75*
G02*
X121281900Y-48900000I86900J0D01*
G01*
G37*
G36*
G01*
X121281900Y-47400000D02*
X122208100Y-47400000D01*
G75*
G02*
X122295000Y-47486900I0J-86900D01*
G01*
X122295000Y-48413100D01*
G75*
G02*
X122208100Y-48500000I-86900J0D01*
G01*
X121281900Y-48500000D01*
G75*
G02*
X121195000Y-48413100I0J86900D01*
G01*
X121195000Y-47486900D01*
G75*
G02*
X121281900Y-47400000I86900J0D01*
G01*
G37*
G36*
G01*
X119781900Y-50400000D02*
X120708100Y-50400000D01*
G75*
G02*
X120795000Y-50486900I0J-86900D01*
G01*
X120795000Y-51413100D01*
G75*
G02*
X120708100Y-51500000I-86900J0D01*
G01*
X119781900Y-51500000D01*
G75*
G02*
X119695000Y-51413100I0J86900D01*
G01*
X119695000Y-50486900D01*
G75*
G02*
X119781900Y-50400000I86900J0D01*
G01*
G37*
G36*
G01*
X119781900Y-48900000D02*
X120708100Y-48900000D01*
G75*
G02*
X120795000Y-48986900I0J-86900D01*
G01*
X120795000Y-49913100D01*
G75*
G02*
X120708100Y-50000000I-86900J0D01*
G01*
X119781900Y-50000000D01*
G75*
G02*
X119695000Y-49913100I0J86900D01*
G01*
X119695000Y-48986900D01*
G75*
G02*
X119781900Y-48900000I86900J0D01*
G01*
G37*
G36*
G01*
X119781900Y-47400000D02*
X120708100Y-47400000D01*
G75*
G02*
X120795000Y-47486900I0J-86900D01*
G01*
X120795000Y-48413100D01*
G75*
G02*
X120708100Y-48500000I-86900J0D01*
G01*
X119781900Y-48500000D01*
G75*
G02*
X119695000Y-48413100I0J86900D01*
G01*
X119695000Y-47486900D01*
G75*
G02*
X119781900Y-47400000I86900J0D01*
G01*
G37*
D10*
X122486400Y-50960000D03*
X123299200Y-50198000D03*
X123299200Y-48674000D03*
X122486400Y-47962800D03*
X121013200Y-47962800D03*
X120302000Y-48724800D03*
X120302000Y-50198000D03*
X121013200Y-50960000D03*
X121775200Y-50198000D03*
X121826000Y-48674000D03*
X122486400Y-49436000D03*
X121013200Y-49486800D03*
D11*
X88964000Y-41846500D03*
X88964000Y-39306500D03*
D12*
X93980000Y-57150000D03*
X95250000Y-57150000D03*
X96520000Y-57150000D03*
X97790000Y-57150000D03*
X99060000Y-57150000D03*
X100330000Y-57150000D03*
X101600000Y-57150000D03*
X102870000Y-57150000D03*
X93230700Y-40690800D03*
X95516700Y-40678100D03*
D13*
X84650000Y-51760000D03*
D14*
X84650000Y-49260000D03*
X84650000Y-47260000D03*
X84650000Y-44760000D03*
D15*
X82550000Y-50510000D03*
X82550000Y-46010000D03*
D16*
X82550000Y-42560000D03*
X82550000Y-53960000D03*
D11*
X90170000Y-55880000D03*
X90170000Y-53340000D03*
X90170000Y-50800000D03*
X90170000Y-48260000D03*
M02*
