M48
; DRILL file {KiCad (5.1.12)-1} date 01/02/22 13:29:29
; FORMAT={-:-/ absolute / metric / decimal}
; #@! TF.CreationDate,2022-01-02T13:29:29+01:00
; #@! TF.GenerationSoftware,Kicad,Pcbnew,(5.1.12)-1
; #@! TF.FileFunction,Plated,1,4,PTH
FMAT,2
METRIC
T1C0.250
T2C0.400
T3C0.450
T4C0.762
T5C1.000
T6C1.050
%
G90
G05
T2
X88.67Y-52.826
X88.886Y-49.481
X93.515Y-45.349
X94.252Y-50.636
X96.708Y-45.403
X97.879Y-45.481
X99.758Y-40.894
X99.964Y-49.847
X101.219Y-42.735
X101.917Y-40.703
X102.099Y-54.217
X104.299Y-49.263
X107.996Y-41.865
X108.965Y-44.303
X109.136Y-55.701
X109.334Y-42.623
X110.896Y-46.787
X111.58Y-55.475
X113.474Y-49.784
X113.642Y-55.687
X114.3Y-41.593
X116.409Y-55.448
X117.157Y-42.608
X117.332Y-44.72
X127.751Y-45.642
X128.2Y-40.919
X128.289Y-48.583
T3
X93.231Y-40.691
X93.98Y-57.15
X95.25Y-57.15
X95.517Y-40.678
X96.52Y-57.15
X97.79Y-57.15
X99.06Y-57.15
X100.33Y-57.15
X101.6Y-57.15
X102.87Y-57.15
T4
X90.17Y-48.26
X90.17Y-50.8
X90.17Y-53.34
X90.17Y-55.88
T5
X84.65Y-44.76
X84.65Y-47.26
X84.65Y-49.26
X84.65Y-51.76
T1
G00X120.302Y-48.725
M15
G01X120.302Y-48.725
M16
G05
G00X120.302Y-50.198
M15
G01X120.302Y-50.198
M16
G05
G00X121.013Y-47.963
M15
G01X121.013Y-47.963
M16
G05
G00X121.013Y-49.487
M15
G01X121.013Y-49.487
M16
G05
G00X121.013Y-50.96
M15
G01X121.013Y-50.96
M16
G05
G00X121.775Y-50.198
M15
G01X121.775Y-50.198
M16
G05
G00X121.826Y-48.674
M15
G01X121.826Y-48.674
M16
G05
G00X122.486Y-47.963
M15
G01X122.486Y-47.963
M16
G05
G00X122.486Y-49.436
M15
G01X122.486Y-49.436
M16
G05
G00X122.486Y-50.96
M15
G01X122.486Y-50.96
M16
G05
G00X123.299Y-48.674
M15
G01X123.299Y-48.674
M16
G05
G00X123.299Y-50.198
M15
G01X123.299Y-50.198
M16
G05
T6
G00X83.325Y-42.56
M15
G01X81.775Y-42.56
M16
G05
G00X83.325Y-53.96
M15
G01X81.775Y-53.96
M16
G05
T0
M30
