G04 #@! TF.GenerationSoftware,KiCad,Pcbnew,(5.1.12)-1*
G04 #@! TF.CreationDate,2022-01-02T13:29:21+01:00*
G04 #@! TF.ProjectId,20210211_eduino,32303231-3032-4313-915f-656475696e6f,v1.0*
G04 #@! TF.SameCoordinates,Original*
G04 #@! TF.FileFunction,Legend,Top*
G04 #@! TF.FilePolarity,Positive*
%FSLAX46Y46*%
G04 Gerber Fmt 4.6, Leading zero omitted, Abs format (unit mm)*
G04 Created by KiCad (PCBNEW (5.1.12)-1) date 2022-01-02 13:29:21*
%MOMM*%
%LPD*%
G01*
G04 APERTURE LIST*
%ADD10C,0.100000*%
%ADD11C,0.120000*%
%ADD12C,0.200000*%
%ADD13C,0.127000*%
%ADD14C,0.150000*%
G04 APERTURE END LIST*
D10*
X129000285Y-53298285D02*
X128750285Y-52941142D01*
X128571714Y-53298285D02*
X128571714Y-52548285D01*
X128857428Y-52548285D01*
X128928857Y-52584000D01*
X128964571Y-52619714D01*
X129000285Y-52691142D01*
X129000285Y-52798285D01*
X128964571Y-52869714D01*
X128928857Y-52905428D01*
X128857428Y-52941142D01*
X128571714Y-52941142D01*
X129286000Y-53262571D02*
X129357428Y-53298285D01*
X129500285Y-53298285D01*
X129571714Y-53262571D01*
X129607428Y-53191142D01*
X129607428Y-53155428D01*
X129571714Y-53084000D01*
X129500285Y-53048285D01*
X129393142Y-53048285D01*
X129321714Y-53012571D01*
X129286000Y-52941142D01*
X129286000Y-52905428D01*
X129321714Y-52834000D01*
X129393142Y-52798285D01*
X129500285Y-52798285D01*
X129571714Y-52834000D01*
X129821714Y-52798285D02*
X130107428Y-52798285D01*
X129928857Y-52548285D02*
X129928857Y-53191142D01*
X129964571Y-53262571D01*
X130036000Y-53298285D01*
X130107428Y-53298285D01*
X128446714Y-45920428D02*
X128553857Y-45956142D01*
X128589571Y-45991857D01*
X128625285Y-46063285D01*
X128625285Y-46170428D01*
X128589571Y-46241857D01*
X128553857Y-46277571D01*
X128482428Y-46313285D01*
X128196714Y-46313285D01*
X128196714Y-45563285D01*
X128446714Y-45563285D01*
X128518142Y-45599000D01*
X128553857Y-45634714D01*
X128589571Y-45706142D01*
X128589571Y-45777571D01*
X128553857Y-45849000D01*
X128518142Y-45884714D01*
X128446714Y-45920428D01*
X128196714Y-45920428D01*
X129053857Y-46313285D02*
X128982428Y-46277571D01*
X128946714Y-46241857D01*
X128911000Y-46170428D01*
X128911000Y-45956142D01*
X128946714Y-45884714D01*
X128982428Y-45849000D01*
X129053857Y-45813285D01*
X129161000Y-45813285D01*
X129232428Y-45849000D01*
X129268142Y-45884714D01*
X129303857Y-45956142D01*
X129303857Y-46170428D01*
X129268142Y-46241857D01*
X129232428Y-46277571D01*
X129161000Y-46313285D01*
X129053857Y-46313285D01*
X129732428Y-46313285D02*
X129661000Y-46277571D01*
X129625285Y-46241857D01*
X129589571Y-46170428D01*
X129589571Y-45956142D01*
X129625285Y-45884714D01*
X129661000Y-45849000D01*
X129732428Y-45813285D01*
X129839571Y-45813285D01*
X129911000Y-45849000D01*
X129946714Y-45884714D01*
X129982428Y-45956142D01*
X129982428Y-46170428D01*
X129946714Y-46241857D01*
X129911000Y-46277571D01*
X129839571Y-46313285D01*
X129732428Y-46313285D01*
X130196714Y-45813285D02*
X130482428Y-45813285D01*
X130303857Y-45563285D02*
X130303857Y-46206142D01*
X130339571Y-46277571D01*
X130411000Y-46313285D01*
X130482428Y-46313285D01*
D11*
X127886000Y-47450000D02*
X128186000Y-47450000D01*
X127886000Y-50750000D02*
X127886000Y-47450000D01*
X128186000Y-50750000D02*
X127886000Y-50750000D01*
X130686000Y-47450000D02*
X130386000Y-47450000D01*
X130686000Y-50750000D02*
X130686000Y-47450000D01*
X130386000Y-50750000D02*
X130686000Y-50750000D01*
X130386000Y-57706000D02*
X130686000Y-57706000D01*
X130686000Y-57706000D02*
X130686000Y-54406000D01*
X130686000Y-54406000D02*
X130386000Y-54406000D01*
X128186000Y-57706000D02*
X127886000Y-57706000D01*
X127886000Y-57706000D02*
X127886000Y-54406000D01*
X127886000Y-54406000D02*
X128186000Y-54406000D01*
X99058000Y-52210580D02*
X99058000Y-51929420D01*
X100078000Y-52210580D02*
X100078000Y-51929420D01*
X128891420Y-39626000D02*
X129172580Y-39626000D01*
X128891420Y-38606000D02*
X129172580Y-38606000D01*
X105260000Y-52247220D02*
X105260000Y-52528380D01*
X104240000Y-52247220D02*
X104240000Y-52528380D01*
X111406000Y-52234220D02*
X111406000Y-52515380D01*
X110386000Y-52234220D02*
X110386000Y-52515380D01*
X103453000Y-53200300D02*
X103453000Y-50915300D01*
X103453000Y-50915300D02*
X101983000Y-50915300D01*
X101983000Y-50915300D02*
X101983000Y-53200300D01*
X118634742Y-37069500D02*
X119109258Y-37069500D01*
X118634742Y-38114500D02*
X119109258Y-38114500D01*
X86535500Y-46562742D02*
X86535500Y-47037258D01*
X87580500Y-46562742D02*
X87580500Y-47037258D01*
X111418500Y-47374542D02*
X111418500Y-47849058D01*
X110373500Y-47374542D02*
X110373500Y-47849058D01*
X128985742Y-42686500D02*
X129460258Y-42686500D01*
X128985742Y-41641500D02*
X129460258Y-41641500D01*
X86535500Y-49801242D02*
X86535500Y-50275758D01*
X87580500Y-49801242D02*
X87580500Y-50275758D01*
X87580500Y-53103242D02*
X87580500Y-53577758D01*
X86535500Y-53103242D02*
X86535500Y-53577758D01*
X106252000Y-51868500D02*
X106252000Y-53668500D01*
X109472000Y-53668500D02*
X109472000Y-51218500D01*
X95604420Y-46992000D02*
X95885580Y-46992000D01*
X95604420Y-45972000D02*
X95885580Y-45972000D01*
X95604420Y-47496000D02*
X95885580Y-47496000D01*
X95604420Y-48516000D02*
X95885580Y-48516000D01*
X115076000Y-53650000D02*
X115076000Y-52720000D01*
X115076000Y-50490000D02*
X115076000Y-51420000D01*
X115076000Y-50490000D02*
X112916000Y-50490000D01*
X115076000Y-53650000D02*
X113616000Y-53650000D01*
X95620000Y-53680000D02*
X97420000Y-53680000D01*
X97420000Y-50460000D02*
X94970000Y-50460000D01*
D12*
X86050000Y-51760000D02*
G75*
G03*
X86050000Y-51760000I-100000J0D01*
G01*
D13*
X64750000Y-54260000D02*
X79800000Y-54260000D01*
X64750000Y-42260000D02*
X64750000Y-54260000D01*
X79800000Y-42260000D02*
X64750000Y-42260000D01*
X79800000Y-54260000D02*
X80550000Y-54260000D01*
X79800000Y-42260000D02*
X79800000Y-54260000D01*
X80550000Y-42260000D02*
X79800000Y-42260000D01*
D11*
X88465000Y-37616000D02*
X89265000Y-37616000D01*
X88465000Y-37816000D02*
X88465000Y-37616000D01*
X91465000Y-37616000D02*
X91465000Y-37816000D01*
X90665000Y-37616000D02*
X91465000Y-37616000D01*
X91465000Y-40616000D02*
X90665000Y-40616000D01*
X91465000Y-40416000D02*
X91465000Y-40616000D01*
X88665000Y-40616000D02*
X88465000Y-40416000D01*
X89265000Y-40616000D02*
X88665000Y-40616000D01*
X98123742Y-38114500D02*
X98598258Y-38114500D01*
X98123742Y-37069500D02*
X98598258Y-37069500D01*
X108157742Y-37069500D02*
X108632258Y-37069500D01*
X108157742Y-38114500D02*
X108632258Y-38114500D01*
D14*
X105616000Y-38720000D02*
X103616000Y-38720000D01*
X105616000Y-44720000D02*
X105616000Y-38720000D01*
X103616000Y-44720000D02*
X105616000Y-44720000D01*
X99616000Y-44720000D02*
X101616000Y-44720000D01*
X99616000Y-38720000D02*
X99616000Y-44720000D01*
X101616000Y-38720000D02*
X99616000Y-38720000D01*
X111268000Y-38720000D02*
X109268000Y-38720000D01*
X109268000Y-38720000D02*
X109268000Y-44720000D01*
X109268000Y-44720000D02*
X111268000Y-44720000D01*
X113268000Y-44720000D02*
X115268000Y-44720000D01*
X115268000Y-44720000D02*
X115268000Y-38720000D01*
X115268000Y-38720000D02*
X113268000Y-38720000D01*
X124920000Y-38720000D02*
X122920000Y-38720000D01*
X124920000Y-44720000D02*
X124920000Y-38720000D01*
X122920000Y-44720000D02*
X124920000Y-44720000D01*
X118920000Y-44720000D02*
X120920000Y-44720000D01*
X118920000Y-38720000D02*
X118920000Y-44720000D01*
X120920000Y-38720000D02*
X118920000Y-38720000D01*
X93980000Y-48260000D02*
X120650000Y-48260000D01*
X120650000Y-48260000D02*
X120650000Y-55245000D01*
X120650000Y-55245000D02*
X93980000Y-55245000D01*
X93980000Y-55245000D02*
X93980000Y-48260000D01*
X88900000Y-58420000D02*
X126900000Y-58420000D01*
X126900000Y-58420000D02*
X126900000Y-46420000D01*
X126900000Y-46420000D02*
X88900000Y-46420000D01*
X88900000Y-46420000D02*
X88900000Y-58420000D01*
D11*
X92723500Y-43915000D02*
X95008500Y-43915000D01*
X92723500Y-42445000D02*
X92723500Y-43915000D01*
X95008500Y-42445000D02*
X92723500Y-42445000D01*
X98564500Y-42445000D02*
X96279500Y-42445000D01*
X96279500Y-42445000D02*
X96279500Y-43915000D01*
X96279500Y-43915000D02*
X98564500Y-43915000D01*
X90503742Y-44689500D02*
X90978258Y-44689500D01*
X90503742Y-45734500D02*
X90978258Y-45734500D01*
X99013742Y-47258500D02*
X99488258Y-47258500D01*
X99013742Y-46213500D02*
X99488258Y-46213500D01*
D14*
X101449142Y-52236666D02*
X101496761Y-52284285D01*
X101544380Y-52427142D01*
X101544380Y-52522380D01*
X101496761Y-52665238D01*
X101401523Y-52760476D01*
X101306285Y-52808095D01*
X101115809Y-52855714D01*
X100972952Y-52855714D01*
X100782476Y-52808095D01*
X100687238Y-52760476D01*
X100592000Y-52665238D01*
X100544380Y-52522380D01*
X100544380Y-52427142D01*
X100592000Y-52284285D01*
X100639619Y-52236666D01*
X100877714Y-51379523D02*
X101544380Y-51379523D01*
X100496761Y-51617619D02*
X101211047Y-51855714D01*
X101211047Y-51236666D01*
X128852333Y-37949142D02*
X128804714Y-37996761D01*
X128661857Y-38044380D01*
X128566619Y-38044380D01*
X128423761Y-37996761D01*
X128328523Y-37901523D01*
X128280904Y-37806285D01*
X128233285Y-37615809D01*
X128233285Y-37472952D01*
X128280904Y-37282476D01*
X128328523Y-37187238D01*
X128423761Y-37092000D01*
X128566619Y-37044380D01*
X128661857Y-37044380D01*
X128804714Y-37092000D01*
X128852333Y-37139619D01*
X129757095Y-37044380D02*
X129280904Y-37044380D01*
X129233285Y-37520571D01*
X129280904Y-37472952D01*
X129376142Y-37425333D01*
X129614238Y-37425333D01*
X129709476Y-37472952D01*
X129757095Y-37520571D01*
X129804714Y-37615809D01*
X129804714Y-37853904D01*
X129757095Y-37949142D01*
X129709476Y-37996761D01*
X129614238Y-38044380D01*
X129376142Y-38044380D01*
X129280904Y-37996761D01*
X129233285Y-37949142D01*
X105056342Y-54967166D02*
X105103961Y-55014785D01*
X105151580Y-55157642D01*
X105151580Y-55252880D01*
X105103961Y-55395738D01*
X105008723Y-55490976D01*
X104913485Y-55538595D01*
X104723009Y-55586214D01*
X104580152Y-55586214D01*
X104389676Y-55538595D01*
X104294438Y-55490976D01*
X104199200Y-55395738D01*
X104151580Y-55252880D01*
X104151580Y-55157642D01*
X104199200Y-55014785D01*
X104246819Y-54967166D01*
X104151580Y-54110023D02*
X104151580Y-54300500D01*
X104199200Y-54395738D01*
X104246819Y-54443357D01*
X104389676Y-54538595D01*
X104580152Y-54586214D01*
X104961104Y-54586214D01*
X105056342Y-54538595D01*
X105103961Y-54490976D01*
X105151580Y-54395738D01*
X105151580Y-54205261D01*
X105103961Y-54110023D01*
X105056342Y-54062404D01*
X104961104Y-54014785D01*
X104723009Y-54014785D01*
X104627771Y-54062404D01*
X104580152Y-54110023D01*
X104532533Y-54205261D01*
X104532533Y-54395738D01*
X104580152Y-54490976D01*
X104627771Y-54538595D01*
X104723009Y-54586214D01*
X111278542Y-55068466D02*
X111326161Y-55116085D01*
X111373780Y-55258942D01*
X111373780Y-55354180D01*
X111326161Y-55497038D01*
X111230923Y-55592276D01*
X111135685Y-55639895D01*
X110945209Y-55687514D01*
X110802352Y-55687514D01*
X110611876Y-55639895D01*
X110516638Y-55592276D01*
X110421400Y-55497038D01*
X110373780Y-55354180D01*
X110373780Y-55258942D01*
X110421400Y-55116085D01*
X110469019Y-55068466D01*
X110373780Y-54735133D02*
X110373780Y-54068466D01*
X111373780Y-54497038D01*
X103170380Y-55602095D02*
X102170380Y-55602095D01*
X102170380Y-55364000D01*
X102218000Y-55221142D01*
X102313238Y-55125904D01*
X102408476Y-55078285D01*
X102598952Y-55030666D01*
X102741809Y-55030666D01*
X102932285Y-55078285D01*
X103027523Y-55125904D01*
X103122761Y-55221142D01*
X103170380Y-55364000D01*
X103170380Y-55602095D01*
X103170380Y-54078285D02*
X103170380Y-54649714D01*
X103170380Y-54364000D02*
X102170380Y-54364000D01*
X102313238Y-54459238D01*
X102408476Y-54554476D01*
X102456095Y-54649714D01*
X115974333Y-38057080D02*
X115641000Y-37580890D01*
X115402904Y-38057080D02*
X115402904Y-37057080D01*
X115783857Y-37057080D01*
X115879095Y-37104700D01*
X115926714Y-37152319D01*
X115974333Y-37247557D01*
X115974333Y-37390414D01*
X115926714Y-37485652D01*
X115879095Y-37533271D01*
X115783857Y-37580890D01*
X115402904Y-37580890D01*
X116355285Y-37152319D02*
X116402904Y-37104700D01*
X116498142Y-37057080D01*
X116736238Y-37057080D01*
X116831476Y-37104700D01*
X116879095Y-37152319D01*
X116926714Y-37247557D01*
X116926714Y-37342795D01*
X116879095Y-37485652D01*
X116307666Y-38057080D01*
X116926714Y-38057080D01*
X88940380Y-46966666D02*
X88464190Y-47300000D01*
X88940380Y-47538095D02*
X87940380Y-47538095D01*
X87940380Y-47157142D01*
X87988000Y-47061904D01*
X88035619Y-47014285D01*
X88130857Y-46966666D01*
X88273714Y-46966666D01*
X88368952Y-47014285D01*
X88416571Y-47061904D01*
X88464190Y-47157142D01*
X88464190Y-47538095D01*
X87940380Y-46633333D02*
X87940380Y-46014285D01*
X88321333Y-46347619D01*
X88321333Y-46204761D01*
X88368952Y-46109523D01*
X88416571Y-46061904D01*
X88511809Y-46014285D01*
X88749904Y-46014285D01*
X88845142Y-46061904D01*
X88892761Y-46109523D01*
X88940380Y-46204761D01*
X88940380Y-46490476D01*
X88892761Y-46585714D01*
X88845142Y-46633333D01*
X111411880Y-50254966D02*
X110935690Y-50588300D01*
X111411880Y-50826395D02*
X110411880Y-50826395D01*
X110411880Y-50445442D01*
X110459500Y-50350204D01*
X110507119Y-50302585D01*
X110602357Y-50254966D01*
X110745214Y-50254966D01*
X110840452Y-50302585D01*
X110888071Y-50350204D01*
X110935690Y-50445442D01*
X110935690Y-50826395D01*
X110745214Y-49397823D02*
X111411880Y-49397823D01*
X110364261Y-49635919D02*
X111078547Y-49874014D01*
X111078547Y-49254966D01*
X129119333Y-40838380D02*
X128786000Y-40362190D01*
X128547904Y-40838380D02*
X128547904Y-39838380D01*
X128928857Y-39838380D01*
X129024095Y-39886000D01*
X129071714Y-39933619D01*
X129119333Y-40028857D01*
X129119333Y-40171714D01*
X129071714Y-40266952D01*
X129024095Y-40314571D01*
X128928857Y-40362190D01*
X128547904Y-40362190D01*
X129976476Y-39838380D02*
X129786000Y-39838380D01*
X129690761Y-39886000D01*
X129643142Y-39933619D01*
X129547904Y-40076476D01*
X129500285Y-40266952D01*
X129500285Y-40647904D01*
X129547904Y-40743142D01*
X129595523Y-40790761D01*
X129690761Y-40838380D01*
X129881238Y-40838380D01*
X129976476Y-40790761D01*
X130024095Y-40743142D01*
X130071714Y-40647904D01*
X130071714Y-40409809D01*
X130024095Y-40314571D01*
X129976476Y-40266952D01*
X129881238Y-40219333D01*
X129690761Y-40219333D01*
X129595523Y-40266952D01*
X129547904Y-40314571D01*
X129500285Y-40409809D01*
X88940380Y-50205166D02*
X88464190Y-50538500D01*
X88940380Y-50776595D02*
X87940380Y-50776595D01*
X87940380Y-50395642D01*
X87988000Y-50300404D01*
X88035619Y-50252785D01*
X88130857Y-50205166D01*
X88273714Y-50205166D01*
X88368952Y-50252785D01*
X88416571Y-50300404D01*
X88464190Y-50395642D01*
X88464190Y-50776595D01*
X87940380Y-49871833D02*
X87940380Y-49205166D01*
X88940380Y-49633738D01*
X88940380Y-53507166D02*
X88464190Y-53840500D01*
X88940380Y-54078595D02*
X87940380Y-54078595D01*
X87940380Y-53697642D01*
X87988000Y-53602404D01*
X88035619Y-53554785D01*
X88130857Y-53507166D01*
X88273714Y-53507166D01*
X88368952Y-53554785D01*
X88416571Y-53602404D01*
X88464190Y-53697642D01*
X88464190Y-54078595D01*
X88368952Y-52935738D02*
X88321333Y-53030976D01*
X88273714Y-53078595D01*
X88178476Y-53126214D01*
X88130857Y-53126214D01*
X88035619Y-53078595D01*
X87988000Y-53030976D01*
X87940380Y-52935738D01*
X87940380Y-52745261D01*
X87988000Y-52650023D01*
X88035619Y-52602404D01*
X88130857Y-52554785D01*
X88178476Y-52554785D01*
X88273714Y-52602404D01*
X88321333Y-52650023D01*
X88368952Y-52745261D01*
X88368952Y-52935738D01*
X88416571Y-53030976D01*
X88464190Y-53078595D01*
X88559428Y-53126214D01*
X88749904Y-53126214D01*
X88845142Y-53078595D01*
X88892761Y-53030976D01*
X88940380Y-52935738D01*
X88940380Y-52745261D01*
X88892761Y-52650023D01*
X88845142Y-52602404D01*
X88749904Y-52554785D01*
X88559428Y-52554785D01*
X88464190Y-52602404D01*
X88416571Y-52650023D01*
X88368952Y-52745261D01*
X107656380Y-50545904D02*
X108465904Y-50545904D01*
X108561142Y-50498285D01*
X108608761Y-50450666D01*
X108656380Y-50355428D01*
X108656380Y-50164952D01*
X108608761Y-50069714D01*
X108561142Y-50022095D01*
X108465904Y-49974476D01*
X107656380Y-49974476D01*
X108656380Y-48974476D02*
X108656380Y-49545904D01*
X108656380Y-49260190D02*
X107656380Y-49260190D01*
X107799238Y-49355428D01*
X107894476Y-49450666D01*
X107942095Y-49545904D01*
X95578333Y-45409142D02*
X95530714Y-45456761D01*
X95387857Y-45504380D01*
X95292619Y-45504380D01*
X95149761Y-45456761D01*
X95054523Y-45361523D01*
X95006904Y-45266285D01*
X94959285Y-45075809D01*
X94959285Y-44932952D01*
X95006904Y-44742476D01*
X95054523Y-44647238D01*
X95149761Y-44552000D01*
X95292619Y-44504380D01*
X95387857Y-44504380D01*
X95530714Y-44552000D01*
X95578333Y-44599619D01*
X96530714Y-45504380D02*
X95959285Y-45504380D01*
X96245000Y-45504380D02*
X96245000Y-44504380D01*
X96149761Y-44647238D01*
X96054523Y-44742476D01*
X95959285Y-44790095D01*
X95578333Y-49887142D02*
X95530714Y-49934761D01*
X95387857Y-49982380D01*
X95292619Y-49982380D01*
X95149761Y-49934761D01*
X95054523Y-49839523D01*
X95006904Y-49744285D01*
X94959285Y-49553809D01*
X94959285Y-49410952D01*
X95006904Y-49220476D01*
X95054523Y-49125238D01*
X95149761Y-49030000D01*
X95292619Y-48982380D01*
X95387857Y-48982380D01*
X95530714Y-49030000D01*
X95578333Y-49077619D01*
X95959285Y-49077619D02*
X96006904Y-49030000D01*
X96102142Y-48982380D01*
X96340238Y-48982380D01*
X96435476Y-49030000D01*
X96483095Y-49077619D01*
X96530714Y-49172857D01*
X96530714Y-49268095D01*
X96483095Y-49410952D01*
X95911666Y-49982380D01*
X96530714Y-49982380D01*
X113577904Y-50022380D02*
X113577904Y-49022380D01*
X113816000Y-49022380D01*
X113958857Y-49070000D01*
X114054095Y-49165238D01*
X114101714Y-49260476D01*
X114149333Y-49450952D01*
X114149333Y-49593809D01*
X114101714Y-49784285D01*
X114054095Y-49879523D01*
X113958857Y-49974761D01*
X113816000Y-50022380D01*
X113577904Y-50022380D01*
X114530285Y-49117619D02*
X114577904Y-49070000D01*
X114673142Y-49022380D01*
X114911238Y-49022380D01*
X115006476Y-49070000D01*
X115054095Y-49117619D01*
X115101714Y-49212857D01*
X115101714Y-49308095D01*
X115054095Y-49450952D01*
X114482666Y-50022380D01*
X115101714Y-50022380D01*
X96266095Y-51522380D02*
X96266095Y-52331904D01*
X96313714Y-52427142D01*
X96361333Y-52474761D01*
X96456571Y-52522380D01*
X96647047Y-52522380D01*
X96742285Y-52474761D01*
X96789904Y-52427142D01*
X96837523Y-52331904D01*
X96837523Y-51522380D01*
X97742285Y-51522380D02*
X97551809Y-51522380D01*
X97456571Y-51570000D01*
X97408952Y-51617619D01*
X97313714Y-51760476D01*
X97266095Y-51950952D01*
X97266095Y-52331904D01*
X97313714Y-52427142D01*
X97361333Y-52474761D01*
X97456571Y-52522380D01*
X97647047Y-52522380D01*
X97742285Y-52474761D01*
X97789904Y-52427142D01*
X97837523Y-52331904D01*
X97837523Y-52093809D01*
X97789904Y-51998571D01*
X97742285Y-51950952D01*
X97647047Y-51903333D01*
X97456571Y-51903333D01*
X97361333Y-51950952D01*
X97313714Y-51998571D01*
X97266095Y-52093809D01*
X95463333Y-38044380D02*
X95130000Y-37568190D01*
X94891904Y-38044380D02*
X94891904Y-37044380D01*
X95272857Y-37044380D01*
X95368095Y-37092000D01*
X95415714Y-37139619D01*
X95463333Y-37234857D01*
X95463333Y-37377714D01*
X95415714Y-37472952D01*
X95368095Y-37520571D01*
X95272857Y-37568190D01*
X94891904Y-37568190D01*
X96415714Y-38044380D02*
X95844285Y-38044380D01*
X96130000Y-38044380D02*
X96130000Y-37044380D01*
X96034761Y-37187238D01*
X95939523Y-37282476D01*
X95844285Y-37330095D01*
X105497333Y-38044380D02*
X105164000Y-37568190D01*
X104925904Y-38044380D02*
X104925904Y-37044380D01*
X105306857Y-37044380D01*
X105402095Y-37092000D01*
X105449714Y-37139619D01*
X105497333Y-37234857D01*
X105497333Y-37377714D01*
X105449714Y-37472952D01*
X105402095Y-37520571D01*
X105306857Y-37568190D01*
X104925904Y-37568190D01*
X106402095Y-37044380D02*
X105925904Y-37044380D01*
X105878285Y-37520571D01*
X105925904Y-37472952D01*
X106021142Y-37425333D01*
X106259238Y-37425333D01*
X106354476Y-37472952D01*
X106402095Y-37520571D01*
X106449714Y-37615809D01*
X106449714Y-37853904D01*
X106402095Y-37949142D01*
X106354476Y-37996761D01*
X106259238Y-38044380D01*
X106021142Y-38044380D01*
X105925904Y-37996761D01*
X105878285Y-37949142D01*
X101282666Y-42124761D02*
X101425523Y-42172380D01*
X101663619Y-42172380D01*
X101758857Y-42124761D01*
X101806476Y-42077142D01*
X101854095Y-41981904D01*
X101854095Y-41886666D01*
X101806476Y-41791428D01*
X101758857Y-41743809D01*
X101663619Y-41696190D01*
X101473142Y-41648571D01*
X101377904Y-41600952D01*
X101330285Y-41553333D01*
X101282666Y-41458095D01*
X101282666Y-41362857D01*
X101330285Y-41267619D01*
X101377904Y-41220000D01*
X101473142Y-41172380D01*
X101711238Y-41172380D01*
X101854095Y-41220000D01*
X102187428Y-41172380D02*
X102425523Y-42172380D01*
X102616000Y-41458095D01*
X102806476Y-42172380D01*
X103044571Y-41172380D01*
X103949333Y-42172380D02*
X103377904Y-42172380D01*
X103663619Y-42172380D02*
X103663619Y-41172380D01*
X103568380Y-41315238D01*
X103473142Y-41410476D01*
X103377904Y-41458095D01*
X110934666Y-42124761D02*
X111077523Y-42172380D01*
X111315619Y-42172380D01*
X111410857Y-42124761D01*
X111458476Y-42077142D01*
X111506095Y-41981904D01*
X111506095Y-41886666D01*
X111458476Y-41791428D01*
X111410857Y-41743809D01*
X111315619Y-41696190D01*
X111125142Y-41648571D01*
X111029904Y-41600952D01*
X110982285Y-41553333D01*
X110934666Y-41458095D01*
X110934666Y-41362857D01*
X110982285Y-41267619D01*
X111029904Y-41220000D01*
X111125142Y-41172380D01*
X111363238Y-41172380D01*
X111506095Y-41220000D01*
X111839428Y-41172380D02*
X112077523Y-42172380D01*
X112268000Y-41458095D01*
X112458476Y-42172380D01*
X112696571Y-41172380D01*
X113506095Y-41505714D02*
X113506095Y-42172380D01*
X113268000Y-41124761D02*
X113029904Y-41839047D01*
X113648952Y-41839047D01*
X120586666Y-42124761D02*
X120729523Y-42172380D01*
X120967619Y-42172380D01*
X121062857Y-42124761D01*
X121110476Y-42077142D01*
X121158095Y-41981904D01*
X121158095Y-41886666D01*
X121110476Y-41791428D01*
X121062857Y-41743809D01*
X120967619Y-41696190D01*
X120777142Y-41648571D01*
X120681904Y-41600952D01*
X120634285Y-41553333D01*
X120586666Y-41458095D01*
X120586666Y-41362857D01*
X120634285Y-41267619D01*
X120681904Y-41220000D01*
X120777142Y-41172380D01*
X121015238Y-41172380D01*
X121158095Y-41220000D01*
X121491428Y-41172380D02*
X121729523Y-42172380D01*
X121920000Y-41458095D01*
X122110476Y-42172380D01*
X122348571Y-41172380D01*
X123205714Y-41172380D02*
X122729523Y-41172380D01*
X122681904Y-41648571D01*
X122729523Y-41600952D01*
X122824761Y-41553333D01*
X123062857Y-41553333D01*
X123158095Y-41600952D01*
X123205714Y-41648571D01*
X123253333Y-41743809D01*
X123253333Y-41981904D01*
X123205714Y-42077142D01*
X123158095Y-42124761D01*
X123062857Y-42172380D01*
X122824761Y-42172380D01*
X122729523Y-42124761D01*
X122681904Y-42077142D01*
X95123095Y-55967380D02*
X95123095Y-56776904D01*
X95170714Y-56872142D01*
X95218333Y-56919761D01*
X95313571Y-56967380D01*
X95504047Y-56967380D01*
X95599285Y-56919761D01*
X95646904Y-56872142D01*
X95694523Y-56776904D01*
X95694523Y-55967380D01*
X96075476Y-55967380D02*
X96694523Y-55967380D01*
X96361190Y-56348333D01*
X96504047Y-56348333D01*
X96599285Y-56395952D01*
X96646904Y-56443571D01*
X96694523Y-56538809D01*
X96694523Y-56776904D01*
X96646904Y-56872142D01*
X96599285Y-56919761D01*
X96504047Y-56967380D01*
X96218333Y-56967380D01*
X96123095Y-56919761D01*
X96075476Y-56872142D01*
X93470404Y-42202380D02*
X93470404Y-41202380D01*
X93708500Y-41202380D01*
X93851357Y-41250000D01*
X93946595Y-41345238D01*
X93994214Y-41440476D01*
X94041833Y-41630952D01*
X94041833Y-41773809D01*
X93994214Y-41964285D01*
X93946595Y-42059523D01*
X93851357Y-42154761D01*
X93708500Y-42202380D01*
X93470404Y-42202380D01*
X94375166Y-41202380D02*
X94994214Y-41202380D01*
X94660880Y-41583333D01*
X94803738Y-41583333D01*
X94898976Y-41630952D01*
X94946595Y-41678571D01*
X94994214Y-41773809D01*
X94994214Y-42011904D01*
X94946595Y-42107142D01*
X94898976Y-42154761D01*
X94803738Y-42202380D01*
X94518023Y-42202380D01*
X94422785Y-42154761D01*
X94375166Y-42107142D01*
X97026404Y-42202380D02*
X97026404Y-41202380D01*
X97264500Y-41202380D01*
X97407357Y-41250000D01*
X97502595Y-41345238D01*
X97550214Y-41440476D01*
X97597833Y-41630952D01*
X97597833Y-41773809D01*
X97550214Y-41964285D01*
X97502595Y-42059523D01*
X97407357Y-42154761D01*
X97264500Y-42202380D01*
X97026404Y-42202380D01*
X98454976Y-41535714D02*
X98454976Y-42202380D01*
X98216880Y-41154761D02*
X97978785Y-41869047D01*
X98597833Y-41869047D01*
X90574333Y-44234380D02*
X90241000Y-43758190D01*
X90002904Y-44234380D02*
X90002904Y-43234380D01*
X90383857Y-43234380D01*
X90479095Y-43282000D01*
X90526714Y-43329619D01*
X90574333Y-43424857D01*
X90574333Y-43567714D01*
X90526714Y-43662952D01*
X90479095Y-43710571D01*
X90383857Y-43758190D01*
X90002904Y-43758190D01*
X91050523Y-44234380D02*
X91241000Y-44234380D01*
X91336238Y-44186761D01*
X91383857Y-44139142D01*
X91479095Y-43996285D01*
X91526714Y-43805809D01*
X91526714Y-43424857D01*
X91479095Y-43329619D01*
X91431476Y-43282000D01*
X91336238Y-43234380D01*
X91145761Y-43234380D01*
X91050523Y-43282000D01*
X91002904Y-43329619D01*
X90955285Y-43424857D01*
X90955285Y-43662952D01*
X91002904Y-43758190D01*
X91050523Y-43805809D01*
X91145761Y-43853428D01*
X91336238Y-43853428D01*
X91431476Y-43805809D01*
X91479095Y-43758190D01*
X91526714Y-43662952D01*
X98608142Y-45758380D02*
X98274809Y-45282190D01*
X98036714Y-45758380D02*
X98036714Y-44758380D01*
X98417666Y-44758380D01*
X98512904Y-44806000D01*
X98560523Y-44853619D01*
X98608142Y-44948857D01*
X98608142Y-45091714D01*
X98560523Y-45186952D01*
X98512904Y-45234571D01*
X98417666Y-45282190D01*
X98036714Y-45282190D01*
X99560523Y-45758380D02*
X98989095Y-45758380D01*
X99274809Y-45758380D02*
X99274809Y-44758380D01*
X99179571Y-44901238D01*
X99084333Y-44996476D01*
X98989095Y-45044095D01*
X100179571Y-44758380D02*
X100274809Y-44758380D01*
X100370047Y-44806000D01*
X100417666Y-44853619D01*
X100465285Y-44948857D01*
X100512904Y-45139333D01*
X100512904Y-45377428D01*
X100465285Y-45567904D01*
X100417666Y-45663142D01*
X100370047Y-45710761D01*
X100274809Y-45758380D01*
X100179571Y-45758380D01*
X100084333Y-45710761D01*
X100036714Y-45663142D01*
X99989095Y-45567904D01*
X99941476Y-45377428D01*
X99941476Y-45139333D01*
X99989095Y-44948857D01*
X100036714Y-44853619D01*
X100084333Y-44806000D01*
X100179571Y-44758380D01*
M02*
