G04 #@! TF.GenerationSoftware,KiCad,Pcbnew,(5.1.12)-1*
G04 #@! TF.CreationDate,2022-01-02T13:29:21+01:00*
G04 #@! TF.ProjectId,20210211_eduino,32303231-3032-4313-915f-656475696e6f,v1.0*
G04 #@! TF.SameCoordinates,Original*
G04 #@! TF.FileFunction,Copper,L2,Inr*
G04 #@! TF.FilePolarity,Positive*
%FSLAX46Y46*%
G04 Gerber Fmt 4.6, Leading zero omitted, Abs format (unit mm)*
G04 Created by KiCad (PCBNEW (5.1.12)-1) date 2022-01-02 13:29:21*
%MOMM*%
%LPD*%
G01*
G04 APERTURE LIST*
G04 #@! TA.AperFunction,ComponentPad*
%ADD10C,0.400000*%
G04 #@! TD*
G04 #@! TA.AperFunction,ComponentPad*
%ADD11C,0.800000*%
G04 #@! TD*
G04 #@! TA.AperFunction,ComponentPad*
%ADD12R,1.508000X1.508000*%
G04 #@! TD*
G04 #@! TA.AperFunction,ComponentPad*
%ADD13C,1.508000*%
G04 #@! TD*
G04 #@! TA.AperFunction,ComponentPad*
%ADD14O,3.150000X1.575000*%
G04 #@! TD*
G04 #@! TA.AperFunction,ComponentPad*
%ADD15C,1.524000*%
G04 #@! TD*
G04 #@! TA.AperFunction,ViaPad*
%ADD16C,0.800000*%
G04 #@! TD*
G04 #@! TA.AperFunction,Conductor*
%ADD17C,0.250000*%
G04 #@! TD*
G04 APERTURE END LIST*
D10*
X122486400Y-50960000D03*
X123299200Y-50198000D03*
X123299200Y-48674000D03*
X122486400Y-47962800D03*
X121013200Y-47962800D03*
X120302000Y-48724800D03*
X120302000Y-50198000D03*
X121013200Y-50960000D03*
X121775200Y-50198000D03*
X121826000Y-48674000D03*
X122486400Y-49436000D03*
X121013200Y-49486800D03*
D11*
X93980000Y-57150000D03*
X95250000Y-57150000D03*
X96520000Y-57150000D03*
X97790000Y-57150000D03*
X99060000Y-57150000D03*
X100330000Y-57150000D03*
X101600000Y-57150000D03*
X102870000Y-57150000D03*
X93230700Y-40690800D03*
X95516700Y-40678100D03*
D12*
X84650000Y-51760000D03*
D13*
X84650000Y-49260000D03*
X84650000Y-47260000D03*
X84650000Y-44760000D03*
D14*
X82550000Y-42560000D03*
X82550000Y-53960000D03*
D15*
X90170000Y-55880000D03*
X90170000Y-53340000D03*
X90170000Y-50800000D03*
X90170000Y-48260000D03*
D16*
X102099300Y-54216700D03*
X110896000Y-46786800D03*
X113474500Y-49784000D03*
X117157500Y-42608500D03*
X117332000Y-44720000D03*
X101917500Y-40703500D03*
X99758500Y-40894000D03*
X114300000Y-41592500D03*
X127751400Y-45641800D03*
X128199700Y-40918500D03*
X88886200Y-49481200D03*
X88669900Y-52826500D03*
X128289100Y-48583000D03*
X109136200Y-55700900D03*
X109334200Y-42623400D03*
X104298900Y-49262800D03*
X116409300Y-55447700D03*
X96707600Y-45402900D03*
X94251600Y-50636100D03*
X97878854Y-45481258D03*
X101219000Y-42735500D03*
X107995900Y-41864600D03*
X108965000Y-44302800D03*
X113642300Y-55686600D03*
X111580000Y-55475000D03*
X93515100Y-45348800D03*
X99963700Y-49846700D03*
D17*
X85729300Y-51760000D02*
X88407200Y-54437900D01*
X88407200Y-54437900D02*
X101878100Y-54437900D01*
X101878100Y-54437900D02*
X102099300Y-54216700D01*
X84650000Y-51760000D02*
X85729300Y-51760000D01*
X83570600Y-53234900D02*
X85070000Y-53234900D01*
X85070000Y-53234900D02*
X87715100Y-55880000D01*
X87715100Y-55880000D02*
X90170000Y-55880000D01*
X83570600Y-53234900D02*
X83275100Y-53234900D01*
X83275100Y-53234900D02*
X82550000Y-53960000D01*
X84650000Y-44760000D02*
X83570600Y-45839400D01*
X83570600Y-45839400D02*
X83570600Y-53234900D01*
X93980000Y-57150000D02*
X91440000Y-57150000D01*
X91440000Y-57150000D02*
X90170000Y-55880000D01*
X95516700Y-40678100D02*
X91434800Y-44760000D01*
X91434800Y-44760000D02*
X84650000Y-44760000D01*
X84650000Y-44760000D02*
X82550000Y-42660000D01*
X82550000Y-42660000D02*
X82550000Y-42560000D01*
X97790000Y-57150000D02*
X99239100Y-55700900D01*
X99239100Y-55700900D02*
X109136200Y-55700900D01*
X90170000Y-48260000D02*
X106215700Y-48260000D01*
X106215700Y-48260000D02*
X113642300Y-55686600D01*
X90170000Y-50800000D02*
X92456200Y-53086200D01*
X92456200Y-53086200D02*
X109191200Y-53086200D01*
X109191200Y-53086200D02*
X111580000Y-55475000D01*
M02*
